<?xml version="1.0" encoding="utf-8"?>
<!-- Generator: Adobe Illustrator 23.0.3, SVG Export Plug-In . SVG Version: 6.00 Build 0)  -->
<svg version="1.1" id="Capa_1" xmlns="http://www.w3.org/2000/svg" xmlns:xlink="http://www.w3.org/1999/xlink" x="0px" y="0px"
	 viewBox="0 0 512 512" style="enable-background:new 0 0 512 512;" xml:space="preserve">
<style type="text/css">
	.st0{fill:#FFFFFF;}
</style>
<g>
	<path class="st0" d="M94.7,296.2C85.9,301.4,80,311,80,322c0,16.5,13.5,30,30,30c13,0,24.2-8.4,28.3-20H216c16.5,0,30,13.5,30,30
		s-13.5,30-30,30H96c-27.6,0-50,22.4-50,50s22.4,50,50,50h100c5.5,0,10-4.5,10-10s-4.5-10-10-10H96c-16.5,0-30-13.5-30-30
		s13.5-30,30-30h120c27.6,0,50-22.4,50-50s-22.4-50-50-50h-77.7c-2.4-6.7-7-12.3-13-15.8l76.4-125.3c12-18.1,18.4-39.1,18.4-60.9
		C220,49.3,170.7,0,110,0S0,49.3,0,110c0,21.8,6.4,42.8,18.4,60.9L94.7,296.2z M110,332c-5.5,0-10-4.5-10-10s4.5-10,10-10
		s10,4.5,10,10S115.5,332,110,332z M110,20c49.6,0,90,40.4,90,90c0,17.9-5.2,35.1-15.1,49.9c-0.1,0.1-0.2,0.2-0.2,0.4L110,282.8
		c0,0-74.8-122.7-74.9-122.9C25.2,145.1,20,127.9,20,110C20,60.4,60.4,20,110,20z"/>
	<path class="st0" d="M110,160c27.6,0,50-22.4,50-50s-22.4-50-50-50s-50,22.4-50,50S82.4,160,110,160z M110,80c16.5,0,30,13.5,30,30
		s-13.5,30-30,30s-30-13.5-30-30S93.5,80,110,80z"/>
	<path class="st0" d="M402,166c-60.7,0-110,49.3-110,110c0,21.8,6.4,42.9,18.4,61l76.1,119.4c-5.9,3.6-10.5,9.1-12.8,15.7H286
		c-5.5,0-10,4.5-10,10s4.5,10,10,10h87.7c4.1,11.6,15.2,20,28.3,20c16.5,0,30-13.5,30-30c0-10.9-5.8-20.4-14.5-25.7L493.6,337
		c12.1-18.1,18.4-39.2,18.4-61C512,215.3,462.7,166,402,166L402,166z M402,492c-5.5,0-10-4.5-10-10s4.5-10,10-10s10,4.5,10,10
		S407.5,492,402,492z M476.9,325.9c0,0.1-74.9,117.5-74.9,117.5S327.2,326,327.1,325.9c-9.9-14.8-15.1-32.1-15.1-49.9
		c0-49.6,40.4-90,90-90s90,40.4,90,90C492,293.9,486.8,311.1,476.9,325.9z"/>
	<path class="st0" d="M402,226c-27.6,0-50,22.4-50,50s22.4,50,50,50s50-22.4,50-50S429.6,226,402,226z M402,306
		c-16.5,0-30-13.5-30-30s13.5-30,30-30s30,13.5,30,30S418.5,306,402,306z"/>
	<circle class="st0" cx="241" cy="482" r="10"/>
</g>
</svg>
