<?xml version="1.0" encoding="utf-8"?>
<!-- Generator: Adobe Illustrator 23.0.3, SVG Export Plug-In . SVG Version: 6.00 Build 0)  -->
<svg version="1.1" id="Layer_5" xmlns="http://www.w3.org/2000/svg" xmlns:xlink="http://www.w3.org/1999/xlink" x="0px" y="0px"
	 viewBox="0 0 512 512" style="enable-background:new 0 0 512 512;" xml:space="preserve">
<style type="text/css">
	.st0{fill:#FFFFFF;}
</style>
<g>
	<path class="st0" d="M280,504h16V296h208v-16H280V504z"/>
	<path class="st0" d="M8,296h208v208h16V280H8V296z"/>
	<path class="st0" d="M216,216h-16v-96h-37.6l6.4-64H144c0-26.5-21.5-48-48-48S48,29.5,48,56H23.2l16,160H8v16h224V8h-16V216z
		 M184,216h-64v-80h64V216z M96,24c17.6,0,32,14.4,32,32s-14.4,32-32,32S64,73.6,64,56S78.4,24,96,24z M40.8,72h10
		c6.6,18.6,24.3,32,45.2,32s38.6-13.4,45.2-32h10l-4.8,48H104v96H55.2L40.8,72z"/>
	<path class="st0" d="M488,216v-96h-64V24H312v192h-16V8h-16v224h224v-16H488z M472,216h-80v-80h80V216z M328,40h80v80h-32v96h-48
		V40z"/>
	<path class="st0" d="M101.3,312L24,372.1V392h16v80h144v-80h16v-19.9L122.7,312H101.3z M136,456H88v-32h48V456z M168,456h-16v-48
		H72v48H56v-64h112V456z M45,376l61.7-48h10.5l61.7,48H45z"/>
	<path class="st0" d="M88,80h16V64h16V48h-16V32H88v16H72v16h16V80z"/>
	<path class="st0" d="M136,152h32v16h-32V152z"/>
	<path class="st0" d="M136,184h32v16h-32V184z"/>
	<path class="st0" d="M72,120h16v16H72V120z"/>
	<path class="st0" d="M72,152h16v16H72V152z"/>
	<path class="st0" d="M72,184h16v16H72V184z"/>
	<path class="st0" d="M448,456h52l-41.5-99.7c-3.1-7.5-10.4-12.3-18.5-12.3s-15.3,4.8-18.5,12.3l-10.9,26.1l-24.2-58.1
		c-3.1-7.5-10.4-12.3-18.5-12.3s-15.3,4.8-18.5,12.3L308,424h52v64h-48v16h192v-16h-56V456z M436.3,362.5c1.2-3,6.1-3,7.4,0L476,440
		h-72l6.7-16H428l-8.7-20.8L436.3,362.5z M364.3,330.5c1.2-3,6.1-3,7.4,0L404,408h-72L364.3,330.5z M376,424h17.3L380,456h52v32h-56
		V424z"/>
	<path class="st0" d="M408,152h16v16h-16V152z"/>
	<path class="st0" d="M408,184h16v16h-16V184z"/>
	<path class="st0" d="M440,152h16v16h-16V152z"/>
	<path class="st0" d="M440,184h16v16h-16V184z"/>
	<path class="st0" d="M376,56h16v16h-16V56z"/>
	<path class="st0" d="M344,56h16v16h-16V56z"/>
	<path class="st0" d="M344,88h16v16h-16V88z"/>
	<path class="st0" d="M376,88h16v16h-16V88z"/>
	<path class="st0" d="M344,184h16v16h-16V184z"/>
	<path class="st0" d="M344,152h16v16h-16V152z"/>
	<path class="st0" d="M344,120h16v16h-16V120z"/>
</g>
</svg>
