<?xml version="1.0" encoding="utf-8"?>
<!-- Generator: Adobe Illustrator 15.1.0, SVG Export Plug-In . SVG Version: 6.00 Build 0)  -->
<!DOCTYPE svg PUBLIC "-//W3C//DTD SVG 1.1//EN" "http://www.w3.org/Graphics/SVG/1.1/DTD/svg11.dtd">
<svg version="1.1" id="Plan_1" xmlns="http://www.w3.org/2000/svg" xmlns:xlink="http://www.w3.org/1999/xlink" x="0px" y="0px"
	 width="800px" height="800px" viewBox="0 0 800 800" enable-background="new 0 0 800 800" xml:space="preserve">
<a id="anantapur" xlink:href=" " >
	<path fill="#2E4BA0" d="M151.667,484.031l-0.748,5.232c-0.374,1.246,0,2.118-0.748,3.24c-0.748,1.121-2.492,2.741-3.489,3.738
		s-2.741,1.495-3.115,2.99c-0.623,3.239,0.125,6.229,3.738,6.854c2.617,0.499,6.729,0.125,5.109,4.237
		c-1.371,1.993-3.613,3.114-5.482,4.734c-1.62,1.246-2.742,2.865-2.866,4.984c-0.249,3.738-3.115,5.233-0.748,8.972
		c1.62,2.617,5.109,4.984,7.85,6.479c1.496,0.499,3.863,2.617,5.234,3.489c3.24,2.117,19.564,7.228,20.436,9.595
		c-1.371,3.737,2.492,7.976,2.991,11.714l2.368,13.333l0,0c-2.368,1.371-3.738,3.987-5.732,5.233
		c-2.243,1.37-4.86,1.744-6.854,3.488c-1.246,1.122-1.994,3.24-3.738,3.489c-1.994,0.374-4.112,0.125-5.109,2.368
		c-1.122,2.616-1.246,4.111-3.115,6.229l-4.86,0.498l0,0c0.125-1.744-1.371-1.246-0.623-3.114c0.997-2.118,0.125-4.859-2.617-4.236
		c-2.243,0.498-1.496-1.246-3.115-2.492c-0.125,0.373-0.623,1.246-0.997,1.619c-0.499,0.499,0.997,1.122,0.125,1.371
		c-0.872,0.374-3.115,0.498-3.614-0.374c-0.498-0.747-1.62,0.748-2.243,1.122c-1.246,0.747-0.748,2.74-2.492,2.242
		c-1.869-0.498-0.997-2.118-1.371-3.862c0.748-2.617,1.371-1.994,3.489-2.866c1.246-0.623,0.25-3.863,0.25-4.984
		c-0.125-1.494-0.499-1.122-1.745-1.122c-0.374,1.246-0.748,1.869-1.371,2.991c-0.498,0.748-2.243,2.741-2.99,1.994
		c-0.748-0.748-1.745-0.748-2.243-1.87c-0.125-0.373,0-1.246-0.249-1.37c-1.246-0.374-3.988,0.124-5.358,0.124
		c-0.748,0-1.62-0.995-1.869-0.623c-0.623,0.997-1.745,1.745-1.371,2.742c0.249,0.747,1.371,1.495,1.495,1.993
		c0.623,0,0.872,0.748,0.748,1.371c-1.246,0.747-0.249,1.744-0.748,1.869c-0.499,0.124-1.122-0.125-1.246,0.498
		c-0.125,0.499-1.994,0.748-2.741,1.62c-0.748,0.872,0.748,2.491-0.499,2.491c-0.873,0-3.988,0.249-4.611,0.748
		c-2.243,1.744,0,4.735-0.872,5.856c-0.499,0.748-1.496,0-1.496-0.623c0-1.495,0.374-2.118-1.371-1.495
		c-2.118,0.872-1.745-0.125-0.499-0.623c-0.249-1.246-2.118-0.997-3.115-1.246c-0.125,0-0.623-0.623-0.748-0.499
		c-0.499,0.374-0.623,1.122-1.371,1.371c-0.748,0.498-3.24,0.747-1.246,1.994c0.997,0.498,1.994,0.623,1.371,1.619
		c-0.374-0.124-1.246,1.246-1.246,0c0-0.872-0.249-1.121-1.122-1.246c-2.617-0.124-0.499,1.62-1.745,2.492
		c-0.623,0.374-1.744,1.496-2.492,1.122c-1.121-0.623-0.498-1.869-1.994-2.492c-0.249-0.125-1.246-1.371-1.122-0.249
		c0.125,0.747,0.125,1.495,0.125,2.242c0,0.997,1.121,1.62,1.121,2.492c0,1.495-1.745,0.748-2.243,0.25
		c-1.371-1.246-1.994-0.748-1.496,1.12c0.374,1.495-2.741,1.121-2.741,0.375c-0.25-2.243,0.997-1.246,1.246-3.115
		c0.249-1.371,0.499-4.486-0.623-5.483c0-1.495,0.374-1.495,0.872-2.741c0.125-0.374-1.994-0.748-2.368-0.249
		c-0.374,0.498-0.872,1.62-1.246,0.374c-0.249-0.748-1.121-1.371-0.374-2.242c0.499-0.623,1.869-2.866-0.25-1.62
		c-1.121,0.623-1.246,0.125-2.243,0.125c-0.873,0-1.869,0.249-2.492-0.499c-0.997-0.997-1.122-0.747-2.368-0.498
		c-2.991,2.118-2.368,1.869-3.489-0.748c-0.374-0.872-4.112,1.495-5.358,0.997c-0.623-0.249-1.246-2.118-1.62-2.741
		c-0.499-0.623,0.499-1.496,0.125-2.119c-0.499-0.872-1.62-0.747-1.745,0.374c0,0.374,0.374,2.866-0.499,1.869
		c-1.371-1.37-0.623,0.374-1.869,0.623c-1.246,0.374-0.748-2.243-0.623-2.866c0.623-5.107-4.112-1.619-2.118,2.119
		c1.371,2.492-2.617,0.124-3.115,1.619c-0.25,1.122,4.112,1.246,2.741,3.116l0,0c-0.125,1.12-0.623,1.37,0.125,2.366
		c0.374,0.623,0.623,1.121,1.122,1.62c0.25,0.249,0.873,0.498,0.873,0.747c0,0.25-1.246,1.62-1.371,1.62
		c0,0-1.121-0.623-1.495-0.623c-0.872,0-1.745,0-2.741-0.124c-0.873,0-2.742-0.997-3.116,0c-0.623,1.495,0.25,1.744-1.744,1.246
		c-0.997-0.25-0.748-0.499-0.997-1.371c-0.125-0.498-0.499-0.498-0.872-0.748c-1.496-1.246-1.62-1.246-2.368,0.499
		c-0.25,0.623-0.623,3.364-1.745,1.869c-0.623-0.872-0.997-4.61-0.748-5.606c0.249-0.872-1.122-2.617,0.374-2.991
		c0-0.124,0.125-0.124,0.125-0.249c0.498-0.997,1.62-1.121,2.243-1.993c0.623-0.873,1.122-1.745,1.371-2.742
		c0.499-1.993,1.994-0.373,1.869-2.741c-0.125-1.371-0.374-1.495-1.495-2.117c-0.499-0.25-0.623-0.872-0.997-1.122
		c-0.374-0.249-1.62-0.623-2.243-0.747c0-0.374,0.623-0.748,0.623-1.246c0.623-0.748,0.872-1.246-0.125-1.869
		s-1.496-0.872-2.368-1.62c-0.499-0.498-1.371-0.374-1.994-0.623c-0.872-0.374-0.872-1.121-1.62-1.495
		c-0.997-0.623-0.374-1.62-0.125-2.368c0.748,0,3.987,0,3.987-0.747c0.374-2.491-1.371-1.744-2.866-2.99
		c-0.374-1.37,0.125-2.866-1.62-3.115c-0.623-0.124-3.24-0.623-3.614-1.121c-0.374-0.374,0-1.495,0-2.118
		c-0.125-1.371,1.62-0.374,2.368-0.374c1.371,0,2.243-3.115,2.866-2.617c0.499,0.374,1.122,0.623,1.371,1.246
		c0.374,0.872,1.371,0.623,2.118,0.623s2.243,0.125,2.742,0.249c0,0.374,0,0.873-0.374,1.122c-0.499,1.121-1.745,5.607-0.623,6.479
		c0.499,0.374,0.872,0.499,0.872,1.245c0,0.748-1.246,1.495,0,1.994c0.623,0.249,2.119,0.249,2.866,0.124
		c1.371,0.623,2.243,0.997,3.863,0.873c0.499,0,2.243-0.499,2.492,0.124c0.499,0.997-0.125,5.483,1.994,4.86
		c1.62-0.499,1.869,0.124,2.243-1.62c0.374-0.125,0.873,0.498,1.496,0.498h1.744c0.499,0,1.994-0.124,2.368-0.124
		c0.748-0.125,2.243-2.119,2.991-0.873s1.62,0.873,2.492-0.124c0.873-0.872,1.122,0.124,1.496,0.623
		c0.748,0.872,1.246,0.623,1.62,1.869c0.374,1.37,3.489,0.374,1.62,2.99c-0.748,1.122,0.125,1.496-0.374,2.491
		c0,0.748-0.623,1.62-0.249,2.368c0.374,0.747,1.122,0.623,1.495,1.121c0.25,0.374,0.873,0.249,1.246,0
		c0.873-0.623,0.748-0.249,1.496,0c0.997,0.249,0.249,1.495,1.122,1.495c1.121,0,2.118-1.121,2.741-1.993
		c0.249-0.374-0.997-1.371-1.246-1.62c-2.617-2.616,1.62-1.62,1.745-3.986c0.125-2.368-3.988-0.748-4.735-0.872
		c-1.371-0.125,0-2.617,0-3.24c-1.246-0.374-2.492-0.374-3.987-1.121c-1.496-0.748-1.371-2.492,0-3.24
		c0.498-0.249,2.243-0.872,2.118-1.495c-0.125-0.747,1.496-0.872,1.496-1.993c0-0.623,0-1.246,0.623-1.495
		c0.374-0.249,1.246-0.872,0.748-1.495c-0.374-0.374-2.742,0.124-3.24,0.373c-0.499,0.25-1.122,0.623-1.62,0.499
		c0-0.623,0.125-1.869,0.623-1.994c1.122-0.249,1.994-0.498,2.741-1.37c1.371-1.495,1.62-2.991,3.863-2.991c0,0,0.125,0,0.125-0.124
		c0.748-0.25,1.62,0.373,2.368,0.373c0.997,0,1.62-0.124,2.492,0.25c0.623,0.373,4.237,1.37,4.61,0.997
		c0.374-0.499,0.125-2.368-0.499-2.742c-0.374-0.249-1.371-0.498-1.371-1.121c0-0.997-0.499-0.748-0.872-1.495
		c-0.374-0.622-0.125-2.118,0-2.865c0-1.122,0-2.118-1.122-2.617c-1.122-0.498-1.495-1.37-2.617-0.249
		c-0.499,0.498-1.246,0.623-1.496-0.249c-0.125-0.374-0.748-2.492-0.997-2.617c-1.496-0.374-1.869-1.37-3.24-0.997
		c-0.374,0.125-1.371-0.124-1.371-0.124c-0.249,0.124,0.25,2.118,0.125,2.616c0,0.873-1.745,2.492,0,2.991
		c1.371,0.374,2.368,0.249,2.492,1.993c0,0.997,0.25,1.868,0.873,2.616c0.872,1.121-1.371,0.997-1.994,1.246
		c-1.869,0.623-0.374-2.243-1.496-2.866c-0.748-0.497-1.994-0.872-1.745-1.992c-0.125-0.997,0.25-2.243-1.122-2.368
		c-1.246-0.124-2.492-0.747-3.738-0.623c-3.364,0.623-2.118-3.364-2.617-5.482c-0.748-0.125-1.745,0.623-2.243,1.121
		c-0.873,0.872-1.496,0.748-2.617,0.623c-2.243-0.124-2.866-0.997-4.984-1.37c-1.495-0.25-1.122-0.623-2.866-0.374
		c-1.495,0.872,0.374,2.492-1.495,3.862c-0.623,0.499-0.249,3.115-0.125,3.738s0.125,2.367-0.125,2.99
		c-0.873,1.869-2.742,0.249-3.738,0.997c-0.748-2.242-1.496-3.488-4.112-2.616c-2.742,0.872-6.355,0.872-7.726-1.994
		c-1.121-2.367-1.121-1.246,1.371-2.242c1.869-0.748-0.748-2.991-1.869-2.991c-1.87-0.498-2.368-0.374-3.489-1.993
		c-0.748-0.997-1.62-2.243-1.122-3.614c0.125-0.373,0.125-1.868,0.249-1.868c0.499-0.498,1.122-0.747,1.745-0.872
		c0.623-0.125,0.25-0.748,0.623-0.997c0.125,0.125,1.122,0.499,1.371,0.499c0.499,0.124,0.873,0.872,1.496,0.623
		c0.499-0.125,0.374-0.873,0.374-1.246c0-0.873-0.748-3.24,0.249-3.738c0.623-0.25,1.371-0.374,1.62-1.247
		c0.374-1.37-0.997-1.619-1.745-2.367c-1.994-0.997-1.869-1.245-3.614,0c-0.499,0.374-3.614,1.62-3.738,1.495
		c-0.623-0.623-0.748-1.744-1.122-2.492c-0.872-1.619-1.994-1.743-3.614-2.117c-2.492-0.498-2.368-2.617-3.738-4.112
		c-0.125-1.121-0.623-1.246-1.246-1.993c-0.623-0.873,0.249-1.246,0.499-1.994c0.125-0.498,0-0.997,0.125-1.495
		c0.249-0.872,0.748-1.245,0.623-2.242c0-0.498-0.623-2.741-0.374-2.741c1.496,0,1.745-0.997,2.119-2.119
		c0-0.996-0.499-1.744-0.374-2.741s0.499-1.744,0.25-2.616c-0.125-0.499-0.623-1.122-0.623-1.371c0-0.747,4.984-0.373,5.109-0.996
		c0.125-0.374-0.249-0.997,0.125-1.37c0.374-0.499,0.873-0.499,0.374-1.122c-0.499-0.747-0.997-1.121-0.748-2.118
		c0.872-0.872,1.371-1.495,0.748-2.492c-0.499-0.872-1.122-1.62,0-2.368c1.371-0.996,0.499-4.36,0.499-5.73
		c0-1.994-0.873-1.246-2.243-0.872c-1.371,0.498-3.614-0.125-4.86-0.748c-1.246-0.623-0.748-0.374-1.495-1.371
		c0-1.495,1.121-0.872,1.744-1.869c0.623-1.246,0.873-1.37,0.374-2.741c-0.623-1.744-1.122-5.108,1.246-5.731
		c1.371-0.373,1.745,1.246,2.617,1.246c1.246,0,0.623,0.499,1.371,1.122c0.249,0.249,1.495,0.623,1.869,0.871
		c0.872,0.498,0.748,1.994,1.62,2.243c0.748-0.249,1.869,0,2.492,0.374c0.748,0.373,1.246-0.499,1.869-0.125
		c1.246,0.623,2.492,0.623,3.738,1.371c1.122,0.623,1.496,0,2.617-0.25c0.748-0.124,3.364-0.249,3.987-0.623
		c0.499,0,1.122,0.374,1.496,0.374c0.374,1.122-0.997,1.994,1.121,2.118c0.997,0.125,2.492,0.25,2.991-0.747
		c0.623-1.246,0.125-1.246,1.62-1.246c1.371,0,0.997-2.118,1.122-2.991c0.125-0.622,0.498-1.369,0.498-1.992
		c0-2.118,2.243-1.994,2.368-4.237c0-0.623-1.371-1.37-1.745-2.118c1.869-1.121,2.243,0.374,2.617-2.243
		c0.125-1.246,0-1.993-0.499-2.741l0,0l5.358,0.748l9.595,1.495c1.994,0.374,4.984-4.859,5.358-6.479
		c3.115-0.748,4.237-0.374,6.854,1.121c5.234,3.114,5.857-4.112,11.09-2.99c1.246,0.249,1.122,3.613,2.866,4.61
		c2.741,1.494,3.115,0.374,4.735-1.869c1.994-2.617,2.493-1.994,3.614,0.374c0.873,1.993,3.115,2.615,4.361,4.235
		c1.371,1.744,2.119,7.104,5.358,3.863c3.115-3.115,3.365-1.994,6.854-2.866c0.499-0.125,4.112-3.114,4.112-1.246
		c0,3.987-0.872,3.863,3.614,3.738c3.115-0.125,2.368,3.987,2.368,6.355c-0.25,2.989,0.872,5.979,3.489,7.352
		c1.246,0.623,1.745,2.118,2.991,2.492C148.925,482.66,150.171,483.034,151.667,484.031L151.667,484.031z"/>
	<text transform="matrix(1 0 0 1 60.0029 513.9248)" fill="#FFFFFF" font-family="'Arial-BoldMT'" font-size="14.9533">Anantapur</text>
	<text transform="matrix(1 0 0 1 114.7695 509.0029)" fill="#385CAA" font-family="'ArialMT'" font-size="14.9533">.</text>
</a>
<a id="chittoor" xlink:href=" " >
	<path fill="#65CCEC" d="M152.539,594.184l4.86-0.498c1.869-2.117,1.994-3.737,3.115-6.229c0.997-2.243,3.115-1.994,5.109-2.368
		c1.745-0.374,2.492-2.492,3.738-3.489c2.118-1.743,4.611-2.117,6.854-3.487c2.119-1.246,3.365-3.863,5.732-5.234l0,0
		c1.495,1.994,4.236,8.225,5.856,2.742c0.623-1.994,5.732-4.112,5.607-1.496c-0.374,8.723,4.361,5.732,8.723,10.717
		c1.994,2.118,3.489,3.115,6.355,1.495c2.866-1.744,4.735-1.869,7.975-1.869c1.495-0.747,3.489,0,5.732-1.37
		c1.869-1.122,2.368,0.623,4.112,0.996c3.115,0.623,5.483-2.99,8.723-3.363c1.745-0.25,4.984,1.494,5.732,3.114
		c1.869,4.112,9.595,2.118,10.094,3.738c0.374,1.246-0.997,2.742,0,4.486c0.997,1.62,2.741,2.117,4.486,2.117
		c0.748-0.374,2.99-0.497,3.863-0.497c2.242,0,1.869,3.737,5.731,2.74c3.115-0.748,9.471,0,10.343-3.986
		c0.249-1.496-1.37-2.991-2.243-4.112c-0.373-0.374-0.124-3.987-0.124-4.735l0.623-3.737l0,0l6.729-0.498
		c4.984-0.499,8.474,2.741,10.343,7.352c0.748,1.994,2.367,2.118,3.364,0c0.623-1.62,1.745-4.361,2.866-5.606
		c0.374-0.498,2.617,2.366,3.24,2.74c1.993,1.371,5.233,4.112,6.729,0.499c0.748-1.62,0.125-5.606,1.869-3.114
		c1.994,2.864,6.355,4.733,7.602,7.726c1.246,2.99-2.118,7.229-3.613,9.72c0.747,2.866-0.623,4.859,3.364,6.23
		c4.485,1.495,6.729,3.115,9.844,6.479c2.368,2.492,2.492,7.727,2.492,10.967l0,0c-0.872-0.25-2.616,0.747-3.613,0.747
		s-2.243,0.623-2.741,1.495c-0.623,0.872,0.249,1.495-0.125,1.993c-0.125,0.748,0.374,1.62-0.374,2.119
		c-0.498,0.249-1.744,0.124-1.993,0.747c-0.374,1.495,2.865,1.869,2.367,2.991l-1.246,2.741c-0.374,0.748-2.866,0.871-3.738,1.245
		c-1.869,0.748-3.24,1.744-5.233,2.367c-1.246,0.374-3.489-0.249-4.361,0.499c-1.745,1.495-1.371,1.37-3.365,0.498
		c-0.872-0.373-1.121,0.873-1.744,1.246c-1.121,0.748-2.741,0.499-0.997,1.869c1.246,0.873,3.115,1.371,4.361,1.869
		c0,0.623-2.616,2.243-3.115,2.742l-0.124-0.125c-0.25-1.495-1.62-1.62-2.866-0.872c-1.994,1.246-0.997-0.125-1.495-1.246
		c-0.25-0.748-1.869,0.747-1.994,0c-0.374-1.62,0.498-0.997,0.748-2.118c0.124-0.623-3.365-0.499-3.863-0.499
		c-1.745,0-0.623,1.495-2.741,0.623c-0.997-0.374-1.62,1.994-2.991,1.994c-2.866,0-3.738-5.607-4.361-5.732
		c-0.747-0.124-1.993,0.249-2.741,0.249c-1.495,0-5.607-0.623-6.604,0.125c-2.866,1.744-3.364,2.866,0.374,2.866
		c0.498,1.246-3.987,7.975,0.498,4.859c0.997-0.623,0.623,0.748-0.124,1.122c-1.246,0.498-0.374,2.241-1.994,2.366
		c-1.121,0.125-2.866,0.125-3.738,0.748c-0.748,0.498-0.748,1.495-1.744,1.744c-1.246,0.374-0.623,1.869-0.873,2.991
		c-0.249,1.121-2.741,1.869-3.862,2.367c-1.122,0.623-3.365-1.62-3.365-2.741c0,0-1.121,0-1.744-0.499
		c-0.623,0.499-0.498,1.745-1.371,1.994c-1.122,0.249-0.873-1.246-1.496-1.246c-0.374,0-0.498,3.738-1.246,4.735
		c-1.495,1.495-3.613,2.741-4.112,4.983c-0.374,1.495,0.249,4.112-1.869,4.485c-0.499,0.125-2.492,0.125-2.991-0.124
		c-1.371-0.499-2.866-0.623-4.237-0.125c-0.872-0.498-1.994-0.872-1.994-1.993c0-0.748,0.125-1.745-0.623-2.119
		c-0.873-0.498-5.857,0-4.611-1.619c0.374-0.499,2.243-1.868,2.243-2.491c-0.125-1.496-3.115,0.498-3.738,0.498
		c-0.873,0.125-1.246-0.498-2.119-0.623c-1.495-0.374-6.355,2.117-3.115,3.363c0.997,0.374,2.243,1.994,0.499,1.62
		c-1.246-0.249-2.866-0.374-3.364-1.744c0-0.997,0.748-3.239,0.374-3.987c-0.623-1.121-2.243,0.499-2.991,0.748
		c-0.997,0.374-2.118,0.374-3.115,0.125c-1.994-0.374-1.744,0-2.99,1.12c-1.371,1.121-2.991,1.869-4.735,1.371
		c-0.499-0.125-1.869-1.122-2.243-1.122s-0.997,2.368-1.122,2.741c-0.374,0.748,0.374,1.745-0.872,1.994
		c-0.872,0.249-1.495-0.125-2.243-0.498c-2.492-1.246-1.62-0.125-2.99,1.37c-0.499,0.623-2.368,0.997-1.745,1.745
		c0.748,1.121,1.495,1.37,1.371,2.99c-0.125,0.997,0.623,1.12,0.623,1.868c0,1.121-1.371,0.498-1.869,0.623
		c-0.748,0.125-0.499,2.367-1.122,2.741c-0.499,1.371-1.371,2.617-1.371,3.988c0,0.498-0.125,3.613-0.25,3.738
		c0,0.872-0.498,1.743-0.997,2.366c-0.25,0.498-1.496,1.495-1.62,1.744c-0.125,0-0.249,0.25-0.374,0.25
		c-0.499,0.498-1.122,0.498-1.122,1.37c0,0.499,0.125,0.872,0,1.371c-0.125,1.246,0.498,1.495-0.374,2.616
		c-1.745,2.492-1.869-1.246-3.614-1.993c-0.623-0.249-0.623,0.623-0.125,0.997c0.374,0.249,1.122,0.498,0.623,1.121
		c-0.623,0.748-1.371,0.249-0.997,1.745c0.374,1.121-0.125,1.744-1.246,1.993c-2.243,0.499-0.748,0.623-0.997,1.993
		c-0.25,0.498,0.125,1.744-0.374,1.993c-0.623,0.25-1.62,0.125-2.243,0.374c-1.496,0.374-3.24,2.617-4.735,1.869
		c-0.997-0.498-2.243-0.747-3.115-1.246c-1.745-1.37-5.109-4.983-7.228-5.232c-0.374,0-2.492,0-2.617,0.249
		c-0.623,0.872-0.623,2.367-1.122,3.488c-0.623,1.37-2.617,1.246-2.617-0.374c-0.125-1.245,0.498-4.111,1.62-4.858
		c1.246-0.748,1.122-0.997,1.246-2.243l-1.371-4.486l0,0l0.374-1.121c0.249-1.993,1.246-3.737,0.997-5.856
		c-0.125-0.623-0.498-1.37-0.125-1.993c0.25-0.499,1.246-0.623,1.745-0.997c0.249-0.249,1.371,0.623,1.869,0.623l0.125-0.124
		c0.997-0.125,1.496-0.374,2.243-0.499c0-0.997,0.499-1.121,1.371-1.121c0.374,0,1.246-1.371-0.249-0.873
		c-0.873,0.25,0-1.121,0.125-1.37c0.499-0.623,0.748,0.374,1.246-0.125c0.499-0.498,0.748-2.74,1.122-2.865
		c0.498-0.249,2.243,1.868,2.741,2.242c0.748,0.623,1.371,0,1.869,0.374c0.748,0.623,0.374,2.118,1.869,1.495
		c0.997-0.374,1.122-2.243,1.869-2.118c0.25,0.125,0.997,0.249,0.997,0.498c0,0.623,0.997,3.489,0.997,1.371v-1.495
		c0-0.748-0.997-0.748-1.371-1.245c-0.498-0.872-1.371-0.25-2.118,0c-1.371,0.373-0.873-1.246-0.997-2.118
		c-0.125-0.748,0.873-1.371,1.371-1.869c0.498-0.623,0.125-2.119,1.246-1.745c0.872,0.249,1.744-0.124,2.492-0.374
		c0.249-1.121,1.371-1.744,0.125-2.367c-0.873-0.499-0.748-1.745-0.748-2.866c0-0.872,0.997-0.872,1.246-1.495
		c0.498-1.37,1.121-0.747,1.869-1.744c0.374-0.373,1.121,0,1.495-0.373c1.371-1.246,0-1.62,0.623-2.866
		c0.374-0.872,1.745-0.997,1.745-1.994c0-0.747-0.873-1.495-0.748-1.993c0.125-0.623,1.371-0.873,1.495-1.496l0,0
		c0.997,0,0.623-0.623,0.623-1.246c0-0.124,1.62-0.623,1.869-0.623c0.623,0,0.748-0.124,0.997-0.622
		c0.125-0.747,0.249-1.495-0.748-1.495c-0.374,0-2.243,0.125-0.872-0.623c1.745-0.872,1.371-0.498,1.246-2.492
		c-0.125-1.37,0.997-1.62,1.371-2.741c0.499-1.371-1.371-1.994-1.745-3.115c-0.249-0.997,0.25-0.872-0.872-0.499l0,0
		c0,0.374,0.499,1.246,0.125,1.371c-0.498,0.249-1.122-0.125-1.62-0.125c-0.499,0,0,0.748-0.25,0.997
		c-0.748,0.997-2.617-1.495-3.115-1.993c-0.872-0.997-1.869,0-1.994-1.745c-0.872-2.366-3.115,1.745-3.489-0.374
		c-0.623-3.487-2.118,0.25-3.489-0.249c-0.374-0.124-2.368-1.868-1.869-2.117c0.374-0.374,1.121,0,1.246,0.498
		c0.249,0,1.994,0.374,1.62-0.249c0-0.124-1.869-1.62-1.994-1.62c-0.748-0.249-1.62,0-2.368-0.124
		c-0.249-1.122,0.748-2.492,0.873-3.738c0.125-1.745-0.623-3.489-1.246-5.109c0-2.74,0.748-4.858,1.744-7.228
		c0.374-0.872,1.994-5.607,0.623-5.981c-1.246-0.373-2.741,0.748-4.112,0.748c-2.742,0-6.355,0.498-8.972,0.125
		c-0.623-0.125-0.748-0.748-1.246-0.873c-0.623-0.249-1.246,0.873-2.243,0.499c-0.872-0.249-1.246,1.744-1.869,2.243
		c-0.872,0.747-1.246-2.119-0.872-2.617l1.246-1.744c0.748-2.616-1.371-1.869-2.617-2.616c-1.994-1.122,0-2.492-3.115-2.492
		c-1.745,0-1.62,0.124-3.115,0.997c-1.371,0.747-1.496-1.246-2.368-1.869c-1.246-0.997-0.499-0.748-0.374-1.745
		c0-0.374-0.249-0.623-0.125-0.997c0.872-0.249,3.489,0.873,4.112-0.373c0.872-1.869-2.492-3.489-1.62-4.486
		C150.67,595.679,152.414,595.43,152.539,594.184L152.539,594.184z"/>
	<text transform="matrix(1 0 0 1 233.8477 651.7803)" font-family="'ArialMT'" font-size="14.9533">.</text>
	<text transform="matrix(1 0 0 1 217.6484 624.3662)" fill="#FFFFFF" font-family="'Arial-BoldMT'" font-size="14.9533">Chittoor</text>
</a>
<a id="cuddapah" xlink:href=" " >
	<path fill="#009F68" d="M182.072,573.626c1.495,1.994,4.237,8.225,5.856,2.617c0.623-1.994,5.732-4.112,5.607-1.495
		c-0.374,8.723,4.361,5.73,8.723,10.716c1.994,2.118,3.489,3.115,6.355,1.495c2.866-1.744,4.735-1.869,7.975-1.869
		c1.495-0.747,3.489,0,5.732-1.37c1.869-1.122,2.368,0.623,4.112,0.997c3.115,0.623,5.483-2.991,8.723-3.365
		c1.745-0.249,4.984,1.496,5.732,3.115c1.869,4.112,9.595,2.119,10.094,3.738c0.374,1.247-0.997,2.742,0,4.486
		c0.997,1.619,2.741,2.117,4.486,2.117c0.748-0.373,2.991-0.498,3.863-0.498c2.243,0,1.869,3.738,5.732,2.617
		c3.115-0.748,9.471,0,10.343-3.987c0.249-1.495-1.371-2.99-2.243-4.112c-0.374-0.373-0.125-3.987-0.125-4.734l0.623-3.737l0,0
		l-0.124-7.104l-1.246-13.582c-0.249-3.365-2.119-8.1-1.994-11.34c-0.498-5.482-2.492-10.094-5.732-14.33
		c-2.99-3.863-7.477-7.104-8.1-12.461c-0.124-0.125-0.249-0.374-0.249-0.499c-2.492-3.489-6.106-4.485-6.978-9.346
		c-0.623-3.862,0.374-7.478-2.119-10.842c-1.495-2.117-1.371-3.986-1.371-6.479c-0.125-1.62-0.748-4.361-1.371-5.857
		c-0.748-1.618-1.994-2.615-2.492-4.36c-0.872-3.239,0-7.602-0.623-11.215l-0.374-1.869c-0.125-0.124,0-0.124,0.25-0.249
		l3.115-2.367l0,0c0-1.745-2.007-6.083-3.502-6.955c-2.492-1.371-6.716,0.351-8.46-1.021c-1.744-1.246-1.495-5.482-4.112-4.61
		c-2.866,0.997-4.361,4.859-7.352,5.481c-2.866,0.623-9.46-11.729-12.451-12.352l-0.875,11l2.25,13.375
		c-0.374,1.246,0.733,2.432-0.389,3.18c-0.872,0.498-1.869,0.996-2.118,2.118c-0.374,1.495,0.249,5.233-0.748,6.23
		c-0.249,0.249-2.99,0.498-3.24,0.498c-2.243-0.498-2.617-1.246-4.984-0.498c-1.371-0.374-3.24,0.747-4.237-0.623
		c-0.623-0.872-1.745-2.118-2.866-0.872c-1.246,1.495-1.121,6.604-5.109,3.862c-2.184-2.896,8.048-12.395,2.191-12.021
		c-6.479,0.374-4.309,2.177-7.549,5.915c-1.371,1.62-8.313,1.318-3.951-3.79c2.617-2.991-0.286-4.684-1.034-11.413
		c-0.374-1.495-5.981-1.744-7.227-1.744c0,0,0,0-0.125,0c-1.121,3.115-1.238,3.667-0.989,6.782c0.125,2.617-3.247,3.188-4.743,5.181
		c-1.62,2.243-2.741,1.246-4.486,2.118l-6.23,2.492l0,0l-0.748,5.233c-0.374,1.246,0,2.119-0.748,3.239
		c-0.748,1.121-2.492,2.741-3.489,3.738c-0.997,0.997-2.742,1.495-3.115,2.99c-0.623,3.24-2.305,9.884,1.309,10.507
		c2.617,0.499,7.87-1.362,6.25,2.75c-1.371,1.994-2.325,0.949-4.194,2.569c-1.62,1.246-2.741,2.866-2.866,4.983
		c-0.249,3.738-4.182,7.833-1.814,11.571c1.62,2.617,2.758,4.38,5.5,5.875c1.495,0.499,6.504,3.878,7.875,4.75
		c3.24,2.118,19.502,7.633,20.375,10c-1.371,3.739,0.752,3.762,1.25,7.5L182.072,573.626L182.072,573.626z"/>
	<text transform="matrix(1 0 0 1 208.6396 536.6943)" fill="#273990" font-family="'ArialMT'" font-size="14.9533">.</text>
	<text transform="matrix(1 0 0 1 171.5645 533.2334)" fill="#FFFFFF" font-family="'Arial-BoldMT'" font-size="14.9533">Cuddapah</text>
</a>
<a id="nellore" xlink:href=" " >
	<path fill="#0E21CC" d="M273.536,580.23l6.729-0.498c4.984-0.499,8.474,2.74,10.343,7.352c0.748,1.994,2.367,2.118,3.364,0
		c0.623-1.62,1.745-4.361,2.866-5.607c0.374-0.498,2.617,2.368,3.24,2.741c1.993,1.371,5.233,4.112,6.729,0.499
		c0.748-1.62,0.125-5.606,1.869-3.115c1.994,2.866,6.355,4.735,7.602,7.727c1.247,2.991-2.118,7.228-3.614,9.72
		c0.748,2.866-0.623,4.859,3.365,6.23c4.485,1.495,6.729,3.114,9.844,6.479c2.368,2.492,2.492,7.728,2.492,10.966l0,0l0,0
		c0.249,0.748-0.498,2.368,0.374,2.991c1.495,1.121,3.24,0,4.61-0.748c1.745-0.872,3.115,0.374,4.86,0.498
		c1.121,0.374,3.489-0.249,4.735-0.498c1.869-0.374,5.98-1.371,7.477,0c1.121,0.997,1.993,4.112,4.485,3.24l0,0
		c-0.124-0.748-0.373-1.496-0.872-1.994c-0.498-0.498-1.246-0.748-1.62-1.246c-0.747-0.872-0.623-2.118-0.872-3.239
		c0-0.872-0.997-2.492-1.495-3.239c-0.374-0.748-0.374-1.869-0.748-2.617c-1.246-2.616-2.866-5.731-2.99-8.847
		c0.124-0.997,0.249-2.243,0.374-3.115c0.124-1.869,0-2.991,0.623-4.735c0.623-1.745,1.121-2.617,0.872-4.61
		c-0.374-2.367-1.62-4.485-2.741-6.604c-1.371-2.617-2.492-4.984-3.489-7.851c-0.623-2.243-1.371-5.109-2.492-7.104
		c-0.499-0.996-1.122-1.495-1.371-2.616c-0.249-1.246-0.249-2.74-0.623-3.862c0-1.869-0.623-3.987-0.623-6.105
		c0-1.994-0.623-4.611,0.125-6.479c0.747-1.121-0.499-2.492,0.872-2.865l0,0c0.124-0.499,0-1.62,0-2.119
		c0-1.37,1.121-2.865,1.371-4.236c0.373-1.62,1.246-2.242,1.246-4.111l0.747-12.212c0.374-2.118,0.125-4.485,0.748-6.604
		c0.249-0.996,0.997-4.361-0.623-4.734c-0.499-0.996-1.371-1.495-1.745-2.616c0.125-0.623-0.623-2.492-0.747-3.364
		c-0.125-1.62-0.623-3.863-1.745-5.109l-1.619-1.62c-0.873-0.872-0.997-1.743-1.62-2.74c0.124-0.872-0.374-2.367-0.499-3.24
		c-0.249-1.619-0.373-3.239-0.373-4.859c0-1.869,0-2.741-0.748-4.609c-0.623-1.869-1.371-3.489-1.745-5.483
		c-0.249-1.37-0.498-2.866-0.747-4.361l0,0c-2.118-0.249-6.479-0.997-8.349-1.994c-1.496-0.746-3.988-4.11-5.857-3.238
		c-2.99,1.37-2.741,12.71-7.975,5.73c-2.118-2.864-0.125-5.855-0.997-8.473c-0.498-1.745-3.364-0.997-4.61-1.496
		c-2.118-0.747-1.122,1.496-1.745,2.617c-0.623,7.477-5.607,0.748-7.726,0.125c-5.856-1.745-8.723,5.606-14.205,1.495l-8.101-5.981
		c-4.859-3.613-5.357-1.121-11.09-0.125c-1.62,0.25-3.863-0.124-5.358,0.25h-10.093l0,0l-3.115,2.367
		c-0.25,0.125-0.374,0.125-0.25,0.249l0.374,1.869c0.623,3.489-0.374,7.851,0.623,11.215c0.499,1.745,1.869,2.742,2.492,4.361
		c0.623,1.496,1.246,4.236,1.371,5.856c0,2.492-0.125,4.361,1.371,6.479c2.493,3.363,1.496,6.979,2.119,10.841
		c0.872,4.859,4.361,5.856,6.978,9.346c0,0.125,0.125,0.374,0.25,0.499c0.623,5.233,5.234,8.599,8.099,12.461
		c3.24,4.236,5.234,8.849,5.732,14.33c-0.125,3.115,1.62,7.977,1.994,11.34l1.246,13.582L273.536,580.23L273.536,580.23z"/>
	<text transform="matrix(1 0 0 1 321.3516 527.6377)" fill="#282D74" font-family="'ArialMT'" font-size="14.9533">.</text>
	<text transform="matrix(1 0 0 1 281.4766 544.1855)" fill="#FFFFFF" font-family="'Arial-BoldMT'" font-size="14.9533">Nellore</text>
</a>
<a id="kurnool" xlink:href=" " >
	<path fill="#201C5A" d="M151.667,484.031l6.23-2.492c1.87-0.872,2.991,0.124,4.486-2.118c1.495-2.119,5.607-3.489,5.483-5.98
		c-0.25-3.115-0.748-2.866,0.249-5.981c0.125,0,0.125,0,0.125,0c1.371,0,6.979,0.249,7.228,1.744
		c0.748,3.365,2.243,3.614-0.374,9.969c-4.361,5.109,3.863,6.854,5.358,5.234c3.24-3.738-0.499-6.355,5.981-6.729
		c5.856-0.374-4.984,9.97-0.623,12.835c3.987,2.617,3.863-2.492,5.109-3.861c1.122-1.246,2.119,0,2.866,0.872
		c1.122,1.369,2.866,0.249,4.237,0.622c2.368-0.747,2.866,0,4.984,0.498c0.249,0.125,2.991-0.249,3.24-0.498
		c1.122-0.996,0.499-4.734,0.748-6.229c0.25-1.122,1.371-1.496,2.119-2.119c1.122-0.747,1.869-1.869,2.243-3.115l-1.744-13.582l0,0
		l-0.997-5.98c-0.997-4.984,0.623-9.72,2.617-14.081c1.869-3.863,1.994-8.349,3.738-12.087c-0.748-2.492-0.748-5.358-0.374-7.852
		c0.374-2.367-1.994-3.239-1.869-5.855c0.125-1.62,0.997-3.115,1.62-4.486c1.122-2.243,0.125-4.235,0.125-6.479
		c0-4.984,0-9.098,4.236-12.212c2.866-2.118,6.23-2.991,7.228-6.355l-0.374-8.848l0,0c-0.748,0.499-2.243,1.745-2.866,0.748
		c-0.748-1.246-0.623-4.486-2.243-5.233c-0.997-0.374-2.492,0.124-2.617,1.246c-0.125,0.997,0.499,1.993,0.374,2.99
		c0,2.118,0.623,3.239-1.246,4.734c-1.246,0.997-3.614,3.364-5.109,3.489c-0.748,0-3.24,0.498-3.614,0.249
		c-0.623-0.498-0.748-0.872-1.745-1.121c-1.121-0.125-1.495,0-2.367-0.997c-0.623-0.748-1.122-1.869-1.994-2.243
		c-1.121-0.623-1.62-2.242-2.866-2.491c-1.371-0.374-2.492-0.125-3.365,0.996c-2.617,3.489-3.738,2.99-7.477,1.495
		c-0.872-0.374-4.112-1.371-5.109-1.371h-0.125l-2.742-0.124c-0.374,0-0.872,0-1.246,0c-1.122,0.124-1.62,1.246-2.617,1.246
		c-0.748,0-1.246,1.495-2.119,1.744c-0.623,0.125-1.371-0.124-1.869,0.125c-0.623,0.249-1.246,0.498-1.869,0.872
		c-0.498,0.498-0.374,1.495-0.997,1.745c-0.499,0.249-1.246-0.125-1.745-0.374c-1.62-0.997-2.991-1.122-2.991,1.121
		c0,0.997-0.125,1.994-0.374,2.991c-0.125,1.121-0.498,2.741-0.997,3.738c-1.371,1.868-4.361,1.12-5.483,2.864
		c-0.623,0.873,0.249,3.988-0.872,4.361c-0.873,0.25-2.119,1.122-3.116,0.748c-0.374-0.125-1.246-0.374-1.495,0.125l-0.623,0.996
		c0,0.997-1.994,0.125-2.492-0.124c-1.122-0.623-1.869,0.124-2.492-1.745c-0.249-0.872-1.122-0.996-1.496-1.619
		c-0.249-0.374-0.125-0.997-0.249-1.496c-0.125-0.872-1.122-0.498-1.62-0.747c-0.997-0.374-1.744,3.239-2.492,3.987
		c-0.623-0.498-1.246-1.121-1.744-1.62c-1.62-1.62-3.489,0-5.234-0.872c-0.997-0.498-1.994-1.495-3.115-1.62
		c-1.994-0.374-2.243,1.62-3.738,2.118c-1.745,0.499-3.988,0.748-5.732,0.623c-1.496-0.124-1.745-1.37-3.365-0.872
		c-1.246,0.374-2.243-1.246-3.863-0.374c-3.614,1.62-5.981-0.498-8.723-2.616c-0.748-0.623-1.745,0.249-2.617,0.249
		c-0.997,0.125-1.495-0.748-2.741-0.498c-1.62,0.373-2.991-0.499-4.486-0.997l0,0c-0.623-0.249-1.122-0.374-1.745-0.374
		c-2.368,0-3.738-1.37-5.981-1.37c-1.371,0-2.991,0.996-4.361,0.622c-0.623-0.124-0.872-0.746-1.495-0.871
		c-0.873-0.249-1.496,0.374-2.243,0.249c-2.368-0.498-4.61-1.121-6.978-1.246c-2.368-0.124-4.611,0.374-6.979,0.499
		c-2.118,0.124-3.115,1.743-4.735,1.868c-3.489,0.249-3.988,0.872-6.23,3.613c-1.62,1.869-2.368,4.486-3.739,6.355l1.745,0.748
		c1.745,0.373,0.623,1.246,0.997,2.615c0.125,0.748-0.374,1.869-0.623,2.492s-1.122,3.115-0.748,3.738
		c0.374,0.499,1.62,0.125,2.243,0.623c0.748,0.499,0.748,1.495,0.748,2.243c0.498,2.366,1.994,1.744,3.489,2.989
		c0.623,0.499,0.748,2.617,0.499,3.365c-1.371,0.374-1.994-0.249-3.115-1.371c-1.495-1.371-0.997,0.125-2.118,0.623
		c-1.745,0.748-1.869-0.374-1.869,1.869c0,1.122-0.624,1.869-0.997,2.866c-0.374,1.121,0.249,2.367-0.25,3.613
		c0.25,0.872,1.247,4.61-0.374,4.236c-1.122-0.249-1.869-0.125-2.991-0.249c-0.997-0.125-0.997-0.125-0.997,0.996
		c0,0.873,0,1.371,0.997,1.62c1.495,0.374,0.997,1.371,1.869,2.492c0.997,1.246,1.745,1.371,2.368,3.115
		c0.125,0.997-0.374,1.495,0.374,2.367c1.371,1.495-0.125,2.865,1.121,3.987c0.25,0.249,1.122,0.872,1.246,1.246
		c0.25,0.498,0.623,2.99,1.745,1.744c0.623-0.623,0.997-0.498,1.994-0.373c1.246,0.373,0.499,2.492,1.371,3.364
		c1.121,1.121,1.869-0.249,2.866,1.246c-0.374,1.246,0,1.743,1.122,2.117c0,0.748-0.125,1.121-0.997,0.872
		c-0.748-0.249-0.498,0.873-0.872,0.997c-0.374,0.125-0.748,0-1.122,0.125c-0.374,0.124-0.499,0.747-0.499,1.121
		c0,0.249,1.994,0.748,2.368,1.246s0.748,0.997,1.122,1.371l0,0l5.358,0.747l9.595,1.496c1.994,0.373,4.985-4.86,5.358-6.48
		c3.115-0.747,4.237-0.374,6.854,1.122c5.234,3.115,5.857-4.111,11.09-2.99c1.246,0.249,1.122,3.613,2.866,4.61
		c2.741,1.495,3.115,0.373,4.735-1.869c1.994-2.616,2.492-1.994,3.614,0.373c0.872,1.994,3.115,2.617,4.361,4.237
		c1.371,1.744,2.118,7.103,5.358,3.862c3.115-3.115,3.365-1.993,6.854-2.865c0.499-0.125,4.112-3.115,4.112-1.246
		c0,3.987-0.872,3.862,3.614,3.738c3.115-0.125,2.368,3.986,2.368,6.354c-0.25,2.991,0.872,5.981,3.489,7.354
		c1.247,0.623,1.745,2.118,2.991,2.492C148.925,482.66,150.171,483.034,151.667,484.031L151.667,484.031z"/>
	<text transform="matrix(1 0 0 1 140.3154 408.9648)" fill="#201C5A" font-family="'ArialMT'" font-size="14.9533">.</text>
	<text transform="matrix(1 0 0 1 102.9326 433.8877)" fill="#FFFFFF" font-family="'Arial-BoldMT'" font-size="14.9533">Kurnool</text>
</a>
<a id="guntur" xlink:href=" " >
	<path fill="#55C2B4" d="M253.598,363.034l1.122,1.869c1.744,0.872,3.863-1.37,5.732-1.495c4.734-0.374,8.723,1.744,12.087-3.115
		c0.748-1.122,2.367-1.994,3.364-2.741c1.246-0.748,3.863-5.731,5.358-4.111c3.364,3.612,6.105,3.114,3.863,8.972
		c-1.496,3.863,0.249,7.976,1.869,11.714c0.747,1.37,1.993,3.738,1.869,5.233c-0.125,1.868-2.617,1.868-2.991,3.488
		c-0.249,0.996,0.249,3.738,0.374,4.859c0.125,4.361,6.105,2.243,9.097,3.489c3.115,1.371,4.735,6.479,7.975,7.477
		c3.614,1.121-0.498-9.72,4.735-9.097l0.374-0.124c2.617,1.619,15.327,2.492,14.33-2.742c-0.872-4.236-3.738-6.604-5.358-10.343
		c-0.623-1.495-0.498-8.848,2.243-6.979c2.243,1.495,5.233,1.37,7.726,1.993c6.979,1.62,1.994,3.738,6.106,7.603
		c1.495,1.371,4.361,0.374,5.981-0.249c2.492-0.997,3.489-0.499,5.731,0.374c2.617,0.623,3.614,1.246,6.355,0
		c2.367-1.122,2.367-1.745,4.735-0.499c3.364,1.745,6.979-1.246,9.097,3.114c1.246,2.617-2.243,3.115-3.364,4.61
		c-0.748,1.122-0.873,4.112-0.623,5.358c0.373,2.865,5.856-0.249,6.854,2.367l2.492,6.979l0,0c0.996-0.373,2.118-0.747,3.239-1.121
		c2.866-1.495,6.604-2.118,9.72-2.99c3.364-0.997,7.976-0.748,10.841,1.246c1.122,0.747,2.244,1.993,2.618,3.239
		c0.373,0.997,0.871,1.869-0.125,2.742c-0.996,0.872-1.371,2.242-0.373,3.364c0.623,0.622,0.623,0.871,0.623,1.743
		c0,0.748,0.995,1.495,1.494,1.869c0.748,0.997,1.62,1.371,2.617,1.495l0,0c0-0.498,0-0.872,0-1.37c0-2.991,1.37-5.98,2.492-8.599
		c0.249-0.623,1.495-1.37,1.869-2.118c0.498-0.997,0.373-2.492,1.121-3.24c0.872-0.996,0.498-2.367,0.872-3.487
		c0.249-0.873,0.623-1.371,0.623-2.368c0-0.872-0.249-2.616-0.249-3.489c0-1.993-1.121-3.115-1.744-4.984
		c-0.499-1.744,0-3.612,0.124-5.357c0-1.121-0.124-2.242-0.623-3.115c-1.37-2.367-2.866-3.613-3.738-6.23
		c-0.747-2.241-1.121-4.609-1.62-6.854c-0.124-0.872-0.373-1.246-0.872-1.495c-2.118-1.121-4.236-2.741-5.606-4.735
		c-1.121-1.743-3.115-5.606-3.613-7.601c-0.623-2.119-2.368-3.738-3.489-5.483c-1.495-2.366-3.614-2.615-5.483-4.235
		c-1.121-0.997-1.993-2.243-3.239-3.115c-1.371-0.873-2.866-1.62-4.237-2.368c-2.118-1.121-3.862-0.872-5.981-1.37
		c-3.613-0.873-7.601-4.485-11.713-3.114c-0.125,0-0.249,0-0.374,0c-1.121,0-2.243,0.622-3.364,0.497
		c-1.495-0.125-2.99-0.249-4.486-0.374c-3.239-0.248-4.485-1.369-6.604-3.737c-1.121-1.121-3.115-1.121-3.488-2.99
		c-0.125-0.872,0.623-1.246,0.498-1.994c-0.125-0.747-0.498-1.495-0.374-2.243c0.623-2.615-0.997-3.238-0.997-5.606
		c0-1.744-0.249-4.735-2.616-5.108c-0.748-0.125-2.118,0.249-2.741,0.872l0,0c-0.25,0.124-0.374,0.374-0.374,0.623
		c-0.374,1.495-0.125,3.115-1.122,4.236c-0.498,0.499,0.374,1.62-0.249,2.119c-1.246,1.12-1.744,2.864-3.24,3.238
		c-1.869,0.374-1.869,1.122-2.865,2.617c-1.496,2.492-1.745,4.984-5.358,4.735c-2.118-0.125-2.492-0.748-3.489-2.368
		c-0.498-0.747,0-1.869-0.498-2.616c-0.623-1.122-1.122-0.997-1.994-1.745c-2.243-1.869-3.115,2.866-4.984,0
		c-0.623-0.997-1.495-2.99-2.99-2.741c-2.368,0.249-3.116,1.121-4.112,3.115c-0.873,1.495-2.368,1.246-3.24,0.623
		c-1.744-1.371-3.863,2.118-4.735,2.741c-1.993,1.371-3.364-2.118-4.984-0.374c-1.37,1.371-0.498,1.62-2.492,2.492
		c-2.367,0.997-2.99,0.748-5.607,0.623c-0.872,0-1.246,0.997-1.994,1.371c-0.623,0.249-1.37-0.125-1.993-0.125
		c-2.118,0-1.495,2.118-2.492,3.364c-0.748,0.872-1.994,1.121-3.115,1.121c-0.623,0-3.24-0.374-3.738-0.498
		c-1.246-0.125-2.492,0-3.738,0.124c-1.122,0.623-1.496,1.994-3.365,2.119c-1.495,0.124-2.242,0-2.865,1.619
		c-0.499,1.371-1.247,1.496-1.994,2.492c-0.748,0.997-0.249,1.869-0.623,2.991c-0.374,1.12,1.745,1.992,1.246,2.865
		c-0.374,0.498-1.495-0.25-1.495,0.498c-0.125,0.872-0.499,1.744-0.623,2.617c-0.125,1.869,0.125,3.738,0.125,5.607
		c0,1.62,2.118,2.118,2.118,4.111c0,1.869-0.374,3.738-0.748,5.607C253.972,361.04,254.221,362.287,253.598,363.034L253.598,363.034
		z"/>
	<text transform="matrix(1 0 0 1 363.8633 358.4023)" fill="#55C2B4" font-family="'ArialMT'" font-size="14.9533">.</text>
	<text transform="matrix(1 0 0 1 301.5576 358.4023)" fill="#FFFFFF" font-family="'Arial-BoldMT'" font-size="14.9533">Guntur</text>
</a>
<a id="prakasam" xlink:href=" " >
	<path fill="#2D2F8C" d="M209.86,459.856c2.991,0.622,7.975,2.117,10.966,1.494c2.991-0.623,4.486-4.484,7.352-5.481
		c2.492-0.872,2.367,3.364,4.112,4.609c1.745,1.246,6.729,0.499,9.221,1.869c1.496,0.873,2.742,4.361,2.742,6.106l0,0h10.093
		c1.62-0.499,3.738,0,5.358-0.249c5.732-0.997,6.23-3.489,11.09,0.124l8.101,5.98c5.482,4.112,8.349-3.114,14.205-1.495
		c2.118,0.623,7.103,7.229,7.726-0.125c0.623-1.12-0.373-3.488,1.745-2.615c1.246,0.498,2.932,1.055,3.43,2.8
		c0.872,2.741-0.618,5.133,1.5,7.875c5.233,6.978,5.537-5.067,8.652-6.438c1.869-0.748,4.237,2.492,5.857,3.24
		c1.869,0.996,6.23,1.744,8.349,1.993l0,0c-0.125-0.872-0.125-1.744,0-2.616c0-2.243-0.499-4.485,0-6.729
		c0.498-2.367,1.495-5.856,3.115-7.852c0.872-1.62-0.249-5.107-0.125-6.978c0.125-2.617,1.62-3.863,2.368-6.23
		c0.498-1.122,0.249-2.368,1.121-3.613l3.364-4.486c0.997-1.37,2.617-3.862,3.988-4.734c0-0.873,0.747-2.492,0.872-3.614
		c0-0.622,0.374-1.992,0.872-2.491c1.121-1.246,1.246-1.37,1.371-3.115c0.249-1.62,0.124-2.866,0.747-4.486
		c1.246-2.492,1.869-5.107,3.738-7.477c1.994-2.492,3.988-4.485,6.355-6.604c4.236-3.239,8.225-5.856,12.959-7.727l0,0l-2.492-6.979
		c-0.996-2.741-6.479,0.373-6.854-2.367c-0.124-1.246-0.124-4.236,0.623-5.358c1.122-1.619,4.611-1.993,3.365-4.61
		c-2.119-4.36-5.732-1.371-9.097-3.114c-2.368-1.246-2.368-0.623-4.735,0.498c-2.866,1.37-3.738,0.622-6.355,0
		c-2.367-0.872-3.364-1.37-5.731-0.373c-1.62,0.623-4.486,1.618-5.981,0.249c-4.112-3.863,0.872-5.856-6.106-7.603
		c-2.492-0.623-5.482-0.498-7.726-1.993c-2.741-1.994-3.513,5.114-2.766,6.609c0.978,4.132,4.002,6.889,4.75,11.25
		c0.997,5.233-10.582,3.822-13.199,2.202l-0.374,0.125c-5.358-0.623-1.121,10.218-4.735,9.097c-3.239-0.997-4.859-6.105-7.975-7.477
		c-2.991-1.246-8.972,0.747-9.097-3.489c0-1.246-0.498-3.863-0.374-4.859c0.374-1.62,2.866-1.62,2.991-3.488
		c0.124-1.496-1.122-3.863-1.869-5.234c-1.62-3.613-3.365-7.85-1.869-11.713c2.242-5.856-0.374-5.358-3.863-8.972
		c-1.495-1.62-4.112,3.363-5.358,4.11c-1.121,0.748-2.617,1.62-3.364,2.742c-3.24,4.859-7.353,2.741-12.087,3.115
		c-1.745,0.124-3.988,2.367-5.732,1.495l-1.122-1.869l0,0c-0.125,0.125-0.25,0.249-0.499,0.374c-1.246,0.747-3.489,1.62-5.109,1.62
		c-1.62,0-1.745-1.496-2.991-1.994c-0.872-0.374-1.62,0.623-2.492,0.623c-3.863,0-6.604-3.614-9.844,0.623
		c-0.873,1.121-1.62,0.872-2.742,1.121c-2.118,0.498-6.105,1.495-4.984,4.36c0.499,1.122,2.368,4.735,0.873,5.732l0,0l-1.559,8.629
		c-0.997,3.364-2.429,4.455-5.294,6.573c-4.237,3.239-5.514,7.442-5.456,12.302c0.031,2.59-0.375,4.375,1.094,6.391
		c-0.748,1.37-1.62,2.99-1.62,4.485C212.5,416.5,212,417.5,212.75,419.75c-0.374,2.617,0.627,4.883,1.25,7.375
		c-1.745,3.738-0.402,8.433-2.146,12.296c-2.118,4.485-4.475,12.97-3.479,17.954L209.86,459.856L209.86,459.856z"/>
	<text transform="matrix(1 0 0 1 254.1416 429.4639)" fill="#FFFFFF" font-family="'Arial-BoldMT'" font-size="14.9533">Prakasam</text>
</a>
<a id="westgodavari" xlink:href=" " >
	<path fill="#004F7F" d="M496.589,329.019c-0.125,0.872-0.374,1.869-0.499,2.617c-0.623,2.616,0,4.984-1.246,7.602
		c-0.996,1.994-3.986-0.498-5.356,2.991c-0.499,1.245-2.119,4.609-3.863,3.737c-1.121-0.623-1.869-2.368-3.364-1.745
		c-2.741,1.122,0,3.988,0.124,5.732c0.125,2.243,0.873,3.863,0.748,6.229c0,0.125,0,0.125,0,0.125c0,0.498,0.125,0.872,0.125,1.37
		c-0.623,0.374-1.246,0.623-1.745,0.25c-0.747-0.623-0.374-2.119-0.997-2.617c-0.872-0.871-3.363-0.871-4.484-0.996
		c-1.246-0.124-4.86-0.997-5.856-0.623c-0.997-0.374-2.119-0.623-3.24-0.872c0-3.738-6.979-9.472-9.845-10.966
		c-4.112-2.99-0.872-6.604-3.489-9.845c-3.737-4.61-5.481-3.614-3.487-10.468c0.747-2.492-2.991-2.616-4.112-1.121l-5.607,7.229
		c-2.865,3.612-7.602,4.609-11.091,7.975c-0.249,0-0.373-0.125-0.498-0.125c-0.872-1.246-2.367-2.367-3.114-3.738
		c-2.118-1.869-4.237-0.249-6.355,0.374c-1.246,0.374-1.62-4.235-2.367-5.232c-0.623-0.872-1.745-2.617,0-2.99
		c1.744-0.374,3.738,0,2.866-2.617c-0.748-2.118-2.368-4.61-1.371-6.854c0.374-0.872,1.869-2.118,1.869-2.991
		c0-1.246-1.495-2.367-1.121-3.613c0.373-4.61-1.246-5.109-4.237-7.976c-1.121-1.121-4.235-7.227-2.989-8.598
		c1.12-1.121,4.609-0.748,3.737-2.866c-0.748-1.869-3.613-1.993-5.108-3.364l-4.735-1.121c0-0.499-0.623-0.873-0.623-1.371
		c0.125-0.748,0.872-0.997,0.872-1.869c0-0.997-0.996-1.246-0.623-2.367c0.499-0.374,0.623-1.246,0.997-1.62
		c0.249-0.249,0.997,0.249,1.371,0.249c5.109,0,0.997-4.984,1.744-7.353c2.119,0,2.368,0,3.738,1.246
		c1.121,1.122,5.731,1.87,7.104,1.122c0.872-0.499,1.121-2.741,1.619-2.741c1.247-0.125,1.87,1.121,3.489,0.373
		c1.495-0.249,2.865-0.747,4.485-0.747c1.495,0,1.744,0,2.866-0.872c1.993-1.496,0.997-1.246,0.249-2.991
		c-0.374-0.747,0.374-3.863,0.748-4.61c1.121-1.62,1.246-0.748,2.865-0.748h3.364c0.747,0,1.37,0.374,2.242,0.374
		c0.499,0,2.866-1.869,2.742-2.243c-0.25-0.872-0.499-1.744-0.623-2.617l1.246-0.249c0.623-0.873,1.744-2.492,1.246-2.617
		c-0.748-0.374-0.499-0.25-2.492-1.246c-1.994-0.997-5.98-4.735-5.98-4.735s-2.866-0.499-3.24,0.374
		c-0.374,0.873-3.364-0.748-3.115-1.994c0.249-1.246,0.249-2.617-0.498-2.991c-0.623-0.374-4.609,0.25-4.237,0.997
		c0.374,0.748-1.743,1.869-2.615,1.371c-3.738-1.745-8.475-5.483-8.475-6.106c0-0.623-3.114-3.987-3.114-3.987
		s-2.368-2.492-4.61-1.62c-2.243,0.748-3.116-1.62-6.355-5.607c0,0-0.997-1.371,4.984-0.997c0,0,2.617,0.623,3.863,0.374
		s4.11-1.745,4.11-1.745s0.125-0.748,1.246-0.374c1.246,0.374,1.994,3.115,1.994,3.115s-0.498,2.866,0.249,2.866
		c0.623,0,3.738-1.62,3.738-1.62s3.988-0.997,4.361-0.623c0.373,0.499,4.983,4.237,4.983,4.237s4.112,1.62,4.361,1.495
		c0.25-0.125,2.617,0.249,2.866-0.374c0.249-0.623,2.74,0,3.488,2.243c0.623,2.119,2.243,6.355,2.741,6.23
		c0.499-0.125,4.735-1.495,4.735-1.495s0.374-0.623,2.243,0.997c1.868,1.62,3.488,4.486,4.983,3.738
		c1.371-0.748,5.109-0.498,6.105,0.499c0.374-0.125,0.748-0.249,1.122-0.249c4.485,0.125,4.36,6.854,7.103,6.23
		c2.741-0.499,1.371,1.122,0.997,2.368c-0.249,1.371,0.748,1.869,0.623,3.988c-0.249,2.865,6.23,0.872,4.486,5.607
		c-0.25,0.623-0.623,1.246-0.499,1.993c0.249,1.246,0.249,1.62-0.124,2.866c-0.499,1.495,0,2.118,0,3.364
		c0,0.25,0.373,0.374,0.373,0.499c0,0.374,0.748,1.121,0.997,1.495c0.748,1.121,0.748,2.492,1.619,3.489
		c0.498,0.623,1.371,0.747,1.869,1.37c0.374,0.499,0.249,1.122,0.498,1.745c0.374,0.872,1.122,1.37,1.371,2.243
		c0.249,0.747,0.748,1.869,0.623,2.616c-0.125,0.748,0.997,2.243,1.371,2.866c1.246,1.745,0,3.863,1.37,6.106
		c-0.623,0.872-1.246,1.619-1.869,2.492c0,0.124-0.124,0.249-0.124,0.373c-0.125,1.745-0.623,2.492,0.373,4.237
		c1.496,2.492,0.623,4.112,0.499,6.729c-0.249,4.237,3.115,3.863,3.987,7.229c0.872,2.865,0.125,4.859,2.989,6.354
		c0.873,0.498,1.745,3.115,2.742,3.987C496.464,326.152,496.713,327.648,496.589,329.019z"/>
	<text transform="matrix(0.907 0 0 1 423.7539 321.6914)" fill="#004F7F" font-family="'ArialMT'" font-size="14.9533">.</text>
	<text transform="matrix(0.907 0 0 1 423.7881 295.1172)" fill="#FFFFFF" font-family="'Arial-BoldMT'" font-size="14.9533">West </text>
	<text transform="matrix(0.907 0 0 1 423.7881 313.0615)" fill="#FFFFFF" font-family="'Arial-BoldMT'" font-size="14.9533">Godavari</text>
</a>
<a id="krishana" xlink:href=" " >
	<path fill="#4BB749" d="M405.748,283.909l4.734,1.122c1.495,1.371,4.36,1.495,5.108,3.364c0.872,2.118-2.617,1.62-3.613,2.866
		c-1.245,1.371,1.869,7.477,2.99,8.598c2.99,2.866,4.61,3.365,4.237,7.851c-0.499,1.246,1.121,2.368,1.121,3.614
		c0,0.872-1.495,1.993-1.869,2.99c-0.997,2.242,0.748,4.734,1.371,6.854c0.872,2.617-1.122,2.368-2.991,2.617
		c-1.744,0.374-0.748,2.118-0.125,2.99c0.748,0.997,1.246,5.606,2.368,5.233c2.118-0.499,4.236-2.243,6.354-0.374
		c0.747,1.37,2.242,2.492,3.115,3.738c0.249,0,0.249,0.124,0.498,0.124c3.364-3.488,8.226-4.361,11.091-7.975l5.731-7.354
		c1.122-1.37,4.86-1.37,4.112,1.122c-1.994,6.854-0.249,5.856,3.488,10.467c2.616,3.24-0.623,6.979,3.489,9.846
		c2.99,1.494,9.844,7.228,9.844,10.966l0,0c-2.491-0.623-5.108-0.873-7.477-0.374l-10.717,2.741
		c-8.101,2.491-10.219,6.105-12.71,13.831c-0.374,1.744,0.125,3.987-0.872,5.482l-2.617,4.611c-0.498,0.872-0.872,2.367-1.62,3.114
		c-1.121,1.495-1.619,2.865-1.246,4.734c0.25,1.745-0.124,1.994-1.619,2.742c-2.617,1.495-4.361,4.361-6.23,6.604
		c-3.239,3.239-7.228,5.856-4.485,10.967c0.872,1.743,0,1.618-0.997,2.491c-1.246,0.872-3.489,2.741-4.858,2.99
		c-1.246,0.249-3.738,0.872-4.86,0.748c-1.744-0.125-3.489,0.249-5.108,0l0,0c0-0.499,0-0.873,0-1.371c0-2.99,1.37-5.98,2.492-8.599
		c0.249-0.623,1.495-1.37,1.869-2.118c0.498-0.997,0.373-2.492,1.121-3.239c0.872-0.997,0.498-2.368,0.872-3.489
		c0.249-0.871,0.623-1.37,0.623-2.367c0-0.872-0.249-2.616-0.249-3.488c0-1.994-1.121-3.116-1.744-4.985
		c-0.499-1.744,0-3.612,0.124-5.356c0-1.122-0.124-2.243-0.623-3.115c-1.37-2.368-2.866-3.614-3.738-6.23
		c-0.747-2.242-1.121-4.61-1.62-6.854c-0.124-0.872-0.373-1.246-0.872-1.495c-2.117-1.121-4.235-2.741-5.606-4.735
		c-1.121-1.743-3.115-5.606-3.613-7.601c-0.623-2.119-2.368-3.738-3.489-5.483c-1.495-2.366-3.614-2.615-5.483-4.235
		c-1.121-0.997-1.993-2.243-3.239-3.115c-1.371-0.872-2.866-1.62-4.237-2.368c-2.118-1.121-3.862-0.872-5.981-1.37
		c-3.613-0.872-7.601-4.485-11.713-3.114c-0.125,0-0.249,0-0.374,0c-1.121,0-2.243,0.622-3.364,0.497
		c-1.495-0.124-2.991-0.249-4.486-0.374c-3.239-0.248-4.485-1.369-6.604-3.737c-1.121-1.121-3.115-1.121-3.488-2.99
		c-0.125-0.872,0.623-1.246,0.498-1.994c-0.125-0.747-0.498-1.495-0.374-2.243c0.623-2.615-0.997-3.238-0.997-5.606
		c0-1.744-0.249-4.734-2.616-5.108c-0.748-0.125-2.119,0.249-2.742,0.872l0,0l-1.495-1.246c0-0.125-0.249-0.249-0.249-0.374
		c-0.249-0.124-0.125-1.37-0.249-1.62c-0.125-0.623-1.495-0.249-2.118-0.249c-0.374,0-1.246-0.374-1.62-0.623
		c-0.872-0.498,0.249-2.243,0.374-3.115c0.124-0.623,0.124-1.495,0.498-1.994c0.623-0.747,1.121-0.124,1.744-0.498
		c0.997-0.748,1.745-3.115,1.745-4.236c0-0.873,2.616-0.748,3.364-0.748c0.249-0.748-0.249-1.371,0.748-1.62
		c0.872-0.124,1.744,0.249,2.616,0c0.748-0.249,0.997-0.872,1.62-1.246l2.367-1.495c1.371-0.872,1.371-3.364,2.991-1.744
		c0.748,0.747,3.364,3.364,4.486,3.364h0.249c0.124-0.125,1.37,0,1.744-0.249c0.249-0.125,1.246-0.623,1.495-0.25
		c0.25,0.374,0.25,1.371,0.374,1.869c0.125,0.997,0.748,0.499,1.122,1.246c-0.25,0.374-0.25,1.371,0,1.62
		c0.872,0.748,0.747,0.499,0.623,1.62c0.249,0.997-0.125,1.869,0.373,2.99c-0.373,0.25,0.499,2.866,0.873,3.115
		c0.249,0.125,1.121-0.249,1.246,0.125c0.623,1.121-0.125,1.121,1.246,1.869c0.498,0.249,1.869,0.374,1.869,0.997
		s-0.25,0.997,0,1.495c0.872,1.371,0.747,0.374,1.869-0.249c2.866-1.495-2.492-1.62-1.122-2.866c0.25-0.249,1.994,0.623,2.492,0.748
		c0.499,0.124,1.745,1.495,2.243,1.869c0.872,0.623,2.741,0.997,2.617,1.993c-0.249,1.371,0.124,1.62,1.37,1.869
		c0.873,0.125,1.371,1.122,2.368,1.496c1.62,0.498,4.112,0.872,5.856,0.872c1.869,0,0.374-1.371,1.62-1.745
		c0.249,0,2.616-0.623,1.62-0.872c-1.496-0.498-1.371-2.367-2.866-2.492c-1.371-0.124-1.122-2.616-0.748-3.738
		c0.623-0.498,0.374-1.121,1.246-1.62c0.997-0.498,1.994-0.498,0.997-1.619c-0.997-1.246,0.623-1.122,0.623-2.492
		c-1.62-0.499-2.866-2.243-4.61-2.991c-0.374-0.125-0.872-0.997-1.371-0.498c-0.498,0.623-0.498,1.37-1.495,0.623
		c-0.872-0.623-1.744-0.499-2.118,0.623c-0.499,1.495,0,1.62-1.62,0.623c-1.495-0.873-3.364-2.119-4.984-2.492
		c-1.371-0.374-4.61,0-5.233-1.371c0.373-0.374,1.121-0.997,1.37-1.371c0.374-0.498,0-0.996,0.872-1.37
		c0.374-0.125,2.866-1.246,1.745-1.869c-1.246-0.623-0.872-2.118-1.62-3.24c-0.623-0.872,1.371-2.866,2.243-2.866
		c0.249,0.748,0,1.246,0.623,1.994c0.872,0.997,0.997,2.243,1.744,3.115c0.25,0.249,1.994,0.872,2.243,0.748
		c0.623-0.499,0-1.122,0.997-1.745c0.374-0.249,1.371,0,1.62-0.498c0.373-0.748,1.246-1.122,1.495-1.994s-0.748-1.62-0.249-2.616
		c1.246-1.122,0.747-1.246,2.492-1.62c0.872-0.249,1.993-0.748,2.741-1.122c1.869-0.996,0.997-2.616,3.24-0.996
		c0.996,0.623,2.367,0.623,3.364,1.121c0.374,0.249,2.99,2.866,2.866,2.99c-0.748,1.371-1.371,1.122-0.997,2.991
		c0.623,0,2.492-0.125,3.115-0.374c1.62-0.748,0.498-1.371,2.866-0.748c1.246,0.374,1.869,0.25,3.239,0.997
		c0.873,0.499,1.869,0.249,2.866,0.499c0.872,0.249,1.246,0.623,2.243,0.623c0.748,0,1.495,0.124,2.118,0.498
		c0.997,0.872,0.872,1.62,2.118,0.374C404.252,285.654,405.623,284.533,405.748,283.909L405.748,283.909z"/>
	<text transform="matrix(1 0 0 1 420.2178 371.2441)" fill="#4BB749" font-family="'ArialMT'" font-size="14.9533">.</text>
	<text transform="matrix(1 0 0 1 391.542 346.5527)" fill="#FFFFFF" font-family="'Arial-BoldMT'" font-size="14.9533">Krishna</text>
	
		<text transform="matrix(1 0 0 1 421.4639 389.9355)" display="none" fill="#4BB749" enable-background="new    " font-family="'ArialMT'" font-size="14.9533">Machilipatnam</text>
</a>
<a id="vishakhapatnam" xlink:href=" " >
	<path fill="#7FBF42" d="M606.62,156.932l7.228,2.492c2.367,0.623,6.354,2.991,8.225,4.61c2.243,2.119,3.862,1.869,3.24,5.483
		c-0.375,1.994,0.746,2.617-2.118,2.617c-1.869,0-7.229,0-8.6,1.122c-1.495,1.122-0.997,2.617-0.747,4.112
		c0.249,1.495-0.125,3.863-0.623,5.358c0.249,3.115-7.976,1.994-9.969,4.361c-0.748,0.872-0.125,5.233,0,6.479
		c0.249,2.492,5.607,7.352,7.104,10.218c1.62,3.24,4.36,1.495,7.477,0.249c7.478-2.866,0.374-8.1,7.353-11.838
		c2.367-1.246,3.987-5.607,6.229-6.106c2.119-0.499,3.365,3.365,4.735,4.611c2.368,1.495,4.111,2.118,6.979,2.118
		c2.741,0.125,5.981,1.122,8.599,1.371l0,0c-0.498,0.748-0.373,2.243-0.872,3.115c-0.747,1.496-2.367,2.243-3.613,3.115
		l-4.112,2.617c-1.246,0.748-0.748,2.368-1.495,3.364c-1.993,2.492-4.111,1.246-2.99,4.984c0.499,1.745-1.62,1.994-2.118,3.24
		c-0.748,2.243-1.371,1.994-3.364,3.116c-1.62,0.997-0.499,2.99-1.869,3.987c-0.873,0.623-1.994,0.748-2.742,1.371
		c-1.495,1.246-0.747,2.492-1.619,3.489c-0.622,0.623-1.495,0.748-1.993,1.246c-0.872,0.872-1.994,1.246-2.741,1.994
		c-0.623,0.623-0.249,1.869-0.623,2.617c-0.997,2.119-3.987,1.745-5.233,3.24s-1.745,1.62-3.613,1.994
		c-1.869,0.374-3.364,0.873-4.859,2.119c-1.496,0.498-3.863,1.121-5.234,1.869c-1.619,0.997-1.619,3.115-2.99,3.987
		c-3.239,1.869-7.602,2.742-10.592,4.86l-17.195,8.349l-10.344,6.105c-0.748,0.499-2.99,1.745-4.983,2.991l0,0
		c-0.499-0.873-0.872-4.735-0.872-5.857c0-1.993-0.748-3.115-1.994-4.734c1.495-3.863,1.994-5.608,6.229-6.355
		c3.987-0.748,0.249-6.979,1.121-9.221c-0.623-1.122-3.737-0.499-5.107-0.748c-1.745-0.374-2.991-1.745-4.112-1.994
		c-3.489-0.748-3.738,8.598-7.851,1.994c-1.121-1.745-4.61-2.866-4.361-4.985c0.125-0.623,1.246-2.99,0.374-3.24
		c-1.495-0.499-3.24,0-4.86-0.748l-3.986-1.869c-5.856-4.486-9.222-4.112-15.825-1.122c-9.346,4.237-2.492-7.352-2.492-9.47
		c-0.499-0.499-8.349-0.748-9.471-0.623c-4.984,0.748-3.364,1.122-4.859-2.991c2.118-4.611,8.1-4.486,10.343-9.346
		c1.619-3.614,1.619-8.474-0.25-11.963l-0.747-2.243l0,0c1.246-0.873,1.37-0.748,1.744-2.243c0.249-0.748,0.623-1.62,1.62-1.745
		c0.997,0,1.994,1.495,2.866,0.623c0.124-0.125,0.249-0.499,0.374-0.748l3.115,1.122c0.498-0.125,1.743-0.374,2.117-0.125
		c0.498,0.374,0.374,0.997,0.997,1.246c1.619,0.374,3.239-0.997,3.364,1.246c0.124,1.371,4.485,3.24,5.731,3.739
		c0.997,0.374,3.115,1.744,3.239,0.125c0.125-1.371,0.374-1.994-0.249-3.24c-1.121-2.243,0.872-3.24,2.367-4.112
		c1.62-0.997,0.748,2.243,2.368,1.869c0-0.374,0-1.246,0.623-1.246c0.872,0.249,1.37,0.872,1.62-0.25
		c0.124-0.623,0.498-1.246,0-1.744c-0.873-0.997-1.745-7.103,0.623-4.86c0.373,0.374,1.121,0.374,1.495-0.125
		c0.498-0.623-0.125-1.745-0.499-2.368c-0.623-0.748-1.246-0.374-2.118-0.623c-1.121-0.374-2.741-1.496-2.243-2.866
		c0.374-0.997,1.994-1.122,1.745-2.368c-0.374-1.745-0.623-0.499,0.374-1.869c0.623-0.872-0.374-2.741,0.872-3.24
		c0.498-0.25,1.37,0,1.993-0.25c0.873-0.249,1.246-0.997,1.994-1.62s0.748-2.119,0-2.742c-1.121-0.872-3.24,1.496-4.236,0.623
		c-0.873-0.748-0.25-0.623,0.373-0.872c1.246-0.499,0.997-1.869,2.243-2.741c0.623-0.374,1.62-1.122,1.62-1.869
		c0-0.499-0.25-0.748-0.498-1.122c-0.499-0.748-0.125-1.246-0.499-1.994c-0.498-0.997-1.62-0.748-0.747-2.118l1.494-1.745
		c0.623-0.623,1.37-0.997,1.869-1.745c0.623-0.872,1.495-1.495,2.243-2.118c0.747-0.623,0.498-1.62,0.996-2.368
		c1.246-1.371,2.492-2.741,3.739-4.112c0.373-0.374,1.246-0.748,1.37,0c0.249,0.997-0.872,1.745,0.374,2.742
		c0.623,0.499,1.62-0.25,2.367,0.249c1.121,0.748,0.373,1.994,0.872,3.115c0.498,1.246-0.997,1.246,0.373,2.991l1.745,0.25
		c1.121,0.748-0.997,1.371-0.499,2.243c0.374,0.623-0.872,1.62,0.25,2.119c1.246,0.623,3.239,0.997,4.236,1.869
		c0.498,0.498,0.125,1.122,0.748,1.495c0.373,0.25,1.495,0.997,0.747,1.496c-0.623,1.121,0,1.869-1.121,2.367
		c-0.374,0.125-2.617,1.246-1.371,1.745c1.994,0.873,0,2.492,0.499,3.614c0.498,0.997,4.361,4.237,5.108,3.24
		c0.872-1.122,0.499-3.364,1.494-4.486c0.623-0.748,3.863-0.997,3.489-1.994c0.623-0.374,0.997-0.499,1.745-0.374
		c0.872,0.125,1.37-0.623,1.993-0.872c1.869-0.623,4.112-2.492,3.489-4.611c-0.374-0.997,0.623-1.745,0.374-2.991
		c0-0.249-0.997-2.367-0.498-2.492c0.373-1.495,4.733-0.997,4.983,0.25c0.498,1.994,3.364,1.122,4.984,1.62
		c0.373,1.496-0.873,3.489,0.623,4.611c0.623,0.499,1.619-0.25,2.492,0.249c1.246,0.748,0.747,0.748,2.367,0.499
		c0.748-0.249,1.494-0.249,2.242-0.748c0.872-0.623,2.367-1.869,3.489-2.119c0.872-0.125,1.744,1.745,2.367,1.371
		c0.374,0.249,1.246-0.873,1.495-1.122C605.997,157.181,606.495,157.181,606.62,156.932L606.62,156.932z"/>
	<text transform="matrix(1 0 0 1 611.5654 228.2383)" font-family="'ArialMT'" font-size="14.9533">.</text>
	<text transform="matrix(1 0 0 1 521.9336 217.043)" fill="#FFFFFF" font-family="'Arial-BoldMT'" font-size="13.524">Vishakhapatnam</text>
</a>
<a id="srikakulam" xlink:href=" " >
	<path fill="#91A03A" d="M670.791,105.838l1.62,3.24c-0.249,2.243,0.748,4.486-0.872,6.479c-0.997,1.246-3.115,0.748-4.61,1.994
		c-2.491,2.119-5.856,1.496-8.599,3.115c-3.364,1.869-4.112,3.863-5.607,7.352c-1.121,3.988-5.731,7.602-2.242,12.212
		c1.245,1.62,3.862,3.115,3.363,5.483c-0.498,2.492-1.495,3.988-0.747,6.604c0,0.374,0.249,1.122,0.374,1.495
		c-0.748,1.745-3.862,1.122-1.744,3.738c2.242,2.866,6.105,6.355,7.602,9.595c1.495,3.364,1.37,7.103,2.866,10.592l1.744,5.857l0,0
		c1.495-0.997,3.239-1.869,4.859-2.742c3.239-1.62,7.353-2.617,10.218-4.735c0.125-0.125,0.125-0.125,0.25-0.125
		c0.747-0.125,2.616-1.62,3.488-2.118l6.355-2.742l7.601-4.112c2.368-1.496,6.479-2.866,6.604-5.857
		c0.125-2.991,2.242-5.358,4.36-7.228l6.604-6.23l3.364-2.866c1.122-0.873,2.865-2.866,4.111-3.489
		c1.246-0.997,2.243-1.122,2.368-2.866c0.124-2.741,1.619-4.112,3.488-5.981c0.748-0.748,1.62-1.496,2.492-1.994
		c1.122-0.623,0.997-1.869,1.619-2.741c0.872-0.623,1.869-2.617,2.617-3.614c1.37-1.869,3.115-3.614,4.984-4.984
		c2.367-1.745,2.243-2.742,3.364-5.358c0.748-0.499,1.62-2.243,1.744-3.115c0.872-4.86,6.604-6.854,9.097-10.716
		c0.25-0.748,1.371-1.869,1.869-2.617l6.729-10.218l1.246-1.994l0,0c-0.872,0.125-2.617,0.125-3.364,0.499
		c-0.748,0.374-1.245,1.246-1.993,1.496c-0.872,0.249-2.616-2.243-2.616-2.991c0-0.748,0.124-1.62-0.125-2.119
		c-0.872-1.371-2.991-1.495-3.364,0.25c-0.125,0.623,0.124,2.368,0.249,2.866c0.124,0.499,0.747,0.997-0.125,1.371
		c-0.249,0.125-2.242,0.249-2.492,0.125c-0.623-0.249-2.367-1.994-2.741-0.249c-0.249,1.121,0.748,0.997,0.872,1.495
		c0.25,0-0.124,1.122,0.748,1.371c0.747,0.25,0.997,0.125,1.495-0.498c0.748-0.748,2.118,1.121,1.994,1.744
		c-0.125,0.623-1.496,1.496-2.119,1.62c-0.498,0.125-0.996-0.125-1.619,0c-0.748,0.249-0.997,0.748-1.745,1.122
		c-0.498,0.499-0.747,2.368-1.869,1.745c-0.622-0.374-0.997-1.869-0.997-2.492s0.748-1.62,0.748-1.869
		c-1.868,0-1.121,0.374-2.367,1.121c-1.121,0.748-2.492,0.374-3.738,1.122c-1.619,0.997-3.488,4.984-4.984,5.109
		c-1.246,0.125-2.74-1.744-3.363-2.617c-0.623-0.872-0.872,0.623-0.747,0.997c0.498,1.122,3.238,3.614,0.995,4.486
		c-0.497,0.748-1.12,0.997-0.871,1.994c0.125,0.499,0.871,0.873,0.871,1.496c0.25,2.118-1.868,1.371-1.868,1.869
		c-0.124,0.748,1.122,1.246-0.249,1.62c-0.374,0.125-1.993-0.623-2.492-0.872c-0.124,0-0.498-0.249-0.498-0.125
		c-0.25,0,0,0.374,0.124,0.499c0.125,0.125,0.374,0.249,0.499,0.374c0.373,0.125,0.747,0.25,0.872,0.623
		c0.623,1.246-1.495,0.748-1.869,0.374c-0.748-0.499-1.371,0-0.499,0.374c0.873,0.249,1.496,0.872,0.499,1.495
		c-1.62,1.246-1.371-0.125-2.741-0.499c-0.748-0.249-0.125,1.371-0.125,1.745c0.249,0.623,0.748,1.246,0.748,1.869
		c0.124,1.122-0.499,1.122-0.873,1.869c-0.124,0.374,0,0.872-0.373,1.246c-0.374,0.374-1.62,0.748-2.119,0.997
		c-0.872,0.374-1.37-0.873-2.242-0.623c-1.37,0.498-1.993,2.118-3.862,1.371c-1.121-0.499-1.121-1.496-2.492-1.122
		s-2.118,0.997-3.614,0.997c-3.238,0.125-2.118,2.492-5.481,0.125c-0.872-0.623-3.115,2.243-3.863,2.741
		c-0.623,0.374-1.619-2.866-2.118-3.489c-1.495-1.994-4.236-1.994-6.354-1.62l-2.617,1.122c-0.125-0.125-0.498-0.25-1.121-0.125
		c-1.62,0.249-0.748-0.25-1.745-0.997c-0.498-0.374-0.997-0.249-1.495-0.499c-0.748-0.374-1.745-2.492-2.368-3.24
		c-0.995-1.371-2.74-1.62-2.989-3.24c-0.249-1.122,0.124-1.869,0.374-2.991c0.249-1.496-0.997-1.122-1.869-1.122
		c-0.748,0-0.374-1.371-0.499-1.869c-0.124-0.25-0.374-0.499-0.374-0.873s0.125-0.872,0.125-1.246
		c0.125-1.246-0.997-2.243-1.246-3.24c-0.125-0.872-1.371-1.122-1.246-1.994l-2.118,0.623c-0.623,0.623-3.24,1.745-2.866,2.741
		c0.498,0.997,1.246,1.994,2.243,2.492c0.997,0.499,1.121,0.748,1.37,1.869C671.165,103.969,671.539,105.589,670.791,105.838
		L670.791,105.838z"/>
	<text transform="matrix(1 0 0 1 658.1592 136.5)" fill="#FFFFFF" font-family="'Arial-BoldMT'" font-size="12.2527">Srikakulam</text>
</a>
<a id="vizianagaram" xlink:href=" " >
	<path fill="#5D250C" d="M651.729,194.065c0.873-1.122,3.24-2.492,4.361-3.24c2.119-1.246,3.863-2.492,5.732-4.112
		c0.997-0.748,1.994-1.495,3.115-2.243l0,0l-1.744-5.856c-1.496-3.489-1.371-7.352-2.866-10.592
		c-1.495-3.24-5.358-6.729-7.603-9.595c-2.117-2.617,0.997-1.994,1.745-3.738c-0.125-0.374-0.374-0.997-0.374-1.495
		c-0.623-2.617,0.249-4.112,0.747-6.604c0.499-2.368-2.118-3.863-3.364-5.483c-3.488-4.611,0.997-8.1,2.243-12.212
		c1.495-3.489,2.243-5.358,5.607-7.352c2.741-1.62,6.105-0.997,8.599-3.115c1.495-1.246,3.613-0.623,4.61-1.994
		c1.62-1.994,0.623-4.237,0.872-6.48l-1.62-3.24l0,0c-0.124,0-0.249,0-0.373,0c-0.873-0.125-2.617-1.994-3.116-2.741
		c-0.373-0.499-0.996-2.243-0.996-2.866c-0.125-0.623-0.25-1.246-0.748-1.62c-0.374-0.374-0.997-0.623-1.246-1.122
		c-0.498-0.997,0.997-1.62,1.371-2.243l0,0c-0.873-0.25-2.242,0-2.617-0.873c-0.497-1.121-0.871-1.994-1.619-2.99
		c-0.373-0.623-1.246-0.997-1.37-1.745c-0.25-0.873-0.25-1.745-0.748-2.492c-0.623-0.748-0.124-1.246-0.374-1.994
		c-0.124-0.499-0.747-0.748-1.121-0.997c-0.748-0.748-0.249-1.371-0.374-2.243c-1.246-0.249-1.37,1.62-2.243,2.119
		c-0.872,1.246-1.121,1.495-0.498,2.866c0.498,1.122-0.125,1.371-1.122,1.994c-0.872,0.498-0.623,0.872-0.747,1.744
		c-0.125,0.623-0.623,2.119-1.495,1.496c-0.997-0.748-0.125-2.368-1.245-2.617c-0.623-0.125-0.374,0.748-0.25,1.246
		c0.374,1.495-1.495,3.364-1.246,4.236c0.873,3.489-4.61-0.125-3.987-0.623c0.498-0.374,0.997,0.25,1.62-0.125
		c0.374-0.249,0.124-1.122,0-1.495c-0.499-1.994-2.243-0.748-2.866-2.492c-0.374-0.873-0.748-0.374-1.62-0.374l0,0l0,0l0,0
		c-0.249,0.125,0.125,1.371,0.249,1.496c0.374,0.498,0,1.246,0.25,1.744c0.498,0.997,1.495,1.869,0.872,3.24
		c0,1.62-1.371,0.374-2.118,0.623c-0.25,0.872,0.249,1.744,0.124,2.492c-0.124,0.748-0.997,1.62,0.499,1.994l0,0
		c0.249,1.122-1.246,0.374-1.62,0.249c-0.249-0.997-3.114-2.866-3.114-3.738c0-2.118-4.237,0.748-4.86-1.869
		c-0.623-0.125-1.744,0.374-1.744,0.997c0,1.246-1.869,0.748-2.492,0.623c-0.498,0,0.374,1.495,0.374,1.62
		c0.498,0.499,1.37,1.62,1.495,2.368c0.249,1.122-1.62,1.122-0.498,2.368c0.373,0.374,0.996,0.623,1.37,0.499l0.125-1.371
		c0-0.748,0.747-0.997,0.747-1.371s-0.124-0.498,0-0.872c0.374,0,0.748,0.374,1.246,0.374l0.125,0.125
		c0,0.748,0.498,1.745,0.997,2.243c0.623,0.623,0.747,1.496-0.499,0.873c-0.374-0.125-0.997-1.122-1.246-1.122
		c-0.498,0-0.124,2.118-0.124,2.118c-0.25,0.25,0.747,0.624,0.996,0.624h1.371c0.498,1.62-1.246,1.371,0.623,2.866
		c0.623,0.499,2.492,1.122,1.744,2.243c-0.373,1.122,0,1.62-1.37,2.118c-1.371,0.374-0.997,0.374-2.243,0
		c-0.498-0.125-0.997,0.499-1.371,0.623c0,0.623,0.499,0.997,0.748,1.496c0.249,0.623-1.121,0.623-1.495,0.748
		c-1.371,0.374-2.866-0.125-4.112,0.499c-0.374,0.125-2.367,1.371-2.491,1.62c-0.748,1.62,0.747,1.496-1.745,1.869
		c-0.747,0-0.996-0.374-1.495-0.498c-0.124-0.25-0.623-0.25-0.872-0.125c-0.498,0.374-0.125,0.623-0.249,0.997
		c-0.249,0.872-0.125,1.62-1.122,2.118c-0.996,0.499-2.741-2.118-3.987-2.367c-1.37-0.25-1.869-2.243-3.114-1.496
		c-0.374,0.25-1.869,0.873-1.869,1.371c-0.124,0.873,0,1.371-0.747,2.119c-0.873,0.748-0.623,1.495-1.869,2.368
		c-1.371,0.872-0.499,1.994-1.371,3.115c-0.872,0.997-0.748,2.243-1.994,3.24c-0.623,0.499-2.118,0-2.492,0.499
		c-0.872,1.246,1.122,3.24-0.373,4.61c-1.371,1.371,0.996,1.246,1.744,0.873c0.374-0.125,0.997-1.122,1.121-1.122
		c0.125,0,0.997,0.872,0.997,0.997c-0.249,0.623-1.62,0.748-2.118,1.121c-1.121,0.748-0.125,1.62,0.249,2.492
		c1.122,2.243,2.492,0.623,4.361,0.623c1.122,0-1.37,2.866-1.495,3.489c-0.125,0.997-0.997,1.496-1.371,2.368
		c-0.872,1.869-1.993,1.62-3.239,2.866c-0.622,0.623,0.997,1.371,1.246,1.62c1.121,0.125-0.748,1.994,1.37,1.62
		c0.997-0.249,1.869-1.122,1.246,0.623c-0.249,0.623,0,1.122,0.374,1.62c0.374,0.374,0.499,0.623,0.374,0.748l0,0l7.229,2.492
		c2.366,0.623,6.354,2.991,8.224,4.61c2.243,2.119,3.863,1.869,3.24,5.483c-0.374,1.994,0.748,2.617-2.118,2.617
		c-1.869,0-7.229,0-8.6,1.121c-1.494,1.122-0.995,2.617-0.746,4.112c0.248,1.495-0.125,3.863-0.623,5.358
		c0.249,3.115-7.977,1.994-9.97,4.361c-0.748,0.872-0.125,5.233,0,6.479c0.249,2.492,5.607,7.352,7.104,10.218
		c1.62,3.24,4.361,1.495,7.477,0.249c7.478-2.866,0.374-8.1,7.353-11.838c2.368-1.246,3.987-5.607,6.23-6.106
		c2.118-0.499,3.364,3.365,4.734,4.611c2.368,1.495,4.112,2.118,6.979,2.118C645.872,192.819,649.112,193.816,651.729,194.065
		L651.729,194.065z"/>
	<text transform="matrix(0.9271 0 0 1 626.0518 179.5859)" fill="#5D250C" font-family="'ArialMT'" font-size="14.9533">.</text>
	<text transform="matrix(0.9271 0 0 1 656.3633 202.2656)" fill="#5D250C" font-family="'Arial-BoldMT'" font-size="14.9533">Vizianagaram</text>
</a>
<a id="eastgodavari" xlink:href=" " >
	<path fill="#FCAF21" d="M560.141,250.763c-4.236,0.873-4.859,2.492-6.229,6.355c1.246,1.495,1.993,2.617,1.993,4.735
		c0,0.623,0.125,1.869,0.249,2.99c0.125,1.246,0.374,2.368,0.623,2.866c-1.619,1.122-3.115,2.243-3.239,2.866l-8.225,7.976
		c-1.246,1.121-6.23,4.859-6.479,6.23l-0.125,0.249c-1.371,1.62-2.866,3.115-3.613,5.109c-0.748,1.744-0.748,3.862-1.62,5.482
		c-0.623,1.121-1.37,1.495-1.868,2.741c0,2.991,2.242,2.866,3.737,4.361c1.246,1.246,2.492,2.991,4.486,2.118
		c0.623-0.249,0.498,0,0.996,0c0.499,0,0.374-0.872,0.623-0.996c0.748-2.866,0.873-5.732-0.373-8.474
		c-0.25-0.499-1.745-2.991-1.496-3.489c0.374-0.623,0.997,0.125,1.246,0.498c0.873,1.246,1.246,2.617,1.246,4.112
		c0.125,1.122,0.623,3.987,0.125,4.984c-0.374,1.745-0.748,3.24-0.748,4.984c0,0.748,0.374,3.24,0.125,3.863
		c0,0.125,0,0.125,0,0.374c-0.498,1.246-1.121,3.114-0.872,4.484c0.124,0.873,1.121,1.371,1.246,2.368
		c0.249,1.246-2.742,4.61-3.614,5.607c-0.498,1.495-1.37,2.492-1.246,4.111c0.125,1.121,0.623,2.99,0.125,3.987
		c-1.246,2.118-5.232,1.869-6.979,3.24l-9.97,4.984l-9.221,5.232c-1.371,0.872-3.115,1.246-4.486,2.118s-2.74,1.994-4.36,2.368
		c-3.24,0.747-6.23,0.872-9.347,2.242c-1.993,0.748-4.609,2.367-6.229,3.613c-0.623,0.498-2.118,1.993-3.364,2.741
		c0-0.498-0.125-0.997-0.125-1.495c0.125-2.368-0.623-3.986-0.748-6.229c-0.124-1.745-2.865-4.735-0.124-5.732
		c1.495-0.623,2.243,1.121,3.364,1.744c1.744,0.997,3.364-2.492,3.863-3.738c1.495-3.487,4.36-0.996,5.356-2.989
		c1.371-2.617,0.623-4.984,1.246-7.603c0.25-0.872,0.374-1.744,0.499-2.616c0.124-1.371,0-2.865-1.122-3.862
		c-0.996-0.997-1.869-3.613-2.741-3.987c-2.865-1.495-2.242-3.489-2.989-6.355c-0.997-3.363-4.237-2.865-3.987-7.228
		c0.124-2.616,0.872-4.236-0.499-6.729c-0.997-1.745-0.498-2.492-0.374-4.237c0-0.124,0.125-0.249,0.125-0.373
		c0.623-0.873,1.246-1.62,1.869-2.492c-1.371-2.119-0.125-4.237-1.371-6.106c-0.373-0.623-1.495-2.118-1.37-2.866
		c0.124-0.747-0.374-1.869-0.623-2.616c-0.249-0.873-1.122-1.371-1.371-2.243c-0.249-0.623-0.124-1.246-0.498-1.745
		c-0.374-0.623-1.246-0.872-1.869-1.37c-0.871-0.997-0.871-2.368-1.619-3.489c-0.249-0.374-0.872-1.121-0.997-1.495
		c0-0.249-0.374-0.374-0.374-0.499c0-1.246-0.498-1.869,0-3.364c0.374-1.246,0.374-1.62,0.125-2.866
		c-0.125-0.623,0.249-1.37,0.498-1.993c1.744-4.611-4.61-2.742-4.485-5.607c0.124-2.119-0.873-2.617-0.623-3.988
		c0.249-1.246,1.62-2.991-1.122-2.368c-2.741,0.623-2.492-6.23-7.103-6.23c-0.623,0-1.121,0.249-1.744,0.374
		c-8.226,0.499-6.355-0.125-5.234-1.371l-2.99-0.374l-3.862-3.863l-5.607,1.994l-2.616-6.854c0,0-2.243-2.367-5.108-1.744
		c-2.866,0.623-7.354-1.745-7.354-1.745l-3.612-3.115c0,0-1.371,0.125-4.361,1.122c-2.99,1.121-3.364,1.121-3.364,1.121
		s-0.997-0.623-0.873-2.243c0.125-1.62,0-2.368-0.623-3.115c-0.623-0.748-0.872-0.997-1.869,0c-1.121,0.997-3.363,1.495-3.363,1.495
		s-1.246,0-1.869,0s-1.62-0.249-1.62-0.249l0.873-2.617c0,0-0.748-1.744-1.994-1.994c-1.246-0.374-2.367-3.738-1.121-5.607
		c1.246-1.869,1.744,0.748,3.613-1.371s4.983-2.368,4.983-2.368s0.623,1.122,1.62,2.741c0.997,1.745,1.869-0.125,1.869-0.125
		s2.866-0.499,2.367,1.246c-0.498,1.745,1.994,2.492,1.994,2.492l1.121,0.499c0,0,0.499-2.118,0.499-2.866s0.498-5.109,0.498-5.109
		s3.986-7.352,7.228-7.228c3.613,0.125,7.976,4.112,7.976,4.112l6.729,0.997l4.112-0.499c0,0,1.246,1.495,1.744,1.745
		c0.499,0.125,1.245-1.62,1.868-2.243s5.732-1.869,5.732-1.869s1.744-0.125,3.115,1.745c1.37,1.869,4.734-1.122,4.734-1.122
		s2.99-1.745,5.731,0c2.742,1.745,5.108-4.984,5.108-4.984s3.613-2.617,4.361-0.997s2.991,0.499,2.991,0.499l5.855-6.355
		l6.354-1.994c0,0,6.729-2.617,7.228-2.617c0.374,0,1.62,1.246,2.243,1.869c0.374-0.249,0.623-0.374,0.748-0.498l0.747,2.243
		c1.371,2.492,2.742,8.1,3.738,11.215c0.623,1.994-3.738-1.122-4.61,0.623c-2.243,4.859-7.228,4.859-9.346,9.346
		c1.371,4.112-0.125,3.738,4.859,2.99c1.245-0.249,8.973,0,9.471,0.623c0,2.119-6.854,13.708,2.492,9.471
		c6.604-2.991,9.969-3.489,15.826,1.122l3.986,1.869c1.62,0.748,3.364,0.249,4.859,0.748c0.748,0.249-0.374,2.492-0.374,3.24
		c-0.249,2.119,3.24,3.24,4.36,4.984c4.112,6.604,4.362-2.617,7.852-1.994c1.122,0.25,2.368,1.745,4.112,1.994
		c1.37,0.25,4.485-0.249,5.108,0.873C560.39,243.785,564.128,249.891,560.141,250.763z"/>
	<text transform="matrix(1 0 0 1 517.9912 302.5088)" fill="#FCAF21" font-family="'ArialMT'" font-size="14.9533">.</text>
	<text transform="matrix(1 0 0 1 481.292 251.8174)" fill="#FFFFFF" font-family="'Arial-BoldMT'" font-size="14.9533">East </text>
	<text transform="matrix(1 0 0 1 481.292 269.7617)" fill="#FFFFFF" font-family="'Arial-BoldMT'" font-size="14.9533">Godavari</text>
</a>
</svg>
