<?xml version="1.0" encoding="utf-8"?>
<!-- Generator: Adobe Illustrator 23.0.3, SVG Export Plug-In . SVG Version: 6.00 Build 0)  -->
<svg version="1.1" id="Layer_1" xmlns="http://www.w3.org/2000/svg" xmlns:xlink="http://www.w3.org/1999/xlink" x="0px" y="0px"
	 viewBox="0 0 1170 75" style="enable-background:new 0 0 1170 75;" xml:space="preserve">
<style type="text/css">
	.st0{display:none;}
	.st1{display:inline;}
	.st2{fill:#262262;}
	.st3{fill:#27AAE1;}
	.st4{fill:#0BAA4B;}
	.st5{fill:#0B67AF;}
</style>
<g class="st0">
	<g class="st1">
		<path class="st2" d="M227.4,33.5c-0.5,0.8-1.3,1.5-2.2,2c-1,0.5-2.2,0.8-3.6,0.8c-2.1,0-3.9-0.5-5.2-1.6c-1.4-1-2.1-2.5-2.2-4.3
			h4.9c0.1,0.7,0.3,1.3,0.8,1.7c0.4,0.4,1,0.6,1.7,0.6c0.6,0,1.1-0.2,1.4-0.5c0.3-0.3,0.5-0.8,0.5-1.3s-0.2-0.9-0.5-1.2
			c-0.3-0.3-0.7-0.6-1.2-0.8c-0.5-0.2-1.1-0.5-1.9-0.7c-1.2-0.4-2.2-0.8-2.9-1.2c-0.8-0.4-1.4-1-2-1.7c-0.5-0.8-0.8-1.7-0.8-3
			c0-1.1,0.3-2.1,0.9-2.9c0.6-0.8,1.4-1.5,2.4-1.9s2.2-0.7,3.5-0.7c2.1,0,3.8,0.5,5,1.5s1.9,2.4,2.1,4.1h-5
			c-0.1-0.6-0.3-1.1-0.7-1.5s-0.9-0.5-1.5-0.5c-0.5,0-1,0.1-1.3,0.4s-0.5,0.7-0.5,1.3c0,0.4,0.1,0.8,0.4,1.1s0.7,0.6,1.1,0.8
			c0.4,0.2,1.1,0.4,1.9,0.8c1.2,0.4,2.2,0.8,3,1.2s1.4,1,2,1.8s0.8,1.8,0.8,3C228.2,31.7,227.9,32.6,227.4,33.5z"/>
		<path class="st2" d="M244.3,17.1v3.6h-5.1V36h-4.6V20.8h-5.1v-3.6L244.3,17.1L244.3,17.1z"/>
		<path class="st2" d="M258,32.6h-7.1l-1.2,3.5h-4.8l6.9-18.8h5.3l6.9,18.8h-4.9L258,32.6z M256.8,29.1l-2.4-7l-2.4,7H256.8z"/>
		<path class="st2" d="M279.4,17.1v3.6h-5.1V36h-4.6V20.8h-5.1v-3.6L279.4,17.1L279.4,17.1z"/>
		<path class="st2" d="M285.9,20.8v4h6.4v3.5h-6.4v4.2h7.2v3.7h-11.8V17.1h11.8v3.6L285.9,20.8L285.9,20.8z"/>
		<path class="st2" d="M315.7,18.8c1.6,1.3,2.6,3,3.1,5.1H314c-0.4-0.9-0.9-1.6-1.6-2.1s-1.6-0.8-2.6-0.8c-1.3,0-2.4,0.5-3.2,1.5
			s-1.2,2.3-1.2,3.9s0.4,3,1.2,3.9c0.8,1,1.9,1.5,3.2,1.5c1,0,1.9-0.2,2.6-0.7s1.3-1.2,1.6-2h4.8c-0.5,2.1-1.5,3.9-3.1,5.1
			s-3.6,1.9-6,1.9c-1.8,0-3.5-0.4-4.8-1.2s-2.5-2-3.2-3.4s-1.1-3.1-1.1-5s0.4-3.5,1.1-5s1.8-2.6,3.2-3.4s3-1.2,4.8-1.2
			C312.1,16.9,314.1,17.6,315.7,18.8z"/>
		<path class="st2" d="M335.2,18.1c1.5,0.8,2.6,2,3.4,3.5s1.3,3.1,1.3,5s-0.4,3.5-1.3,5c-0.8,1.5-2,2.6-3.5,3.5
			c-1.5,0.8-3.1,1.2-4.8,1.2c-1.8,0-3.4-0.4-4.8-1.2c-1.5-0.8-2.6-2-3.5-3.5s-1.3-3.2-1.3-5s0.4-3.5,1.3-5c0.8-1.5,2-2.6,3.5-3.5
			c1.5-0.8,3.1-1.2,4.8-1.2C332.1,16.8,333.7,17.2,335.2,18.1z M326.8,22.5c-0.9,1-1.3,2.3-1.3,4s0.4,3,1.3,4s2.1,1.5,3.6,1.5
			s2.7-0.5,3.6-1.5s1.3-2.3,1.3-4s-0.4-3-1.3-4s-2.1-1.5-3.6-1.5C328.8,21.1,327.6,21.6,326.8,22.5z"/>
		<path class="st2" d="M346.9,17.1V28c0,1.3,0.3,2.2,0.8,2.9c0.6,0.7,1.4,1,2.5,1s1.9-0.3,2.5-1s0.8-1.6,0.8-2.9V17.1h4.6V28
			c0,1.8-0.3,3.3-1,4.5s-1.6,2.1-2.9,2.8c-1.2,0.6-2.6,0.9-4.1,0.9s-2.9-0.3-4-0.9c-1.2-0.6-2.1-1.5-2.7-2.8c-0.7-1.2-1-2.7-1-4.5
			V17.1H346.9z"/>
		<path class="st2" d="M377.9,36.1h-4.6l-7.7-11.6v11.6H361v-19h4.6l7.7,11.7V17.1h4.6V36.1z"/>
		<path class="st2" d="M395.7,18.8c1.6,1.3,2.6,3,3.1,5.1H394c-0.4-0.9-0.9-1.6-1.6-2.1s-1.6-0.8-2.6-0.8c-1.3,0-2.4,0.5-3.2,1.5
			s-1.2,2.3-1.2,3.9s0.4,3,1.2,3.9c0.8,1,1.9,1.5,3.2,1.5c1,0,1.9-0.2,2.6-0.7s1.3-1.2,1.6-2h4.8c-0.5,2.1-1.5,3.9-3.1,5.1
			s-3.6,1.9-6,1.9c-1.8,0-3.5-0.4-4.8-1.2s-2.5-2-3.2-3.4s-1.1-3.1-1.1-5s0.4-3.5,1.1-5s1.8-2.6,3.2-3.4s3-1.2,4.8-1.2
			C392.2,16.9,394.2,17.6,395.7,18.8z"/>
		<path class="st2" d="M406,17.1V36h-4.6V17.1H406z"/>
		<path class="st2" d="M413.7,32.5h6.1V36h-10.7V17.1h4.6V32.5z"/>
		<path class="st2" d="M441.1,18.1c1.5,0.8,2.6,2,3.4,3.5s1.3,3.1,1.3,5s-0.4,3.5-1.3,5c-0.8,1.5-2,2.6-3.5,3.5
			c-1.5,0.8-3.1,1.2-4.8,1.2c-1.8,0-3.4-0.4-4.8-1.2c-1.5-0.8-2.6-2-3.5-3.5s-1.3-3.2-1.3-5s0.4-3.5,1.3-5c0.8-1.5,2-2.6,3.5-3.5
			c1.5-0.8,3.1-1.2,4.8-1.2C438.1,16.8,439.7,17.2,441.1,18.1z M432.7,22.5c-0.9,1-1.3,2.3-1.3,4s0.4,3,1.3,4s2.1,1.5,3.6,1.5
			s2.7-0.5,3.6-1.5s1.3-2.3,1.3-4s-0.4-3-1.3-4s-2.1-1.5-3.6-1.5C434.8,21.1,433.6,21.6,432.7,22.5z"/>
		<path class="st2" d="M460.8,17.1v3.6H453v4.2h6v3.5h-6v7.7h-4.6v-19H460.8z"/>
		<path class="st2" d="M473,20.8v4h6.4v3.5H473v4.2h7.2v3.7h-11.8V17.1h11.8v3.6L473,20.8L473,20.8z"/>
		<path class="st2" d="M498.7,31.5c-0.8,1.4-1.9,2.6-3.4,3.4c-1.5,0.8-3.2,1.2-5.3,1.2h-7.2v-19h7.2c2,0,3.8,0.4,5.3,1.2
			c1.5,0.8,2.6,1.9,3.4,3.3s1.2,3.1,1.2,4.9C499.9,28.4,499.5,30.1,498.7,31.5z M493.8,30.5c1-0.9,1.5-2.3,1.5-4s-0.5-3-1.5-4
			c-1-0.9-2.4-1.4-4.2-1.4h-2.2V32h2.2C491.4,32,492.8,31.5,493.8,30.5z"/>
		<path class="st2" d="M506.9,17.1V28c0,1.3,0.3,2.2,0.8,2.9c0.6,0.7,1.4,1,2.5,1s1.9-0.3,2.5-1s0.8-1.6,0.8-2.9V17.1h4.6V28
			c0,1.8-0.3,3.3-1,4.5s-1.6,2.1-2.9,2.8c-1.2,0.6-2.6,0.9-4.1,0.9s-2.9-0.3-4-0.9c-1.2-0.6-2.1-1.5-2.7-2.8c-0.7-1.2-1-2.7-1-4.5
			V17.1H506.9z"/>
		<path class="st2" d="M535.8,18.8c1.6,1.3,2.6,3,3.1,5.1H534c-0.4-0.9-0.9-1.6-1.6-2.1c-0.7-0.5-1.6-0.8-2.6-0.8
			c-1.3,0-2.4,0.5-3.2,1.5s-1.2,2.3-1.2,3.9s0.4,3,1.2,3.9c0.8,1,1.9,1.5,3.2,1.5c1,0,1.9-0.2,2.6-0.7s1.3-1.2,1.6-2h4.8
			c-0.5,2.1-1.5,3.9-3.1,5.1s-3.6,1.9-6,1.9c-1.8,0-3.5-0.4-4.8-1.2s-2.5-2-3.2-3.4s-1.1-3.1-1.1-5s0.4-3.5,1.1-5s1.8-2.6,3.2-3.4
			s3-1.2,4.8-1.2C532.2,16.9,534.2,17.6,535.8,18.8z"/>
		<path class="st2" d="M553.1,32.6H546l-1.2,3.5H540l6.9-18.8h5.3l6.9,18.8h-4.9L553.1,32.6z M552,29.1l-2.4-7l-2.4,7H552z"/>
		<path class="st2" d="M574.6,17.1v3.6h-5.1V36h-4.6V20.8h-5.1v-3.6L574.6,17.1L574.6,17.1z"/>
		<path class="st2" d="M581.1,17.1V36h-4.6V17.1H581.1z"/>
		<path class="st2" d="M598.1,18.1c1.5,0.8,2.6,2,3.4,3.5c0.8,1.5,1.3,3.1,1.3,5s-0.4,3.5-1.3,5c-0.9,1.5-2,2.6-3.5,3.5
			c-1.5,0.8-3.1,1.2-4.8,1.2s-3.4-0.4-4.8-1.2c-1.5-0.8-2.6-2-3.5-3.5s-1.3-3.2-1.3-5s0.4-3.5,1.3-5c0.8-1.5,2-2.6,3.5-3.5
			c1.5-0.8,3.1-1.2,4.8-1.2C595,16.8,596.6,17.2,598.1,18.1z M589.7,22.5c-0.9,1-1.3,2.3-1.3,4s0.4,3,1.3,4c0.9,1,2.1,1.5,3.6,1.5
			s2.7-0.5,3.6-1.5s1.3-2.3,1.3-4s-0.4-3-1.3-4c-0.9-1-2.1-1.5-3.6-1.5C591.7,21.1,590.5,21.6,589.7,22.5z"/>
		<path class="st2" d="M622.2,36.1h-4.6l-7.7-11.6v11.6h-4.6v-19h4.6l7.7,11.7V17.1h4.6V36.1z"/>
		<path class="st2" d="M637.1,32.6H630l-1.2,3.5H624l6.9-18.8h5.3l6.9,18.8h-4.9L637.1,32.6z M635.9,29.1l-2.4-7l-2.4,7H635.9z"/>
		<path class="st2" d="M649.5,32.5h6.1V36h-10.7V17.1h4.6L649.5,32.5L649.5,32.5z"/>
		<path class="st2" d="M672.8,36.1l-4.1-7.2h-1v7.2h-4.6v-19h7.8c1.5,0,2.8,0.3,3.8,0.8s1.8,1.2,2.3,2.1s0.8,1.9,0.8,3.1
			c0,1.4-0.4,2.5-1.1,3.5c-0.8,1-1.9,1.6-3.3,2l4.5,7.4L672.8,36.1L672.8,36.1z M667.6,25.8h2.8c0.9,0,1.6-0.2,2-0.6s0.6-1,0.6-1.8
			c0-0.7-0.2-1.3-0.7-1.8c-0.4-0.4-1.1-0.6-2-0.6h-2.8v4.8H667.6z"/>
		<path class="st2" d="M684.7,20.8v4h6.4v3.5h-6.4v4.2h7.2v3.7h-11.8V17.1h11.8v3.6L684.7,20.8L684.7,20.8z"/>
		<path class="st2" d="M707.3,33.5c-0.5,0.8-1.3,1.5-2.3,2s-2.2,0.8-3.6,0.8c-2.1,0-3.9-0.5-5.2-1.6c-1.4-1-2.1-2.5-2.3-4.3h4.9
			c0.1,0.7,0.3,1.3,0.8,1.7c0.4,0.4,1,0.6,1.7,0.6c0.6,0,1.1-0.2,1.4-0.5c0.3-0.3,0.5-0.8,0.5-1.3s-0.2-0.9-0.5-1.2
			c-0.3-0.3-0.7-0.6-1.2-0.8c-0.5-0.2-1.1-0.5-1.9-0.7c-1.2-0.4-2.2-0.8-2.9-1.2c-0.8-0.4-1.4-1-2-1.7c-0.5-0.8-0.8-1.7-0.8-3
			c0-1.1,0.3-2.1,0.9-2.9c0.6-0.8,1.4-1.5,2.4-1.9s2.2-0.7,3.5-0.7c2.1,0,3.8,0.5,5,1.5s1.9,2.4,2.1,4.1h-5
			c-0.1-0.6-0.3-1.1-0.7-1.5s-0.9-0.5-1.5-0.5c-0.5,0-1,0.1-1.3,0.4s-0.5,0.7-0.5,1.3c0,0.4,0.1,0.8,0.4,1.1s0.7,0.6,1.1,0.8
			c0.4,0.2,1.1,0.4,1.9,0.8c1.2,0.4,2.2,0.8,3,1.2c0.8,0.4,1.4,1,2,1.8s0.8,1.8,0.8,3C708.1,31.7,707.8,32.6,707.3,33.5z"/>
		<path class="st2" d="M715.2,20.8v4h6.4v3.5h-6.4v4.2h7.2v3.7h-11.8V17.1h11.8v3.6L715.2,20.8L715.2,20.8z"/>
		<path class="st2" d="M736.7,32.6h-7.1l-1.2,3.5h-4.8l6.9-18.8h5.3l6.9,18.8h-4.9L736.7,32.6z M735.5,29.1l-2.4-7l-2.4,7H735.5z"/>
		<path class="st2" d="M754.3,36.1l-4.1-7.2h-1v7.2h-4.6v-19h7.8c1.5,0,2.8,0.3,3.8,0.8s1.8,1.2,2.3,2.1s0.8,1.9,0.8,3.1
			c0,1.4-0.4,2.5-1.1,3.5c-0.8,1-1.9,1.6-3.3,2l4.5,7.4L754.3,36.1L754.3,36.1z M749.1,25.8h2.8c0.9,0,1.6-0.2,2-0.6s0.6-1,0.6-1.8
			c0-0.7-0.2-1.3-0.7-1.8c-0.4-0.4-1.1-0.6-2-0.6H749v4.8H749.1z"/>
		<path class="st2" d="M776.2,18.8c1.6,1.3,2.6,3,3.1,5.1h-4.8c-0.4-0.9-0.9-1.6-1.6-2.1c-0.7-0.5-1.6-0.8-2.6-0.8
			c-1.3,0-2.4,0.5-3.2,1.5s-1.2,2.3-1.2,3.9s0.4,3,1.2,3.9c0.8,1,1.9,1.5,3.2,1.5c1,0,1.9-0.2,2.6-0.7c0.7-0.5,1.3-1.2,1.6-2h4.8
			c-0.5,2.1-1.5,3.9-3.1,5.1s-3.6,1.9-6,1.9c-1.8,0-3.5-0.4-4.8-1.2s-2.5-2-3.2-3.4c-0.8-1.5-1.1-3.1-1.1-5s0.4-3.5,1.1-5
			c0.8-1.5,1.8-2.6,3.2-3.4s3-1.2,4.8-1.2C772.6,16.9,774.6,17.6,776.2,18.8z"/>
		<path class="st2" d="M798.2,17.1V36h-4.6v-7.9h-7.2V36h-4.6V17.1h4.6v7.3h7.2v-7.3C793.6,17.1,798.2,17.1,798.2,17.1z"/>
		<path class="st2" d="M819,36.1l-2.2-2.7c-0.2,0.3-0.3,0.5-0.5,0.7c-0.4,0.7-1,1.2-1.7,1.6c-0.8,0.4-1.6,0.6-2.6,0.6
			c-1.3,0-2.4-0.3-3.3-0.8c-0.9-0.5-1.6-1.2-2.1-2.1c-0.5-0.9-0.7-1.9-0.7-3c0-1.6,0.4-2.8,1.2-3.8s1.9-1.6,3.2-1.7l-0.3-0.5
			c-0.3-0.4-0.5-0.9-0.6-1.3s-0.2-0.9-0.2-1.5c0-0.8,0.2-1.6,0.6-2.2s1.1-1.3,1.9-1.7c0.8-0.4,1.8-0.6,3-0.6c1.6,0,2.9,0.3,3.8,1
			c0.9,0.7,1.5,1.6,1.8,2.7c0.3,0.8,0.3,1.7,0.3,2.6h-4.3c0-0.3,0-0.6-0.1-1c-0.1-1-0.6-1.5-1.5-1.5c-0.4,0-0.7,0.1-1,0.3
			s-0.4,0.5-0.4,0.9c0,0.3,0.1,0.6,0.2,0.8c0.1,0.3,0.4,0.6,0.7,1l9.4,12.3L819,36.1L819,36.1z M813.6,31.8c0.4-0.4,0.6-0.9,0.6-1.5
			s-0.2-1.1-0.7-1.6c-0.4-0.4-1-0.6-1.6-0.6s-1.1,0.2-1.5,0.5c-0.4,0.4-0.6,0.9-0.6,1.5c0,0.7,0.2,1.2,0.6,1.6
			c0.4,0.4,1,0.6,1.6,0.6C812.7,32.4,813.2,32.2,813.6,31.8z"/>
		<path class="st2" d="M844.2,17.1v3.6h-5.1V36h-4.6V20.8h-5.1v-3.6L844.2,17.1L844.2,17.1z"/>
		<path class="st2" d="M855.9,36.1l-4.1-7.2h-1v7.2h-4.6v-19h7.8c1.5,0,2.8,0.3,3.8,0.8s1.8,1.2,2.3,2.1s0.8,1.9,0.8,3.1
			c0,1.4-0.4,2.5-1.1,3.5c-0.8,1-1.9,1.6-3.3,2L861,36L855.9,36.1L855.9,36.1z M850.8,25.8h2.8c0.9,0,1.6-0.2,2-0.6s0.6-1,0.6-1.8
			c0-0.7-0.2-1.3-0.7-1.8c-0.4-0.4-1.1-0.6-2-0.6h-2.8v4.8H850.8z"/>
		<path class="st2" d="M874.9,32.6h-7.1l-1.2,3.5h-4.8l6.9-18.8h5.3l6.9,18.8H876L874.9,32.6z M873.8,29.1l-2.4-7l-2.4,7H873.8z"/>
		<path class="st2" d="M887.3,17.1V36h-4.6V17.1H887.3z"/>
		<path class="st2" d="M907.3,36.1h-4.6L895,24.5v11.6h-4.6v-19h4.6l7.7,11.7V17.1h4.6V36.1z"/>
		<path class="st2" d="M915.1,17.1V36h-4.6V17.1H915.1z"/>
		<path class="st2" d="M935,36.1h-4.6l-7.7-11.6v11.6h-4.6v-19h4.6l7.7,11.7V17.1h4.6V36.1z"/>
		<path class="st2" d="M952.9,18.7c1.5,1.2,2.5,2.7,2.9,4.7H951c-0.3-0.7-0.8-1.2-1.5-1.6s-1.5-0.6-2.4-0.6c-1.4,0-2.6,0.5-3.5,1.5
			s-1.3,2.3-1.3,4c0,1.8,0.5,3.2,1.4,4.2s2.2,1.4,3.9,1.4c1.1,0,2-0.3,2.9-0.9s1.4-1.5,1.7-2.6h-5.8v-3.3h9.6V30
			c-0.4,1.1-0.9,2.1-1.7,3.1c-0.8,0.9-1.8,1.7-3,2.3s-2.6,0.9-4.2,0.9c-1.9,0-3.6-0.4-5-1.2s-2.5-2-3.3-3.4s-1.2-3.1-1.2-5
			s0.4-3.5,1.2-5s1.9-2.6,3.3-3.4c1.4-0.8,3.1-1.2,5-1.2C949.4,16.9,951.4,17.5,952.9,18.7z"/>
	</g>
	<g class="st1">
		<path class="st3" d="M419.2,46.1c1.1,0.9,1.9,2,2.1,3.5h-3.6c-0.2-0.5-0.6-0.9-1.1-1.2s-1.1-0.4-1.8-0.4c-1.1,0-1.9,0.4-2.6,1.1
			c-0.7,0.7-1,1.7-1,2.9c0,1.3,0.3,2.4,1,3.1c0.7,0.7,1.7,1.1,2.9,1.1c0.8,0,1.5-0.2,2.1-0.7s1-1.1,1.3-1.9h-4.3v-2.5h7.2v3.4
			c-0.3,0.8-0.7,1.6-1.3,2.3c-0.6,0.7-1.3,1.3-2.3,1.7c-0.9,0.4-2,0.7-3.1,0.7c-1.4,0-2.7-0.3-3.7-0.9c-1.1-0.6-1.9-1.5-2.5-2.6
			s-0.9-2.3-0.9-3.7s0.3-2.6,0.9-3.7s1.4-1.9,2.5-2.5s2.3-0.9,3.7-0.9C416.6,44.8,418,45.2,419.2,46.1z"/>
		<path class="st3" d="M433.8,45.6c1.1,0.6,1.9,1.5,2.6,2.6c0.6,1.1,0.9,2.3,0.9,3.7s-0.3,2.6-1,3.7c-0.6,1.1-1.5,2-2.6,2.6
			s-2.3,0.9-3.6,0.9c-1.3,0-2.5-0.3-3.6-0.9c-1.1-0.6-1.9-1.5-2.6-2.6c-0.6-1.1-1-2.4-1-3.7s0.3-2.6,1-3.7s1.5-2,2.6-2.6
			s2.3-0.9,3.6-0.9C431.5,44.7,432.7,45,433.8,45.6z M427.5,49c-0.7,0.7-1,1.7-1,3c0,1.2,0.3,2.2,1,3c0.7,0.7,1.5,1.1,2.7,1.1
			c1.1,0,2-0.4,2.7-1.1c0.7-0.7,1-1.7,1-3s-0.3-2.2-1-3c-0.7-0.7-1.5-1.1-2.7-1.1S428.1,48.2,427.5,49z"/>
		<path class="st3" d="M441.8,44.9l3.5,10.6l3.5-10.6h3.7L447.6,59h-4.4l-4.9-14.1H441.8z"/>
		<path class="st3" d="M457.1,47.6v3h4.8v2.6h-4.8v3.1h5.4V59h-8.8V44.9h8.8v2.7C462.5,47.6,457.1,47.6,457.1,47.6z"/>
		<path class="st3" d="M471.7,59.1l-3.1-5.3h-0.8v5.3h-3.4V44.9h5.8c1.1,0,2.1,0.2,2.8,0.6s1.4,0.9,1.7,1.6c0.4,0.7,0.6,1.4,0.6,2.3
			c0,1-0.3,1.9-0.9,2.6c-0.6,0.7-1.4,1.2-2.5,1.5l3.4,5.6C475.3,59.1,471.7,59.1,471.7,59.1z M467.9,51.4h2.1c0.7,0,1.2-0.2,1.5-0.4
			c0.3-0.3,0.5-0.7,0.5-1.3s-0.2-1-0.5-1.3s-0.8-0.5-1.5-0.5h-2.1V51.4z"/>
		<path class="st3" d="M489.7,59.1h-3.4l-5.7-8.7v8.7h-3.4V44.9h3.4l5.7,8.8v-8.8h3.4V59.1z"/>
		<path class="st3" d="M508,45v14h-3.4v-8.8l-3,8.8h-3l-3.1-8.8V59h-3.4V45h4.2l3.8,9.8l3.7-9.8H508z"/>
		<path class="st3" d="M513.8,47.6v3h4.8v2.6h-4.8v3.1h5.4V59h-8.8V44.9h8.8v2.7C519.2,47.6,513.8,47.6,513.8,47.6z"/>
		<path class="st3" d="M533.7,59.1h-3.4l-5.7-8.7v8.7h-3.4V44.9h3.4l5.7,8.8v-8.8h3.4V59.1z"/>
		<path class="st3" d="M546.2,44.9v2.7h-3.8V59H539V47.6h-3.8v-2.7C535.2,44.9,546.2,44.9,546.2,44.9z"/>
		<path class="st3" d="M562,45.6c1.1,0.6,1.9,1.5,2.6,2.6c0.6,1.1,0.9,2.3,0.9,3.7s-0.3,2.6-1,3.7c-0.6,1.1-1.5,2-2.6,2.6
			s-2.3,0.9-3.6,0.9s-2.5-0.3-3.6-0.9c-1.1-0.6-1.9-1.5-2.6-2.6c-0.6-1.1-1-2.4-1-3.7s0.3-2.6,1-3.7s1.5-2,2.6-2.6s2.3-0.9,3.6-0.9
			C559.7,44.7,560.9,45,562,45.6z M555.7,49c-0.7,0.7-1,1.7-1,3c0,1.2,0.3,2.2,1,3c0.7,0.7,1.5,1.1,2.7,1.1c1.1,0,2-0.4,2.7-1.1
			c0.7-0.7,1-1.7,1-3s-0.3-2.2-1-3c-0.7-0.7-1.5-1.1-2.7-1.1S556.3,48.2,555.7,49z"/>
		<path class="st3" d="M576.6,44.9v2.7h-5.8v3.1h4.5v2.6h-4.5V59h-3.4V44.9H576.6z"/>
		<path class="st3" d="M591.1,56.5h-5.3l-0.9,2.6h-3.6l5.2-14h3.9l5.2,14H592L591.1,56.5z M590.3,53.9l-1.8-5.2l-1.8,5.2H590.3z"/>
		<path class="st3" d="M609.5,59.1h-3.4l-5.7-8.7v8.7H597V44.9h3.4l5.7,8.8v-8.8h3.4L609.5,59.1L609.5,59.1z"/>
		<path class="st3" d="M623.7,55.6c-0.6,1.1-1.4,1.9-2.6,2.5s-2.4,0.9-3.9,0.9h-5.3V44.9h5.3c1.5,0,2.8,0.3,3.9,0.9
			c1.1,0.6,2,1.4,2.5,2.5c0.6,1.1,0.9,2.3,0.9,3.7S624.3,54.6,623.7,55.6z M620,54.9c0.7-0.7,1.1-1.7,1.1-3s-0.4-2.3-1.1-3
			c-0.7-0.7-1.8-1.1-3.1-1.1h-1.6V56h1.6C618.3,56,619.3,55.6,620,54.9z"/>
		<path class="st3" d="M638.8,44.9V59h-3.4v-5.9H630V59h-3.4V44.9h3.4v5.5h5.4v-5.5H638.8z"/>
		<path class="st3" d="M648.4,59.1l-3.1-5.3h-0.8v5.3h-3.4V44.9h5.8c1.1,0,2.1,0.2,2.8,0.6c0.8,0.4,1.4,0.9,1.7,1.6
			c0.4,0.7,0.6,1.4,0.6,2.3c0,1-0.3,1.9-0.8,2.6c-0.6,0.7-1.4,1.2-2.5,1.5l3.4,5.6C652.1,59.1,648.4,59.1,648.4,59.1z M644.6,51.4
			h2.1c0.7,0,1.2-0.2,1.5-0.4c0.3-0.3,0.5-0.7,0.5-1.3s-0.2-1-0.5-1.3s-0.8-0.5-1.5-0.5h-2.1V51.4z"/>
		<path class="st3" d="M662.6,56.5h-5.3l-0.9,2.6h-3.6l5.2-14h3.9l5.2,14h-3.6L662.6,56.5z M661.7,53.9l-1.8-5.2l-1.8,5.2H661.7z"/>
		<path class="st3" d="M675.9,54.1v5h-3.4V44.9h5.5c1.7,0,3,0.4,3.8,1.3c0.9,0.8,1.3,2,1.3,3.4c0,0.9-0.2,1.7-0.6,2.3
			c-0.4,0.7-1,1.2-1.8,1.6c-0.8,0.4-1.7,0.6-2.8,0.6H675.9z M679.7,49.5c0-1.2-0.7-1.9-2.1-1.9h-1.7v3.7h1.7
			C679,51.4,679.7,50.7,679.7,49.5z"/>
		<path class="st3" d="M692.1,59.1l-3.1-5.3h-0.8v5.3h-3.4V44.9h5.8c1.1,0,2.1,0.2,2.8,0.6c0.8,0.4,1.4,0.9,1.7,1.6
			c0.4,0.7,0.6,1.4,0.6,2.3c0,1-0.3,1.9-0.8,2.6c-0.6,0.7-1.4,1.2-2.5,1.5l3.4,5.6C695.8,59.1,692.1,59.1,692.1,59.1z M688.3,51.4
			h2.1c0.7,0,1.2-0.2,1.5-0.4c0.3-0.3,0.5-0.7,0.5-1.3s-0.2-1-0.5-1.3s-0.8-0.5-1.5-0.5h-2.1V51.4z"/>
		<path class="st3" d="M706.3,56.5H701l-0.9,2.6h-3.6l5.2-14h3.9l5.2,14h-3.6L706.3,56.5z M705.4,53.9l-1.8-5.2l-1.8,5.2H705.4z"/>
		<path class="st3" d="M724,55.6c-0.6,1.1-1.4,1.9-2.6,2.5S719,59,717.5,59h-5.3V44.9h5.3c1.5,0,2.8,0.3,3.9,0.9
			c1.1,0.6,2,1.4,2.5,2.5c0.6,1.1,0.9,2.3,0.9,3.7S724.6,54.6,724,55.6z M720.3,54.9c0.7-0.7,1.1-1.7,1.1-3s-0.4-2.3-1.1-3
			c-0.7-0.7-1.8-1.1-3.1-1.1h-1.6V56h1.6C718.5,56,719.6,55.6,720.3,54.9z"/>
		<path class="st3" d="M730.2,47.6v3h4.8v2.6h-4.8v3.1h5.4V59h-8.8V44.9h8.8v2.7C735.6,47.6,730.2,47.6,730.2,47.6z"/>
		<path class="st3" d="M747.1,57.1c-0.4,0.6-0.9,1.1-1.7,1.5c-0.7,0.4-1.6,0.6-2.7,0.6c-1.6,0-2.9-0.4-3.9-1.2s-1.6-1.9-1.7-3.2h3.6
			c0.1,0.5,0.2,1,0.6,1.3c0.3,0.3,0.7,0.5,1.3,0.5c0.4,0,0.8-0.1,1-0.4c0.3-0.2,0.4-0.6,0.4-1s-0.1-0.7-0.3-0.9s-0.5-0.4-0.9-0.6
			c-0.3-0.2-0.8-0.3-1.4-0.5c-0.9-0.3-1.6-0.6-2.2-0.9c-0.6-0.3-1.1-0.7-1.5-1.3s-0.6-1.3-0.6-2.2c0-0.8,0.2-1.6,0.6-2.2
			c0.4-0.6,1-1.1,1.8-1.4c0.8-0.3,1.6-0.5,2.6-0.5c1.6,0,2.8,0.4,3.8,1.1c0.9,0.7,1.5,1.8,1.6,3.1h-3.7c-0.1-0.5-0.2-0.8-0.5-1.1
			s-0.6-0.4-1.1-0.4c-0.4,0-0.7,0.1-1,0.3c-0.2,0.2-0.4,0.5-0.4,0.9c0,0.3,0.1,0.6,0.3,0.9s0.5,0.4,0.8,0.6c0.3,0.1,0.8,0.3,1.4,0.6
			c0.9,0.3,1.6,0.6,2.2,0.9c0.6,0.3,1.1,0.7,1.5,1.3s0.6,1.3,0.6,2.2C747.7,55.8,747.5,56.5,747.1,57.1z"/>
		<path class="st3" d="M761.8,44.9V59h-3.4v-5.9H753V59h-3.4V44.9h3.4v5.5h5.4v-5.5H761.8z"/>
	</g>
</g>
<g>
	<path class="st4" d="M240.6,30.5l-1.4,4.9h-4.5l5.8-19h5.6l5.9,19h-4.6l-1.5-4.9H240.6z M245.5,27.3l-1.2-4c-0.3-1.1-0.7-2.5-1-3.7
		h-0.1c-0.3,1.1-0.6,2.6-0.9,3.7l-1.1,4H245.5z"/>
	<path class="st4" d="M254.7,35.4v-19h5l3.9,7c1.1,2,2.3,4.4,3.1,6.5h0.1c-0.3-2.5-0.4-5.1-0.4-7.9v-5.6h3.9v19h-4.5l-4.1-7.3
		c-1.1-2-2.4-4.5-3.3-6.7l-0.1,0c0.1,2.5,0.2,5.2,0.2,8.3v5.7H254.7z"/>
	<path class="st4" d="M274.2,16.6c1.6-0.3,3.6-0.4,5.8-0.4c3.6,0,5.9,0.6,7.8,2c2,1.5,3.2,3.8,3.2,7.2c0,3.6-1.3,6.1-3.2,7.7
		c-2,1.7-5,2.5-8.8,2.5c-2.2,0-3.8-0.1-4.9-0.3V16.6z M278.5,32.1c0.4,0.1,1,0.1,1.5,0.1c3.9,0,6.4-2.1,6.4-6.7c0-3.9-2.3-6-6-6
		c-1,0-1.6,0.1-1.9,0.2V32.1z"/>
	<path class="st4" d="M298.1,16.4v7.3h7.1v-7.3h4.3v19h-4.3v-7.9h-7.1v7.9h-4.3v-19H298.1z"/>
	<path class="st4" d="M313.2,16.6c1.4-0.2,3.4-0.4,5.7-0.4c2.8,0,4.8,0.4,6.1,1.5c1.1,0.9,1.7,2.2,1.7,4c0,2.4-1.7,4.1-3.4,4.7v0.1
		c1.3,0.5,2.1,1.8,2.5,3.6c0.6,2.1,1.2,4.6,1.5,5.4h-4.4c-0.3-0.5-0.8-2.1-1.3-4.4c-0.5-2.4-1.3-3-3.1-3h-1.3v7.5h-4.3V16.6z
		 M317.5,24.8h1.7c2.1,0,3.4-1.1,3.4-2.7c0-1.7-1.2-2.6-3.2-2.6c-1,0-1.6,0.1-1.9,0.1V24.8z"/>
	<path class="st4" d="M334.6,30.5l-1.4,4.9h-4.5l5.8-19h5.6l5.9,19h-4.6l-1.5-4.9H334.6z M339.4,27.3l-1.2-4c-0.3-1.1-0.7-2.5-1-3.7
		h-0.1c-0.3,1.1-0.6,2.6-0.9,3.7l-1.1,4H339.4z"/>
	<path class="st4" d="M354.4,16.6c1.3-0.2,3.2-0.4,5.8-0.4c2.6,0,4.5,0.5,5.8,1.5c1.2,1,2,2.5,2,4.4c0,1.9-0.6,3.4-1.7,4.5
		c-1.5,1.4-3.6,2-6.2,2c-0.6,0-1.1,0-1.5-0.1v6.8h-4.3V16.6z M358.6,25.3c0.4,0.1,0.8,0.1,1.4,0.1c2.3,0,3.7-1.2,3.7-3.1
		c0-1.7-1.2-2.8-3.4-2.8c-0.9,0-1.5,0.1-1.8,0.2V25.3z"/>
	<path class="st4" d="M370.7,16.6c1.4-0.2,3.4-0.4,5.7-0.4c2.8,0,4.8,0.4,6.1,1.5c1.1,0.9,1.7,2.2,1.7,4c0,2.4-1.7,4.1-3.4,4.7v0.1
		c1.3,0.5,2.1,1.8,2.5,3.6c0.6,2.1,1.2,4.6,1.5,5.4h-4.4c-0.3-0.5-0.8-2.1-1.3-4.4c-0.5-2.4-1.3-3-3.1-3H375v7.5h-4.3V16.6z
		 M375,24.8h1.7c2.1,0,3.4-1.1,3.4-2.7c0-1.7-1.2-2.6-3.2-2.6c-1,0-1.6,0.1-1.9,0.1V24.8z"/>
	<path class="st4" d="M392.1,30.5l-1.4,4.9h-4.5l5.8-19h5.6l5.9,19H399l-1.5-4.9H392.1z M397,27.3l-1.2-4c-0.3-1.1-0.7-2.5-1-3.7
		h-0.1c-0.3,1.1-0.6,2.6-0.9,3.7l-1.1,4H397z"/>
	<path class="st4" d="M406.2,16.6c1.6-0.3,3.6-0.4,5.8-0.4c3.6,0,5.9,0.6,7.8,2c2,1.5,3.2,3.8,3.2,7.2c0,3.6-1.3,6.1-3.2,7.7
		c-2,1.7-5,2.5-8.8,2.5c-2.2,0-3.8-0.1-4.9-0.3V16.6z M410.5,32.1c0.4,0.1,1,0.1,1.5,0.1c3.9,0,6.4-2.1,6.4-6.7c0-3.9-2.3-6-6-6
		c-1,0-1.6,0.1-1.9,0.2V32.1z"/>
	<path class="st4" d="M437.1,27.3h-7v4.5h7.8v3.5h-12.1v-19h11.7v3.5h-7.4v3.9h7V27.3z"/>
	<path class="st4" d="M441,30.9c1.2,0.6,2.9,1.2,4.8,1.2c2,0,3-0.8,3-2.1c0-1.2-0.9-1.9-3.2-2.7c-3.2-1.1-5.2-2.8-5.2-5.6
		c0-3.2,2.7-5.7,7.2-5.7c2.1,0,3.7,0.5,4.8,1l-1,3.5c-0.8-0.4-2.1-0.9-4-0.9c-1.9,0-2.8,0.8-2.8,1.8c0,1.2,1.1,1.7,3.5,2.7
		c3.4,1.2,4.9,3,4.9,5.7c0,3.2-2.5,5.9-7.7,5.9c-2.2,0-4.3-0.6-5.4-1.2L441,30.9z"/>
	<path class="st4" d="M460.4,16.4v7.3h7.1v-7.3h4.3v19h-4.3v-7.9h-7.1v7.9h-4.3v-19H460.4z"/>
	<path class="st4" d="M481.2,16.6c1.6-0.3,3.6-0.4,5.8-0.4c3.6,0,5.9,0.6,7.8,2c2,1.5,3.2,3.8,3.2,7.2c0,3.6-1.3,6.1-3.2,7.7
		c-2,1.7-5,2.5-8.8,2.5c-2.2,0-3.8-0.1-4.9-0.3V16.6z M485.5,32.1c0.4,0.1,1,0.1,1.5,0.1c3.9,0,6.4-2.1,6.4-6.7c0-3.9-2.3-6-6-6
		c-1,0-1.6,0.1-1.9,0.2V32.1z"/>
	<path class="st4" d="M505.2,16.4v19h-4.3v-19H505.2z"/>
	<path class="st4" d="M509,30.9c1.2,0.6,2.9,1.2,4.8,1.2c2,0,3-0.8,3-2.1c0-1.2-0.9-1.9-3.2-2.7c-3.2-1.1-5.2-2.8-5.2-5.6
		c0-3.2,2.7-5.7,7.2-5.7c2.1,0,3.7,0.5,4.8,1l-1,3.5c-0.8-0.4-2.1-0.9-4-0.9c-1.9,0-2.8,0.8-2.8,1.8c0,1.2,1.1,1.7,3.5,2.7
		c3.4,1.2,4.9,3,4.9,5.7c0,3.2-2.5,5.9-7.7,5.9c-2.2,0-4.3-0.6-5.4-1.2L509,30.9z"/>
	<path class="st4" d="M527.8,20h-5.1v-3.6h14.6V20h-5.2v15.4h-4.3V20z"/>
	<path class="st4" d="M539.5,16.6c1.4-0.2,3.4-0.4,5.7-0.4c2.8,0,4.8,0.4,6.1,1.5c1.1,0.9,1.7,2.2,1.7,4c0,2.4-1.7,4.1-3.4,4.7v0.1
		c1.3,0.5,2.1,1.8,2.5,3.6c0.6,2.1,1.2,4.6,1.5,5.4h-4.4c-0.3-0.5-0.8-2.1-1.3-4.4c-0.5-2.4-1.3-3-3.1-3h-1.3v7.5h-4.3V16.6z
		 M543.8,24.8h1.7c2.1,0,3.4-1.1,3.4-2.7c0-1.7-1.2-2.6-3.2-2.6c-1,0-1.6,0.1-1.9,0.1V24.8z"/>
	<path class="st4" d="M560.6,16.4v19h-4.3v-19H560.6z"/>
	<path class="st4" d="M578.2,34.8c-0.8,0.4-2.6,0.8-4.9,0.8c-6.6,0-9.9-4.1-9.9-9.5c0-6.5,4.6-10.1,10.4-10.1c2.2,0,3.9,0.5,4.7,0.8
		l-0.9,3.4c-0.9-0.4-2.1-0.7-3.6-0.7c-3.4,0-6.1,2.1-6.1,6.3c0,3.8,2.3,6.2,6.1,6.2c1.3,0,2.7-0.3,3.6-0.6L578.2,34.8z"/>
	<path class="st4" d="M585.1,20H580v-3.6h14.6V20h-5.2v15.4h-4.3V20z"/>
	<path class="st4" d="M602.6,16.6c1.4-0.2,3.4-0.4,5.7-0.4c2.8,0,4.8,0.4,6.1,1.5c1.1,0.9,1.7,2.2,1.7,4c0,2.4-1.7,4.1-3.4,4.7v0.1
		c1.3,0.5,2.1,1.8,2.5,3.6c0.6,2.1,1.2,4.6,1.5,5.4h-4.4c-0.3-0.5-0.8-2.1-1.3-4.4c-0.5-2.4-1.3-3-3.1-3h-1.3v7.5h-4.3V16.6z
		 M606.9,24.8h1.7c2.1,0,3.4-1.1,3.4-2.7c0-1.7-1.2-2.6-3.2-2.6c-1,0-1.6,0.1-1.9,0.1V24.8z"/>
	<path class="st4" d="M630.6,27.3h-7v4.5h7.8v3.5h-12.1v-19H631v3.5h-7.4v3.9h7V27.3z"/>
	<path class="st4" d="M651.8,25.7c0,6.2-3.8,10-9.3,10c-5.6,0-8.9-4.3-8.9-9.7c0-5.7,3.6-9.9,9.2-9.9
		C648.6,16.1,651.8,20.4,651.8,25.7z M638,25.9c0,3.7,1.7,6.3,4.6,6.3c2.9,0,4.6-2.8,4.6-6.5c0-3.4-1.6-6.3-4.6-6.3
		C639.7,19.5,638,22.2,638,25.9z"/>
	<path class="st4" d="M654.6,16.6c1.4-0.2,3.4-0.4,5.7-0.4c2.8,0,4.8,0.4,6.1,1.5c1.1,0.9,1.7,2.2,1.7,4c0,2.4-1.7,4.1-3.4,4.7v0.1
		c1.3,0.5,2.1,1.8,2.5,3.6c0.6,2.1,1.2,4.6,1.5,5.4h-4.4c-0.3-0.5-0.8-2.1-1.3-4.4c-0.5-2.4-1.3-3-3.1-3h-1.3v7.5h-4.3V16.6z
		 M658.8,24.8h1.7c2.1,0,3.4-1.1,3.4-2.7c0-1.7-1.2-2.6-3.2-2.6c-1,0-1.6,0.1-1.9,0.1V24.8z"/>
	<path class="st4" d="M687.1,34.5c-1.3,0.5-3.8,1.1-6.3,1.1c-3.5,0-6-0.9-7.7-2.6c-1.7-1.6-2.7-4.1-2.7-6.9c0-6.3,4.6-9.9,10.9-9.9
		c2.5,0,4.3,0.5,5.3,0.9l-0.9,3.4c-1-0.5-2.3-0.8-4.4-0.8c-3.6,0-6.3,2-6.3,6.1c0,3.9,2.5,6.2,6,6.2c1,0,1.8-0.1,2.1-0.3v-4H680
		v-3.4h7.1V34.5z"/>
	<path class="st4" d="M694.8,30.5l-1.4,4.9H689l5.8-19h5.6l5.9,19h-4.6l-1.5-4.9H694.8z M699.7,27.3l-1.2-4c-0.3-1.1-0.7-2.5-1-3.7
		h-0.1c-0.3,1.1-0.6,2.6-0.9,3.7l-1.1,4H699.7z"/>
	<path class="st4" d="M708.9,35.4v-19h5l3.9,7c1.1,2,2.3,4.4,3.1,6.5h0.1c-0.3-2.5-0.4-5.1-0.4-7.9v-5.6h3.9v19h-4.5l-4.1-7.3
		c-1.1-2-2.4-4.5-3.3-6.7l-0.1,0c0.1,2.5,0.2,5.2,0.2,8.3v5.7H708.9z"/>
	<path class="st4" d="M732.7,16.4v19h-4.3v-19H732.7z"/>
	<path class="st4" d="M735.2,33.1l9-13v-0.1H736v-3.6h13.8v2.5L741,31.7v0.1h9v3.6h-14.8V33.1z"/>
	<path class="st4" d="M757.3,30.5l-1.4,4.9h-4.5l5.8-19h5.6l5.9,19h-4.6l-1.5-4.9H757.3z M762.1,27.3l-1.2-4c-0.3-1.1-0.7-2.5-1-3.7
		h-0.1c-0.3,1.1-0.6,2.6-0.9,3.7l-1.1,4H762.1z"/>
	<path class="st4" d="M772.7,20h-5.1v-3.6h14.6V20H777v15.4h-4.3V20z"/>
	<path class="st4" d="M788.8,16.4v19h-4.3v-19H788.8z"/>
	<path class="st4" d="M809.9,25.7c0,6.2-3.8,10-9.3,10c-5.6,0-8.9-4.3-8.9-9.7c0-5.7,3.6-9.9,9.2-9.9
		C806.7,16.1,809.9,20.4,809.9,25.7z M796.2,25.9c0,3.7,1.7,6.3,4.6,6.3c2.9,0,4.6-2.8,4.6-6.5c0-3.4-1.6-6.3-4.6-6.3
		C797.9,19.5,796.2,22.2,796.2,25.9z"/>
	<path class="st4" d="M812.7,35.4v-19h5l3.9,7c1.1,2,2.3,4.4,3.1,6.5h0.1c-0.3-2.5-0.4-5.1-0.4-7.9v-5.6h3.9v19h-4.5l-4.1-7.3
		c-1.1-2-2.4-4.5-3.3-6.7l-0.1,0c0.1,2.5,0.2,5.2,0.2,8.3v5.7H812.7z"/>
	<path class="st4" d="M837.9,16.6c1.3-0.2,3.2-0.4,5.8-0.4c2.6,0,4.5,0.5,5.8,1.5c1.2,1,2,2.5,2,4.4c0,1.9-0.6,3.4-1.7,4.5
		c-1.5,1.4-3.6,2-6.2,2c-0.6,0-1.1,0-1.5-0.1v6.8h-4.3V16.6z M842.1,25.3c0.4,0.1,0.8,0.1,1.4,0.1c2.3,0,3.7-1.2,3.7-3.1
		c0-1.7-1.2-2.8-3.4-2.8c-0.9,0-1.5,0.1-1.8,0.2V25.3z"/>
	<path class="st4" d="M871.6,25.7c0,6.2-3.8,10-9.3,10c-5.6,0-8.9-4.3-8.9-9.7c0-5.7,3.6-9.9,9.2-9.9
		C868.5,16.1,871.6,20.4,871.6,25.7z M857.9,25.9c0,3.7,1.7,6.3,4.6,6.3c2.9,0,4.6-2.8,4.6-6.5c0-3.4-1.6-6.3-4.6-6.3
		C859.6,19.5,857.9,22.2,857.9,25.9z"/>
	<path class="st4" d="M874.5,16.6c1.4-0.2,3.4-0.4,5.7-0.4c2.8,0,4.8,0.4,6.1,1.5c1.1,0.9,1.7,2.2,1.7,4c0,2.4-1.7,4.1-3.4,4.7v0.1
		c1.3,0.5,2.1,1.8,2.5,3.6c0.6,2.1,1.2,4.6,1.5,5.4h-4.4c-0.3-0.5-0.8-2.1-1.3-4.4c-0.5-2.4-1.3-3-3.1-3h-1.3v7.5h-4.3V16.6z
		 M878.7,24.8h1.7c2.1,0,3.4-1.1,3.4-2.7c0-1.7-1.2-2.6-3.2-2.6c-1,0-1.6,0.1-1.9,0.1V24.8z"/>
	<path class="st4" d="M894.8,20h-5.1v-3.6h14.6V20h-5.2v15.4h-4.3V20z"/>
	<path class="st4" d="M909,30.5l-1.4,4.9h-4.5l5.8-19h5.6l5.9,19h-4.6l-1.5-4.9H909z M913.8,27.3l-1.2-4c-0.3-1.1-0.7-2.5-1-3.7
		h-0.1c-0.3,1.1-0.6,2.6-0.9,3.7l-1.1,4H913.8z"/>
	<path class="st4" d="M923.1,16.4h4.3v15.4h7.6v3.6h-11.9V16.4z"/>
</g>
<g>
	<path class="st5" d="M422.8,57.7c-1,0.3-2.9,0.8-4.8,0.8c-2.6,0-4.5-0.7-5.8-1.9c-1.3-1.2-2-3.1-2-5.2c0-4.7,3.5-7.4,8.1-7.4
		c1.8,0,3.3,0.4,4,0.7l-0.7,2.6c-0.8-0.3-1.8-0.6-3.3-0.6c-2.7,0-4.7,1.5-4.7,4.6c0,2.9,1.8,4.7,4.5,4.7c0.7,0,1.3-0.1,1.6-0.2v-3
		h-2.2v-2.5h5.3V57.7z"/>
	<path class="st5" d="M438.4,51.1c0,4.7-2.8,7.5-7,7.5c-4.2,0-6.7-3.2-6.7-7.3c0-4.3,2.7-7.5,6.9-7.5
		C436,43.9,438.4,47.2,438.4,51.1z M428.1,51.3c0,2.8,1.3,4.8,3.5,4.8c2.2,0,3.4-2.1,3.4-4.8c0-2.6-1.2-4.8-3.4-4.8
		C429.4,46.5,428.1,48.5,428.1,51.3z"/>
	<path class="st5" d="M443.7,58.4l-4.6-14.3h3.5l1.7,6c0.5,1.7,0.9,3.3,1.3,5.1h0.1c0.4-1.7,0.8-3.4,1.3-5l1.8-6.1h3.4l-4.8,14.3
		H443.7z"/>
	<path class="st5" d="M462.3,52.4H457v3.4h5.9v2.6h-9.1V44.1h8.8v2.6H457v3h5.2V52.4z"/>
	<path class="st5" d="M465.1,44.3c1-0.2,2.6-0.3,4.3-0.3c2.1,0,3.6,0.3,4.6,1.1c0.8,0.7,1.3,1.7,1.3,3c0,1.8-1.3,3.1-2.5,3.5v0.1
		c1,0.4,1.5,1.4,1.9,2.7c0.4,1.6,0.9,3.5,1.2,4h-3.3c-0.2-0.4-0.6-1.6-1-3.3c-0.4-1.8-1-2.3-2.3-2.3h-1v5.6h-3.2V44.3z M468.3,50.5
		h1.3c1.6,0,2.6-0.8,2.6-2.1c0-1.3-0.9-2-2.4-2c-0.8,0-1.2,0.1-1.5,0.1V50.5z"/>
	<path class="st5" d="M477.6,58.4V44.1h3.8l3,5.2c0.8,1.5,1.7,3.3,2.3,4.9h0.1c-0.2-1.9-0.3-3.8-0.3-5.9v-4.2h3v14.3H486l-3-5.5
		c-0.8-1.5-1.8-3.4-2.5-5l-0.1,0c0.1,1.9,0.1,3.9,0.1,6.2v4.3H477.6z"/>
	<path class="st5" d="M504.3,52.9c-0.1-1.7-0.1-3.8-0.1-5.9h-0.1c-0.4,1.8-1,3.8-1.6,5.5l-1.7,5.6h-2.5l-1.5-5.5
		c-0.5-1.7-1-3.7-1.3-5.6h0c-0.1,1.9-0.1,4.1-0.3,5.9l-0.3,5.4h-3l0.9-14.3h4.3l1.4,4.8c0.4,1.7,0.9,3.4,1.2,5.1h0.1
		c0.4-1.7,0.9-3.5,1.4-5.1l1.5-4.7h4.2l0.8,14.3h-3.2L504.3,52.9z"/>
	<path class="st5" d="M518.6,52.4h-5.2v3.4h5.9v2.6h-9.1V44.1h8.8v2.6h-5.6v3h5.2V52.4z"/>
	<path class="st5" d="M521.4,58.4V44.1h3.8l3,5.2c0.8,1.5,1.7,3.3,2.3,4.9h0.1c-0.2-1.9-0.3-3.8-0.3-5.9v-4.2h3v14.3h-3.4l-3-5.5
		c-0.8-1.5-1.8-3.4-2.5-5l-0.1,0c0.1,1.9,0.1,3.9,0.1,6.2v4.3H521.4z"/>
	<path class="st5" d="M538.7,46.8h-3.8v-2.7h11v2.7H542v11.5h-3.2V46.8z"/>
	<path class="st5" d="M564.9,51.1c0,4.7-2.8,7.5-7,7.5c-4.2,0-6.7-3.2-6.7-7.3c0-4.3,2.7-7.5,6.9-7.5
		C562.5,43.9,564.9,47.2,564.9,51.1z M554.6,51.3c0,2.8,1.3,4.8,3.5,4.8c2.2,0,3.4-2.1,3.4-4.8c0-2.6-1.2-4.8-3.4-4.8
		C555.8,46.5,554.6,48.5,554.6,51.3z"/>
	<path class="st5" d="M567,44.1h8.7v2.6h-5.5V50h5.1v2.6h-5.1v5.7H567V44.1z"/>
	<path class="st5" d="M585.7,54.7l-1,3.7h-3.3l4.4-14.3h4.2l4.4,14.3h-3.5l-1.1-3.7H585.7z M589.3,52.3l-0.9-3
		c-0.3-0.8-0.5-1.9-0.7-2.8h0c-0.2,0.8-0.4,1.9-0.7,2.8l-0.8,3H589.3z"/>
	<path class="st5" d="M596.3,58.4V44.1h3.8l3,5.2c0.8,1.5,1.7,3.3,2.3,4.9h0.1c-0.2-1.9-0.3-3.8-0.3-5.9v-4.2h3v14.3h-3.4l-3-5.5
		c-0.8-1.5-1.8-3.4-2.5-5l-0.1,0c0.1,1.9,0.1,3.9,0.1,6.2v4.3H596.3z"/>
	<path class="st5" d="M610.9,44.3c1.2-0.2,2.7-0.3,4.4-0.3c2.7,0,4.5,0.5,5.8,1.5c1.5,1.1,2.4,2.9,2.4,5.4c0,2.7-1,4.6-2.4,5.8
		c-1.5,1.2-3.8,1.8-6.6,1.8c-1.7,0-2.9-0.1-3.7-0.2V44.3z M614.1,56c0.3,0.1,0.7,0.1,1.1,0.1c2.9,0,4.8-1.6,4.8-5
		c0-3-1.7-4.5-4.5-4.5c-0.7,0-1.2,0.1-1.5,0.1V56z"/>
	<path class="st5" d="M628.8,44.1v5.5h5.3v-5.5h3.2v14.3h-3.2v-6h-5.3v6h-3.2V44.1H628.8z"/>
	<path class="st5" d="M640.1,44.3c1-0.2,2.6-0.3,4.3-0.3c2.1,0,3.6,0.3,4.6,1.1c0.8,0.7,1.3,1.7,1.3,3c0,1.8-1.3,3.1-2.5,3.5v0.1
		c1,0.4,1.5,1.4,1.9,2.7c0.4,1.6,0.9,3.5,1.2,4h-3.3c-0.2-0.4-0.6-1.6-1-3.3c-0.4-1.8-1-2.3-2.3-2.3h-1v5.6h-3.2V44.3z M643.3,50.5
		h1.3c1.6,0,2.6-0.8,2.6-2.1c0-1.3-0.9-2-2.4-2c-0.8,0-1.2,0.1-1.5,0.1V50.5z"/>
	<path class="st5" d="M656.2,54.7l-1,3.7h-3.3l4.4-14.3h4.2l4.4,14.3h-3.5l-1.1-3.7H656.2z M659.8,52.3l-0.9-3
		c-0.3-0.8-0.5-1.9-0.7-2.8h0c-0.2,0.8-0.4,1.9-0.7,2.8l-0.8,3H659.8z"/>
	<path class="st5" d="M671,44.3c1-0.2,2.4-0.3,4.4-0.3c2,0,3.4,0.4,4.4,1.1c0.9,0.7,1.5,1.9,1.5,3.3c0,1.4-0.5,2.6-1.3,3.4
		c-1.1,1-2.7,1.5-4.6,1.5c-0.4,0-0.8,0-1.1-0.1v5.1H671V44.3z M674.2,50.8c0.3,0.1,0.6,0.1,1.1,0.1c1.7,0,2.8-0.9,2.8-2.3
		c0-1.3-0.9-2.1-2.5-2.1c-0.7,0-1.1,0.1-1.3,0.1V50.8z"/>
	<path class="st5" d="M683.3,44.3c1-0.2,2.6-0.3,4.3-0.3c2.1,0,3.6,0.3,4.6,1.1c0.8,0.7,1.3,1.7,1.3,3c0,1.8-1.3,3.1-2.5,3.5v0.1
		c1,0.4,1.5,1.4,1.9,2.7c0.4,1.6,0.9,3.5,1.2,4h-3.3c-0.2-0.4-0.6-1.6-1-3.3c-0.4-1.8-1-2.3-2.3-2.3h-1v5.6h-3.2V44.3z M686.5,50.5
		h1.3c1.6,0,2.6-0.8,2.6-2.1c0-1.3-0.9-2-2.4-2c-0.8,0-1.2,0.1-1.5,0.1V50.5z"/>
	<path class="st5" d="M699.3,54.7l-1,3.7H695l4.4-14.3h4.2l4.4,14.3h-3.5l-1.1-3.7H699.3z M703,52.3l-0.9-3
		c-0.3-0.8-0.5-1.9-0.7-2.8h0c-0.2,0.8-0.4,1.9-0.7,2.8l-0.8,3H703z"/>
	<path class="st5" d="M709.9,44.3c1.2-0.2,2.7-0.3,4.4-0.3c2.7,0,4.5,0.5,5.8,1.5c1.5,1.1,2.4,2.9,2.4,5.4c0,2.7-1,4.6-2.4,5.8
		c-1.5,1.2-3.8,1.8-6.6,1.8c-1.7,0-2.9-0.1-3.7-0.2V44.3z M713.1,56c0.3,0.1,0.7,0.1,1.1,0.1c2.9,0,4.8-1.6,4.8-5
		c0-3-1.7-4.5-4.5-4.5c-0.7,0-1.2,0.1-1.5,0.1V56z"/>
	<path class="st5" d="M733.1,52.4h-5.2v3.4h5.9v2.6h-9.1V44.1h8.8v2.6h-5.6v3h5.2V52.4z"/>
	<path class="st5" d="M736,55.1c0.9,0.4,2.2,0.9,3.6,0.9c1.5,0,2.3-0.6,2.3-1.5c0-0.9-0.7-1.4-2.4-2c-2.4-0.8-3.9-2.1-3.9-4.2
		c0-2.4,2-4.3,5.4-4.3c1.6,0,2.8,0.3,3.6,0.7l-0.7,2.6c-0.6-0.3-1.6-0.7-3-0.7c-1.4,0-2.1,0.6-2.1,1.4c0,0.9,0.8,1.3,2.6,2
		c2.5,0.9,3.7,2.2,3.7,4.3c0,2.4-1.8,4.4-5.8,4.4c-1.6,0-3.2-0.4-4-0.9L736,55.1z"/>
	<path class="st5" d="M750.5,44.1v5.5h5.3v-5.5h3.2v14.3h-3.2v-6h-5.3v6h-3.2V44.1H750.5z"/>
</g>
</svg>
