<?xml version="1.0" encoding="utf-8"?>
<!-- Generator: Adobe Illustrator 23.0.3, SVG Export Plug-In . SVG Version: 6.00 Build 0)  -->
<svg version="1.1" id="Layer_1" xmlns="http://www.w3.org/2000/svg" xmlns:xlink="http://www.w3.org/1999/xlink" x="0px" y="0px"
	 viewBox="0 0 3756.2 937.8" style="enable-background:new 0 0 3756.2 937.8;" xml:space="preserve">
<style type="text/css">
	.st0{fill:#F2F2F2;}
	.st1{fill:url(#SVGID_1_);}
	.st2{fill:#29ABE2;}
	.st3{fill:url(#SVGID_2_);}
	.st4{fill:#FFFFFF;}
	.st5{fill:url(#SVGID_3_);}
	.st6{fill:#29ABE2;stroke:#29ABE2;stroke-miterlimit:10;}
	.st7{fill:#1B1464;}
	.st8{fill:#2E3192;}
	.st9{fill:#00A99D;}
	.st10{fill:url(#SVGID_4_);}
	.st11{fill:#0071BC;}
	.st12{fill:url(#SVGID_5_);}
	.st13{fill:#808080;}
	.st14{fill:#39B54A;}
</style>
<g>
	<circle class="st0" cx="2605.1" cy="475.4" r="363.5"/>
	<circle class="st0" cx="1878.1" cy="475.4" r="363.5"/>
	<circle class="st0" cx="3332.1" cy="475.4" r="363.5"/>
	<radialGradient id="SVGID_1_" cx="3398.9473" cy="547.257" r="264.1545" gradientUnits="userSpaceOnUse">
		<stop  offset="0.1958" style="stop-color:#000000"/>
		<stop  offset="0.9841" style="stop-color:#F2F2F2"/>
	</radialGradient>
	<circle class="st1" cx="3398.9" cy="547.3" r="264.2"/>
	<circle class="st0" cx="1151.1" cy="475.4" r="363.5"/>
	<g>
		<g>
			<path class="st2" d="M3332.1,844.5v-11.2c197.4,0,357.9-160.6,357.9-357.9s-160.6-357.9-357.9-357.9
				c-197.4,0-357.9,160.6-357.9,357.9H2963c0-98.6,38.4-191.3,108.1-261c69.7-69.7,162.4-108.1,261-108.1s191.3,38.4,261,108.1
				c69.7,69.7,108.1,162.4,108.1,261s-38.4,191.3-108.1,261C3523.4,806.1,3430.7,844.5,3332.1,844.5z"/>
		</g>
	</g>
	<circle class="st0" cx="424.1" cy="475.4" r="363.5"/>
	<radialGradient id="SVGID_2_" cx="490.9543" cy="547.257" r="264.1545" gradientUnits="userSpaceOnUse">
		<stop  offset="0.1958" style="stop-color:#000000"/>
		<stop  offset="0.9841" style="stop-color:#F2F2F2"/>
	</radialGradient>
	<circle class="st3" cx="491" cy="547.3" r="264.2"/>
	<path class="st4" d="M724.1,475.4c0,165.6-134.3,299.9-299.9,299.9c-165.6,0-299.9-134.3-299.9-299.9
		c0-125.2,76.7-232.4,185.6-277.4c35.2-14.5,73.8-22.5,114.3-22.5c40.5,0,79.1,8,114.3,22.5C647.4,242.9,724.1,350.2,724.1,475.4z"
		/>
	<g>
		<g>
			<path class="st2" d="M424.1,844.5c-98.6,0-191.3-38.4-261-108.1S55,574,55,475.4s38.4-191.3,108.1-261
				c69.7-69.7,162.4-108.1,261-108.1v11.2C226.8,117.5,66.2,278,66.2,475.4s160.6,357.9,357.9,357.9
				c197.4,0,357.9-160.6,357.9-357.9h11.2c0,98.6-38.4,191.3-108.1,261C615.4,806.1,522.7,844.5,424.1,844.5z"/>
		</g>
	</g>
	<radialGradient id="SVGID_3_" cx="1217.9526" cy="547.257" r="264.1545" gradientUnits="userSpaceOnUse">
		<stop  offset="0.1958" style="stop-color:#000000"/>
		<stop  offset="0.9841" style="stop-color:#F2F2F2"/>
	</radialGradient>
	<circle class="st5" cx="1218" cy="547.3" r="264.2"/>
	<path class="st4" d="M1451.1,475.4c0,165.6-134.3,299.9-299.9,299.9c-165.6,0-299.9-134.3-299.9-299.9
		c0-125.2,76.7-232.4,185.6-277.4c35.2-14.5,73.8-22.5,114.3-22.5c40.5,0,79.1,8,114.3,22.5C1374.4,242.9,1451.1,350.2,1451.1,475.4
		z"/>
	<g>
		<g>
			<path class="st2" d="M1151.1,844.5v-11.2c197.4,0,357.9-160.6,357.9-357.9h11.2c0,98.6-38.4,191.3-108.1,261
				C1342.4,806.1,1249.7,844.5,1151.1,844.5z"/>
		</g>
	</g>
	<g>
		<g>
			<path class="st6" d="M793.2,475.4H782c0-98.6,38.4-191.3,108.1-261c69.7-69.7,162.4-108.1,261-108.1v11.2
				C953.8,117.5,793.2,278,793.2,475.4z"/>
		</g>
	</g>
	<path class="st4" d="M3632,475.4c0,165.6-134.3,299.9-299.9,299.9c-165.6,0-299.9-134.3-299.9-299.9
		c0-125.2,76.7-232.4,185.6-277.4c35.2-14.5,73.8-22.5,114.3-22.5c40.5,0,79.1,8,114.3,22.5C3555.4,242.9,3632,350.2,3632,475.4z"/>
	<polygon class="st2" points="460.8,111.9 424.1,90.7 424.1,111.9 424.1,133 	"/>
	<polygon class="st2" points="1187.8,111.9 1151.1,90.7 1151.1,111.9 1151.1,133 	"/>
	<polygon class="st2" points="1114.5,838.9 1151.1,817.7 1151.1,838.9 1151.1,860 	"/>
	<polygon class="st2" points="3295.5,838.9 3332.1,817.7 3332.1,838.9 3332.1,860 	"/>
	<path class="st7" d="M538.4,198v138.2c0,63.1-51.2,114.3-114.3,114.3c-63.1,0-114.3-51.2-114.3-114.3V198
		c35.2-14.5,73.8-22.5,114.3-22.5C464.6,175.5,503.2,183.5,538.4,198z"/>
	<path class="st8" d="M1265.4,198v138.2c0,63.1-51.2,114.3-114.3,114.3c-63.1,0-114.3-51.2-114.3-114.3V198
		c35.2-14.5,73.8-22.5,114.3-22.5C1191.6,175.5,1230.2,183.5,1265.4,198z"/>
	<path class="st9" d="M3446.4,198v138.2c0,63.1-51.2,114.3-114.3,114.3c-63.1,0-114.3-51.2-114.3-114.3V198
		c35.2-14.5,73.8-22.5,114.3-22.5C3372.6,175.5,3411.2,183.5,3446.4,198z"/>
	<radialGradient id="SVGID_4_" cx="1944.9507" cy="547.257" r="264.1545" gradientUnits="userSpaceOnUse">
		<stop  offset="0.1958" style="stop-color:#000000"/>
		<stop  offset="0.9841" style="stop-color:#F2F2F2"/>
	</radialGradient>
	<circle class="st10" cx="1945" cy="547.3" r="264.2"/>
	<path class="st4" d="M2178.1,475.4c0,165.6-134.3,299.9-299.9,299.9c-165.6,0-299.9-134.3-299.9-299.9
		c0-125.2,76.7-232.4,185.6-277.4c35.2-14.5,73.8-22.5,114.3-22.5c40.5,0,79.1,8,114.3,22.5C2101.4,242.9,2178.1,350.2,2178.1,475.4
		z"/>
	<g>
		<g>
			<path class="st2" d="M1878.1,844.5v-11.2c197.4,0,357.9-160.6,357.9-357.9h11.2c0,98.6-38.4,191.3-108.1,261
				C2069.4,806.1,1976.7,844.5,1878.1,844.5z"/>
		</g>
	</g>
	<g>
		<g>
			<path class="st2" d="M1520.2,475.4H1509c0-98.6,38.4-191.3,108.1-261c69.7-69.7,162.4-108.1,261-108.1v11.2
				C1680.8,117.5,1520.2,278,1520.2,475.4z"/>
		</g>
	</g>
	<polygon class="st2" points="1914.8,111.9 1878.1,90.7 1878.1,111.9 1878.1,133 	"/>
	<polygon class="st2" points="1841.5,838.9 1878.1,817.7 1878.1,838.9 1878.1,860 	"/>
	<path class="st11" d="M1992.4,198v138.2c0,63.1-51.2,114.3-114.3,114.3c-63.1,0-114.3-51.2-114.3-114.3V198
		c35.2-14.5,73.8-22.5,114.3-22.5C1918.6,175.5,1957.2,183.5,1992.4,198z"/>
	<radialGradient id="SVGID_5_" cx="2671.949" cy="547.257" r="264.1545" gradientUnits="userSpaceOnUse">
		<stop  offset="0.1958" style="stop-color:#000000"/>
		<stop  offset="0.9841" style="stop-color:#F2F2F2"/>
	</radialGradient>
	<circle class="st12" cx="2671.9" cy="547.3" r="264.2"/>
	<path class="st4" d="M2905,475.4c0,165.6-134.3,299.9-299.9,299.9c-165.6,0-299.9-134.3-299.9-299.9
		c0-125.2,76.7-232.4,185.6-277.4c35.2-14.5,73.8-22.5,114.3-22.5c40.5,0,79.1,8,114.3,22.5C2828.4,242.9,2905,350.2,2905,475.4z"/>
	<g>
		<g>
			<path class="st2" d="M2605.1,844.5v-11.2c197.4,0,357.9-160.6,357.9-357.9h11.2c0,98.6-38.4,191.3-108.1,261
				C2796.4,806.1,2703.7,844.5,2605.1,844.5z"/>
		</g>
	</g>
	<g>
		<g>
			<path class="st2" d="M2247.2,475.4H2236c0-98.6,38.4-191.3,108.1-261c69.7-69.7,162.4-108.1,261-108.1v11.2
				C2407.8,117.5,2247.2,278,2247.2,475.4z"/>
		</g>
	</g>
	<polygon class="st2" points="2641.8,111.9 2605.1,90.7 2605.1,111.9 2605.1,133 	"/>
	<polygon class="st2" points="2568.5,838.9 2605.1,817.7 2605.1,838.9 2605.1,860 	"/>
	<path class="st2" d="M2719.4,198v138.2c0,63.1-51.2,114.3-114.3,114.3c-63.1,0-114.3-51.2-114.3-114.3V198
		c35.2-14.5,73.8-22.5,114.3-22.5C2645.6,175.5,2684.2,183.5,2719.4,198z"/>
</g>
<path class="st4" d="M377.5,322.3l-6.2,6.2l11.9,11.9l20.7-20.7l-6.2-6.2L383.2,328L377.5,322.3z"/>
<path class="st4" d="M348,325.4c0,21.8,17.7,39.6,39.6,39.6c21.8,0,39.6-17.7,39.6-39.6c0-1.1-0.1-2.2-0.1-3.3
	c0.6,0.2,1.2,0.3,1.9,0.5c8,1.9,16.5,1,22.4-4.9l12.4-12.4c7.6-7.6,7.6-20.9,0.3-34l26.4-20.6c9.4-7.3,10.3-21.3,1.9-29.8
	c-8.5-8.5-22.5-7.6-29.8,1.8l-20.6,26.4c-13.1-7.3-26.4-7.3-34,0.3l-12.4,12.4c-5.3,5.3-7,13.2-4.9,22.4c0.1,0.6,0.3,1.2,0.5,1.9
	c-1.1-0.1-2.2-0.1-3.3-0.1C365.7,285.9,348,303.6,348,325.4z M469.3,228.1c4.1-5.3,11.9-5.8,16.6-1c4.7,4.7,4.2,12.5-1,16.7
	l-41.3,32.3c-3.3-0.6-6-3.2-6.6-6.6L469.3,228.1z M436.2,256.1l-8.3,10.4v1.5c0,9.3,7.7,17,17,17h1.5l10.4-8.3
	c4.7,9.1,5,17.9,0.5,22.3c-2.2,2.2-5.3,3.2-8.9,3.2c-7.6,0-17.3-4.5-25.3-12.5c-6.1-6.1-10.3-13.2-11.9-20
	c-1.4-6.1-0.5-11.1,2.5-14.2C418.4,251.1,427.2,251.4,436.2,256.1z M402.1,267.4c0.9,8.6,5.5,19.2,14.9,28.6
	c7.6,7.6,18,13.9,28.6,14.9c-0.4,0.2-4,5.6-14.8,3.1c-6.8-1.6-13.9-5.8-20-11.9c-6.1-6.1-10.3-13.2-11.9-20
	C396.4,271.4,401.9,267.8,402.1,267.4z M404.6,308.4c4,4,8.3,7.3,12.9,9.8c0.6,2.4,0.9,4.8,0.9,7.3c0,17-13.8,30.8-30.8,30.8
	s-30.8-13.8-30.8-30.8c0-17,13.8-30.8,30.8-30.8c2.5,0,4.9,0.3,7.3,0.9C397.3,300.1,400.6,304.5,404.6,308.4z"/>
<g>
	<path class="st4" d="M1126.8,328.3c0-33.1,0-37.2,0-37.2c-0.1,0-1,0-12.5,0c-2.4,0-4.4-1.8-4.5-4.2c-0.1-2.5,1.9-4.6,4.4-4.6
		c11.6,0,12.5,0,12.6,0c0,0,0-3.7,0-32.5c0-2.4,2-4.4,4.4-4.4h49.5c-11.6-12.1-27.8-19.3-45.4-19.3c-34.9,0-63.3,28.3-63.3,63
		s28.4,63,63.3,63c17.6,0,33.8-7.3,45.4-19.3h-49.5C1128.8,332.7,1126.8,330.7,1126.8,328.3L1126.8,328.3z M1109.5,263.5h6.9
		c2.4,0,4.4,1.8,4.5,4.2c0.1,2.5-1.9,4.6-4.4,4.6h-6.9c-2.4,0-4.4-1.8-4.5-4.2C1105,265.6,1107,263.5,1109.5,263.5z M1114.2,309.8
		h-13.9c-2.4,0-4.4-1.8-4.5-4.2c-0.1-2.5,1.9-4.6,4.4-4.6h13.9c2.4,0,4.4,1.8,4.5,4.2C1118.7,307.7,1116.7,309.8,1114.2,309.8z"/>
	<path class="st4" d="M1216.1,254.1h-74.9l38,29.3L1216.1,254.1z"/>
	<path class="st4" d="M1182,292.4c-1.6,1.3-3.8,1.3-5.4,0l-41-31.6v58.6c0,2.4,2,4.4,4.4,4.4h77.6c2.4,0,4.4-2,4.4-4.4v-58.8
		L1182,292.4z"/>
</g>
<g>
	<path class="st4" d="M1855.8,328.3c0-33.1,0-37.2,0-37.2c-0.1,0-1,0-12.5,0c-2.4,0-4.4-1.8-4.5-4.2c-0.1-2.5,1.9-4.6,4.4-4.6
		c11.6,0,12.5,0,12.6,0c0,0,0-3.7,0-32.5c0-2.4,2-4.4,4.4-4.4h49.5c-11.6-12.1-27.8-19.3-45.4-19.3c-34.9,0-63.3,28.3-63.3,63
		s28.4,63,63.3,63c17.6,0,33.8-7.3,45.4-19.3h-49.5C1857.8,332.7,1855.8,330.7,1855.8,328.3L1855.8,328.3z M1838.5,263.5h6.9
		c2.4,0,4.4,1.8,4.5,4.2c0.1,2.5-1.9,4.6-4.4,4.6h-6.9c-2.4,0-4.4-1.8-4.5-4.2C1834,265.6,1836,263.5,1838.5,263.5z M1843.2,309.8
		h-13.9c-2.4,0-4.4-1.8-4.5-4.2c-0.1-2.5,1.9-4.6,4.4-4.6h13.9c2.4,0,4.4,1.8,4.5,4.2C1847.7,307.7,1845.7,309.8,1843.2,309.8z"/>
	<path class="st4" d="M1945.1,254.1h-74.9l38,29.3L1945.1,254.1z"/>
	<path class="st4" d="M1911,292.4c-1.6,1.3-3.8,1.3-5.4,0l-41-31.6v58.6c0,2.4,2,4.4,4.4,4.4h77.6c2.4,0,4.4-2,4.4-4.4v-58.8
		L1911,292.4z"/>
</g>
<g>
	<g>
		<path class="st4" d="M2652,248c-12.3-12.3-28.6-19-46-19s-33.7,6.8-46,19c-12.3,12.3-19,28.6-19,46s6.8,33.7,19,46
			c12.3,12.3,28.6,19,46,19s33.7-6.8,46-19c12.3-12.3,19-28.6,19-46S2664.2,260.3,2652,248z M2606,246.8c7.7,0,14,6.3,14,14
			c0,7.7-6.3,14-14,14s-14-6.3-14-14C2592,253,2598.3,246.8,2606,246.8z M2623.8,335.6h-35.5V328h7.6v-38.1h-7.6v-7.6h27.9V328h7.6
			V335.6z"/>
	</g>
</g>
<path class="st4" d="M3402.1,261.6l-70.6-24.9c-0.9-0.3-2-0.3-2.9,0l-70.6,24.9c-1.8,0.6-2.9,2.3-2.9,4.1c0,1.9,1.2,3.5,2.9,4.1
	l70.6,25.1c0.5,0.2,1,0.3,1.5,0.3c0.5,0,1-0.1,1.5-0.3l70.6-25.1c1.8-0.6,2.9-2.3,2.9-4.1C3405,263.9,3403.8,262.2,3402.1,261.6z"/>
<path class="st4" d="M3394.4,320.3v-38.3l-8.8,3.1v35.2c-2.6,1.5-4.4,4.4-4.4,7.7c0,3.3,1.8,6.1,4.4,7.7v21.6c0,2.4,2,4.4,4.4,4.4
	c2.4,0,4.4-2,4.4-4.4v-21.6c2.6-1.5,4.4-4.4,4.4-7.7C3398.9,324.6,3397.1,321.8,3394.4,320.3z"/>
<path class="st4" d="M3330,304c-1.5,0-3-0.3-4.4-0.8l-39.7-14.1v19.3c0,4.7,4.9,8.7,14.7,11.9c8.5,2.8,18.9,4.3,29.4,4.3
	s21-1.5,29.4-4.3c9.7-3.2,14.7-7.2,14.7-11.9v-19.3l-39.7,14.1C3333,303.8,3331.5,304,3330,304z"/>
<g id="affiliation-text">
	<path class="st13" d="M318.8,503.6h-10l-1.6,4.7h-8.3l10.4-28.2h9.1l10.3,28.2h-8.3L318.8,503.6z M316.8,497.7l-3-9.2l-3.1,9.2
		H316.8z"/>
	<path class="st13" d="M350.2,480v6.3h-11.4v5h8.5v5.9h-8.5v11.1H331V480H350.2z"/>
	<path class="st13" d="M372.7,480v6.3h-11.4v5h8.5v5.9h-8.5v11.1h-7.9V480H372.7z"/>
	<path class="st13" d="M383.8,480v28.3h-7.9V480H383.8z"/>
	<path class="st13" d="M396,502.3h8.8v6h-16.7V480h7.9V502.3z"/>
	<path class="st13" d="M415.7,480v28.3h-7.9V480H415.7z"/>
	<path class="st13" d="M438,503.6h-10l-1.6,4.7h-8.3l10.4-28.2h9.1l10.3,28.2h-8.3L438,503.6z M436,497.7l-3-9.2l-3.1,9.2H436z"/>
	<path class="st13" d="M471.5,480v6.3h-7.6v22H456v-22h-7.6V480H471.5z"/>
	<path class="st13" d="M482,480v28.3h-7.9V480H482z"/>
	<path class="st13" d="M507.2,481.4c2.2,1.2,3.9,3,5.2,5.2s1.9,4.7,1.9,7.5c0,2.8-0.6,5.3-1.9,7.5c-1.3,2.2-3,3.9-5.2,5.2
		c-2.2,1.2-4.6,1.9-7.3,1.9c-2.6,0-5.1-0.6-7.3-1.9c-2.2-1.2-4-3-5.2-5.2c-1.3-2.2-1.9-4.7-1.9-7.5c0-2.8,0.6-5.3,1.9-7.5
		c1.3-2.2,3-3.9,5.2-5.2c2.2-1.2,4.6-1.9,7.3-1.9C502.6,479.5,505,480.2,507.2,481.4z M495.2,488.8c-1.1,1.3-1.7,3.1-1.7,5.3
		c0,2.2,0.6,3.9,1.7,5.2s2.7,2,4.7,2c2,0,3.5-0.7,4.7-2c1.1-1.3,1.7-3.1,1.7-5.2c0-2.2-0.6-4-1.7-5.3c-1.1-1.3-2.7-1.9-4.7-1.9
		S496.4,487.5,495.2,488.8z"/>
	<path class="st13" d="M544,508.3h-7.9l-10.4-15.8v15.8h-7.9V480h7.9l10.4,16v-16h7.9V508.3z"/>
	<path class="st13" d="M369.4,529.4c2.2,1.2,3.9,3,5.2,5.2s1.9,4.7,1.9,7.5c0,2.8-0.6,5.3-1.9,7.5c-1.3,2.2-3,3.9-5.2,5.2
		c-2.2,1.2-4.6,1.9-7.3,1.9c-2.6,0-5.1-0.6-7.3-1.9c-2.2-1.2-4-3-5.2-5.2c-1.3-2.2-1.9-4.7-1.9-7.5c0-2.8,0.6-5.3,1.9-7.5
		c1.3-2.2,3-3.9,5.2-5.2c2.2-1.2,4.6-1.9,7.3-1.9C364.8,527.5,367.2,528.2,369.4,529.4z M357.4,536.8c-1.1,1.3-1.7,3.1-1.7,5.3
		c0,2.2,0.6,3.9,1.7,5.2s2.7,2,4.7,2c2,0,3.5-0.7,4.7-2c1.1-1.3,1.7-3.1,1.7-5.2c0-2.2-0.6-4-1.7-5.3c-1.1-1.3-2.7-1.9-4.7-1.9
		S358.5,535.5,357.4,536.8z"/>
	<path class="st13" d="M394.4,556.3l-5.7-10.4h-0.8v10.4H380V528h12.4c2.3,0,4.2,0.4,5.8,1.2c1.6,0.8,2.8,1.9,3.6,3.3
		s1.2,2.9,1.2,4.7c0,2-0.5,3.7-1.6,5.1s-2.7,2.5-4.7,3.1l6.4,11H394.4z M387.9,540.6h3.9c2.2,0,3.3-1,3.3-3c0-0.9-0.3-1.7-0.8-2.2
		c-0.5-0.5-1.4-0.8-2.5-0.8h-3.9V540.6z"/>
	<path class="st13" d="M430.4,549.4c-1.2,2.1-2.9,3.8-5.1,5.1c-2.2,1.2-4.8,1.8-7.8,1.8h-11.3V528h11.3c3,0,5.6,0.6,7.8,1.8
		s3.9,2.8,5.1,5s1.8,4.6,1.8,7.3C432.2,544.8,431.5,547.3,430.4,549.4z M422.2,547.4c1.3-1.3,2-3,2-5.3c0-2.3-0.7-4-2-5.3
		c-1.3-1.3-3.2-1.9-5.5-1.9H414v14.4h2.7C419,549.3,420.9,548.6,422.2,547.4z"/>
	<path class="st13" d="M443.5,534.3v4.7h9.2v6h-9.2v5.1h10.4v6.3h-18.2V528h18.2v6.3H443.5z"/>
	<path class="st13" d="M471.9,556.3l-5.7-10.4h-0.8v10.4h-7.9V528h12.4c2.3,0,4.2,0.4,5.8,1.2c1.6,0.8,2.8,1.9,3.6,3.3
		s1.2,2.9,1.2,4.7c0,2-0.5,3.7-1.6,5.1s-2.7,2.5-4.7,3.1l6.4,11H471.9z M465.4,540.6h3.9c2.2,0,3.3-1,3.3-3c0-0.9-0.3-1.7-0.8-2.2
		c-0.5-0.5-1.4-0.8-2.5-0.8h-3.9V540.6z"/>
	<path class="st13" d="M503.5,552.4c-0.8,1.3-2,2.3-3.5,3c-1.5,0.7-3.4,1.1-5.6,1.1c-3.3,0-6-0.8-8.1-2.4c-2.1-1.6-3.3-3.8-3.5-6.7
		h8.4c0.1,1,0.4,1.7,0.9,2.2c0.5,0.5,1.2,0.7,2,0.7c0.7,0,1.2-0.2,1.6-0.5c0.4-0.3,0.6-0.8,0.6-1.5c0-0.9-0.4-1.5-1.2-2
		c-0.8-0.5-2-1-3.7-1.5c-1.8-0.6-3.3-1.2-4.4-1.8c-1.2-0.6-2.2-1.5-3-2.6c-0.8-1.2-1.3-2.7-1.3-4.5c0-1.8,0.5-3.3,1.4-4.5
		c0.9-1.3,2.1-2.2,3.7-2.9c1.6-0.7,3.4-1,5.4-1c3.3,0,5.8,0.8,7.8,2.3c1.9,1.5,3,3.7,3.2,6.5h-8.4c-0.1-0.9-0.4-1.5-0.8-2
		s-1-0.6-1.7-0.6c-0.6,0-1.1,0.2-1.4,0.5c-0.3,0.3-0.5,0.8-0.5,1.4c0,0.8,0.4,1.4,1.1,1.9c0.8,0.5,2,1,3.6,1.5
		c1.8,0.6,3.3,1.3,4.4,1.9c1.2,0.6,2.2,1.5,3,2.7s1.3,2.7,1.3,4.6C504.7,549.7,504.3,551.1,503.5,552.4z"/>
</g>
<g id="slas-text">
	<path class="st13" d="M1022,501.4c-1.2,2.1-2.9,3.8-5.1,5.1c-2.2,1.2-4.8,1.8-7.8,1.8h-11.3V480h11.3c3,0,5.6,0.6,7.8,1.8
		s3.9,2.8,5.1,5s1.8,4.6,1.8,7.3C1023.8,496.8,1023.2,499.3,1022,501.4z M1013.8,499.4c1.3-1.3,2-3,2-5.3c0-2.3-0.7-4-2-5.3
		c-1.3-1.3-3.2-1.9-5.5-1.9h-2.7v14.4h2.7C1010.7,501.3,1012.5,500.6,1013.8,499.4z"/>
	<path class="st13" d="M1035.2,480v28.3h-7.9V480H1035.2z"/>
	<path class="st13" d="M1059.5,504.4c-0.8,1.3-2,2.3-3.5,3c-1.5,0.7-3.4,1.1-5.6,1.1c-3.3,0-6-0.8-8.1-2.4c-2.1-1.6-3.3-3.8-3.5-6.7
		h8.4c0.1,1,0.4,1.7,0.9,2.2c0.5,0.5,1.2,0.7,2,0.7c0.7,0,1.2-0.2,1.6-0.5c0.4-0.3,0.6-0.8,0.6-1.5c0-0.9-0.4-1.5-1.2-2
		c-0.8-0.5-2-1-3.7-1.5c-1.8-0.6-3.3-1.2-4.4-1.8c-1.2-0.6-2.2-1.5-3-2.6c-0.8-1.2-1.3-2.7-1.3-4.5c0-1.8,0.5-3.3,1.4-4.5
		c0.9-1.3,2.1-2.2,3.7-2.9c1.6-0.7,3.4-1,5.4-1c3.3,0,5.8,0.8,7.8,2.3c1.9,1.5,3,3.7,3.2,6.5h-8.4c-0.1-0.9-0.4-1.5-0.8-2
		s-1-0.6-1.7-0.6c-0.6,0-1.1,0.2-1.4,0.5c-0.3,0.3-0.5,0.8-0.5,1.4c0,0.8,0.4,1.4,1.1,1.9c0.8,0.5,2,1,3.6,1.5
		c1.8,0.6,3.3,1.3,4.4,1.9c1.2,0.6,2.2,1.5,3,2.7s1.3,2.7,1.3,4.6C1060.7,501.7,1060.3,503.1,1059.5,504.4z"/>
	<path class="st13" d="M1084,504.4c-0.8,1.3-2,2.3-3.5,3c-1.5,0.7-3.4,1.1-5.6,1.1c-3.3,0-6-0.8-8.1-2.4c-2.1-1.6-3.3-3.8-3.5-6.7
		h8.4c0.1,1,0.4,1.7,0.9,2.2c0.5,0.5,1.2,0.7,2,0.7c0.7,0,1.2-0.2,1.6-0.5c0.4-0.3,0.6-0.8,0.6-1.5c0-0.9-0.4-1.5-1.2-2
		c-0.8-0.5-2-1-3.7-1.5c-1.8-0.6-3.3-1.2-4.4-1.8c-1.2-0.6-2.2-1.5-3-2.6c-0.8-1.2-1.3-2.7-1.3-4.5c0-1.8,0.5-3.3,1.4-4.5
		c0.9-1.3,2.1-2.2,3.7-2.9c1.6-0.7,3.4-1,5.4-1c3.3,0,5.8,0.8,7.8,2.3c1.9,1.5,3,3.7,3.2,6.5h-8.4c-0.1-0.9-0.4-1.5-0.8-2
		s-1-0.6-1.7-0.6c-0.6,0-1.1,0.2-1.4,0.5c-0.3,0.3-0.5,0.8-0.5,1.4c0,0.8,0.4,1.4,1.1,1.9c0.8,0.5,2,1,3.6,1.5
		c1.8,0.6,3.3,1.3,4.4,1.9c1.2,0.6,2.2,1.5,3,2.7s1.3,2.7,1.3,4.6C1085.2,501.7,1084.8,503.1,1084,504.4z"/>
	<path class="st13" d="M1096.6,486.3v4.7h9.2v6h-9.2v5.1h10.4v6.3h-18.2V480h18.2v6.3H1096.6z"/>
	<path class="st13" d="M1143.4,480.1v28.2h-7.8v-16l-5.2,16h-6.8l-5.2-16v16h-7.9v-28.2h9.6l7,18.3l6.8-18.3H1143.4z"/>
	<path class="st13" d="M1155.7,480v28.3h-7.9V480H1155.7z"/>
	<path class="st13" d="M1186.2,508.3h-7.9l-10.4-15.8v15.8h-7.9V480h7.9l10.4,16v-16h7.9V508.3z"/>
	<path class="st13" d="M1208.4,503.6h-10l-1.6,4.7h-8.3l10.4-28.2h9.1l10.3,28.2h-8.3L1208.4,503.6z M1206.5,497.7l-3-9.2l-3.1,9.2
		H1206.5z"/>
	<path class="st13" d="M1242,480v6.3h-7.6v22h-7.8v-22h-7.6V480H1242z"/>
	<path class="st13" d="M1252.4,480v28.3h-7.9V480H1252.4z"/>
	<path class="st13" d="M1277.7,481.4c2.2,1.2,3.9,3,5.2,5.2s1.9,4.7,1.9,7.5c0,2.8-0.6,5.3-1.9,7.5c-1.3,2.2-3,3.9-5.2,5.2
		c-2.2,1.2-4.6,1.9-7.3,1.9c-2.6,0-5.1-0.6-7.3-1.9c-2.2-1.2-4-3-5.2-5.2c-1.3-2.2-1.9-4.7-1.9-7.5c0-2.8,0.6-5.3,1.9-7.5
		c1.3-2.2,3-3.9,5.2-5.2c2.2-1.2,4.6-1.9,7.3-1.9C1273.1,479.5,1275.5,480.2,1277.7,481.4z M1265.7,488.8c-1.1,1.3-1.7,3.1-1.7,5.3
		c0,2.2,0.6,3.9,1.7,5.2s2.7,2,4.7,2c2,0,3.5-0.7,4.7-2c1.1-1.3,1.7-3.1,1.7-5.2c0-2.2-0.6-4-1.7-5.3c-1.1-1.3-2.7-1.9-4.7-1.9
		S1266.9,487.5,1265.7,488.8z"/>
	<path class="st13" d="M1314.5,508.3h-7.9l-10.4-15.8v15.8h-7.9V480h7.9l10.4,16v-16h7.9V508.3z"/>
	<path class="st13" d="M1013.6,529c1.9,0.9,3.5,2.2,4.7,3.8c1.2,1.6,2,3.5,2.4,5.7h-8.3c-0.5-1.1-1.2-2-2.1-2.6
		c-1-0.6-2.1-0.9-3.3-0.9c-1.7,0-3.1,0.6-4.2,1.9c-1.1,1.3-1.6,3-1.6,5.2s0.5,3.9,1.6,5.2s2.5,2,4.2,2c1.3,0,2.4-0.3,3.3-1
		s1.7-1.5,2.1-2.6h8.3c-0.6,3.3-2.2,5.9-4.5,7.9s-5.4,2.9-9.1,2.9c-2.8,0-5.2-0.6-7.3-1.8c-2.1-1.2-3.7-2.9-4.8-5.1
		s-1.7-4.7-1.7-7.5s0.6-5.3,1.7-7.5s2.7-3.9,4.8-5.1c2.1-1.2,4.5-1.8,7.3-1.8C1009.6,527.7,1011.7,528.1,1013.6,529z"/>
	<path class="st13" d="M1045.2,529.4c2.2,1.2,3.9,3,5.2,5.2s1.9,4.7,1.9,7.5c0,2.8-0.6,5.3-1.9,7.5c-1.3,2.2-3,3.9-5.2,5.2
		c-2.2,1.2-4.6,1.9-7.3,1.9c-2.6,0-5.1-0.6-7.3-1.9c-2.2-1.2-4-3-5.2-5.2c-1.3-2.2-1.9-4.7-1.9-7.5c0-2.8,0.6-5.3,1.9-7.5
		c1.3-2.2,3-3.9,5.2-5.2c2.2-1.2,4.6-1.9,7.3-1.9C1040.6,527.5,1043,528.2,1045.2,529.4z M1033.2,536.8c-1.1,1.3-1.7,3.1-1.7,5.3
		c0,2.2,0.6,3.9,1.7,5.2s2.7,2,4.7,2c2,0,3.5-0.7,4.7-2c1.1-1.3,1.7-3.1,1.7-5.2c0-2.2-0.6-4-1.7-5.3c-1.1-1.3-2.7-1.9-4.7-1.9
		S1034.3,535.5,1033.2,536.8z"/>
	<path class="st13" d="M1082,556.3h-7.9l-10.4-15.8v15.8h-7.9V528h7.9l10.4,16v-16h7.9V556.3z"/>
	<path class="st13" d="M1107.7,528v6.3h-7.6v22h-7.8v-22h-7.6V528H1107.7z"/>
	<path class="st13" d="M1118.1,534.3v4.7h9.2v6h-9.2v5.1h10.4v6.3h-18.2V528h18.2v6.3H1118.1z"/>
	<path class="st13" d="M1158.3,556.3h-7.9l-10.4-15.8v15.8h-7.9V528h7.9l10.4,16v-16h7.9V556.3z"/>
	<path class="st13" d="M1183.9,528v6.3h-7.6v22h-7.8v-22h-7.6V528H1183.9z"/>
	<path class="st13" d="M1210.4,539.2v6.5h-18.1v-6.5H1210.4z"/>
	<path class="st13" d="M1243.6,552.4c-0.8,1.3-2,2.3-3.5,3c-1.5,0.7-3.4,1.1-5.6,1.1c-3.3,0-6-0.8-8.1-2.4c-2.1-1.6-3.3-3.8-3.5-6.7
		h8.4c0.1,1,0.4,1.7,0.9,2.2c0.5,0.5,1.2,0.7,2,0.7c0.7,0,1.2-0.2,1.6-0.5c0.4-0.3,0.6-0.8,0.6-1.5c0-0.9-0.4-1.5-1.2-2
		c-0.8-0.5-2-1-3.7-1.5c-1.8-0.6-3.3-1.2-4.4-1.8c-1.2-0.6-2.2-1.5-3-2.6c-0.8-1.2-1.3-2.7-1.3-4.5c0-1.8,0.5-3.3,1.4-4.5
		c0.9-1.3,2.1-2.2,3.7-2.9c1.6-0.7,3.4-1,5.4-1c3.3,0,5.8,0.8,7.8,2.3c1.9,1.5,3,3.7,3.2,6.5h-8.4c-0.1-0.9-0.4-1.5-0.8-2
		s-1-0.6-1.7-0.6c-0.6,0-1.1,0.2-1.4,0.5c-0.3,0.3-0.5,0.8-0.5,1.4c0,0.8,0.4,1.4,1.1,1.9c0.8,0.5,2,1,3.6,1.5
		c1.8,0.6,3.3,1.3,4.4,1.9c1.2,0.6,2.2,1.5,3,2.7s1.3,2.7,1.3,4.6C1244.8,549.7,1244.4,551.1,1243.6,552.4z"/>
	<path class="st13" d="M1256.2,550.3h8.8v6h-16.7V528h7.9V550.3z"/>
	<path class="st13" d="M1285.8,551.6h-10l-1.6,4.7h-8.3l10.4-28.2h9.1l10.3,28.2h-8.3L1285.8,551.6z M1283.9,545.7l-3-9.2l-3.1,9.2
		H1283.9z"/>
	<path class="st13" d="M1318,552.4c-0.8,1.3-2,2.3-3.5,3c-1.5,0.7-3.4,1.1-5.6,1.1c-3.3,0-6-0.8-8.1-2.4c-2.1-1.6-3.3-3.8-3.5-6.7
		h8.4c0.1,1,0.4,1.7,0.9,2.2c0.5,0.5,1.2,0.7,2,0.7c0.7,0,1.2-0.2,1.6-0.5c0.4-0.3,0.6-0.8,0.6-1.5c0-0.9-0.4-1.5-1.2-2
		c-0.8-0.5-2-1-3.7-1.5c-1.8-0.6-3.3-1.2-4.4-1.8c-1.2-0.6-2.2-1.5-3-2.6c-0.8-1.2-1.3-2.7-1.3-4.5c0-1.8,0.5-3.3,1.4-4.5
		c0.9-1.3,2.1-2.2,3.7-2.9c1.6-0.7,3.4-1,5.4-1c3.3,0,5.8,0.8,7.8,2.3c1.9,1.5,3,3.7,3.2,6.5h-8.4c-0.1-0.9-0.4-1.5-0.8-2
		s-1-0.6-1.7-0.6c-0.6,0-1.1,0.2-1.4,0.5c-0.3,0.3-0.5,0.8-0.5,1.4c0,0.8,0.4,1.4,1.1,1.9c0.8,0.5,2,1,3.6,1.5
		c1.8,0.6,3.3,1.3,4.4,1.9c1.2,0.6,2.2,1.5,3,2.7s1.3,2.7,1.3,4.6C1319.2,549.7,1318.8,551.1,1318,552.4z"/>
</g>
<g id="nas-text">
	<path class="st13" d="M1747,501.4c-1.2,2.1-2.9,3.8-5.1,5.1c-2.2,1.2-4.8,1.8-7.8,1.8h-11.3V480h11.3c3,0,5.6,0.6,7.8,1.8
		s3.9,2.8,5.1,5s1.8,4.6,1.8,7.3C1748.8,496.8,1748.2,499.3,1747,501.4z M1738.8,499.4c1.3-1.3,2-3,2-5.3c0-2.3-0.7-4-2-5.3
		c-1.3-1.3-3.2-1.9-5.5-1.9h-2.7v14.4h2.7C1735.7,501.3,1737.5,500.6,1738.8,499.4z"/>
	<path class="st13" d="M1760.2,480v28.3h-7.9V480H1760.2z"/>
	<path class="st13" d="M1784.5,504.4c-0.8,1.3-2,2.3-3.5,3c-1.5,0.7-3.4,1.1-5.6,1.1c-3.3,0-6-0.8-8.1-2.4c-2.1-1.6-3.3-3.8-3.5-6.7
		h8.4c0.1,1,0.4,1.7,0.9,2.2c0.5,0.5,1.2,0.7,2,0.7c0.7,0,1.2-0.2,1.6-0.5c0.4-0.3,0.6-0.8,0.6-1.5c0-0.9-0.4-1.5-1.2-2
		c-0.8-0.5-2-1-3.7-1.5c-1.8-0.6-3.3-1.2-4.4-1.8c-1.2-0.6-2.2-1.5-3-2.6c-0.8-1.2-1.3-2.7-1.3-4.5c0-1.8,0.5-3.3,1.4-4.5
		c0.9-1.3,2.1-2.2,3.7-2.9c1.6-0.7,3.4-1,5.4-1c3.3,0,5.8,0.8,7.8,2.3c1.9,1.5,3,3.7,3.2,6.5h-8.4c-0.1-0.9-0.4-1.5-0.8-2
		s-1-0.6-1.7-0.6c-0.6,0-1.1,0.2-1.4,0.5c-0.3,0.3-0.5,0.8-0.5,1.4c0,0.8,0.4,1.4,1.1,1.9c0.8,0.5,2,1,3.6,1.5
		c1.8,0.6,3.3,1.3,4.4,1.9c1.2,0.6,2.2,1.5,3,2.7s1.3,2.7,1.3,4.6C1785.7,501.7,1785.3,503.1,1784.5,504.4z"/>
	<path class="st13" d="M1809,504.4c-0.8,1.3-2,2.3-3.5,3c-1.5,0.7-3.4,1.1-5.6,1.1c-3.3,0-6-0.8-8.1-2.4c-2.1-1.6-3.3-3.8-3.5-6.7
		h8.4c0.1,1,0.4,1.7,0.9,2.2c0.5,0.5,1.2,0.7,2,0.7c0.7,0,1.2-0.2,1.6-0.5c0.4-0.3,0.6-0.8,0.6-1.5c0-0.9-0.4-1.5-1.2-2
		c-0.8-0.5-2-1-3.7-1.5c-1.8-0.6-3.3-1.2-4.4-1.8c-1.2-0.6-2.2-1.5-3-2.6c-0.8-1.2-1.3-2.7-1.3-4.5c0-1.8,0.5-3.3,1.4-4.5
		c0.9-1.3,2.1-2.2,3.7-2.9c1.6-0.7,3.4-1,5.4-1c3.3,0,5.8,0.8,7.8,2.3c1.9,1.5,3,3.7,3.2,6.5h-8.4c-0.1-0.9-0.4-1.5-0.8-2
		s-1-0.6-1.7-0.6c-0.6,0-1.1,0.2-1.4,0.5c-0.3,0.3-0.5,0.8-0.5,1.4c0,0.8,0.4,1.4,1.1,1.9c0.8,0.5,2,1,3.6,1.5
		c1.8,0.6,3.3,1.3,4.4,1.9c1.2,0.6,2.2,1.5,3,2.7s1.3,2.7,1.3,4.6C1810.2,501.7,1809.8,503.1,1809,504.4z"/>
	<path class="st13" d="M1821.6,486.3v4.7h9.2v6h-9.2v5.1h10.4v6.3h-18.2V480h18.2v6.3H1821.6z"/>
	<path class="st13" d="M1868.4,480.1v28.2h-7.8v-16l-5.2,16h-6.8l-5.2-16v16h-7.9v-28.2h9.6l7,18.3l6.8-18.3H1868.4z"/>
	<path class="st13" d="M1880.7,480v28.3h-7.9V480H1880.7z"/>
	<path class="st13" d="M1911.2,508.3h-7.9l-10.4-15.8v15.8h-7.9V480h7.9l10.4,16v-16h7.9V508.3z"/>
	<path class="st13" d="M1933.4,503.6h-10l-1.6,4.7h-8.3l10.4-28.2h9.1l10.3,28.2h-8.3L1933.4,503.6z M1931.5,497.7l-3-9.2l-3.1,9.2
		H1931.5z"/>
	<path class="st13" d="M1967,480v6.3h-7.6v22h-7.8v-22h-7.6V480H1967z"/>
	<path class="st13" d="M1977.4,480v28.3h-7.9V480H1977.4z"/>
	<path class="st13" d="M2002.7,481.4c2.2,1.2,3.9,3,5.2,5.2s1.9,4.7,1.9,7.5c0,2.8-0.6,5.3-1.9,7.5c-1.3,2.2-3,3.9-5.2,5.2
		c-2.2,1.2-4.6,1.9-7.3,1.9c-2.6,0-5.1-0.6-7.3-1.9c-2.2-1.2-4-3-5.2-5.2c-1.3-2.2-1.9-4.7-1.9-7.5c0-2.8,0.6-5.3,1.9-7.5
		c1.3-2.2,3-3.9,5.2-5.2c2.2-1.2,4.6-1.9,7.3-1.9C1998.1,479.5,2000.5,480.2,2002.7,481.4z M1990.7,488.8c-1.1,1.3-1.7,3.1-1.7,5.3
		c0,2.2,0.6,3.9,1.7,5.2s2.7,2,4.7,2c2,0,3.5-0.7,4.7-2c1.1-1.3,1.7-3.1,1.7-5.2c0-2.2-0.6-4-1.7-5.3c-1.1-1.3-2.7-1.9-4.7-1.9
		S1991.9,487.5,1990.7,488.8z"/>
	<path class="st13" d="M2039.5,508.3h-7.9l-10.4-15.8v15.8h-7.9V480h7.9l10.4,16v-16h7.9V508.3z"/>
	<path class="st13" d="M1745.5,529c1.9,0.9,3.5,2.2,4.7,3.8c1.2,1.6,2,3.5,2.4,5.7h-8.3c-0.5-1.1-1.2-2-2.1-2.6
		c-1-0.6-2.1-0.9-3.3-0.9c-1.7,0-3.1,0.6-4.2,1.9c-1.1,1.3-1.6,3-1.6,5.2s0.5,3.9,1.6,5.2s2.5,2,4.2,2c1.3,0,2.4-0.3,3.3-1
		s1.7-1.5,2.1-2.6h8.3c-0.6,3.3-2.2,5.9-4.5,7.9s-5.4,2.9-9.1,2.9c-2.8,0-5.2-0.6-7.3-1.8c-2.1-1.2-3.7-2.9-4.8-5.1
		s-1.7-4.7-1.7-7.5s0.6-5.3,1.7-7.5s2.7-3.9,4.8-5.1c2.1-1.2,4.5-1.8,7.3-1.8C1741.4,527.7,1743.6,528.1,1745.5,529z"/>
	<path class="st13" d="M1777.1,529.4c2.2,1.2,3.9,3,5.2,5.2s1.9,4.7,1.9,7.5c0,2.8-0.6,5.3-1.9,7.5c-1.3,2.2-3,3.9-5.2,5.2
		c-2.2,1.2-4.6,1.9-7.3,1.9c-2.6,0-5.1-0.6-7.3-1.9c-2.2-1.2-4-3-5.2-5.2c-1.3-2.2-1.9-4.7-1.9-7.5c0-2.8,0.6-5.3,1.9-7.5
		c1.3-2.2,3-3.9,5.2-5.2c2.2-1.2,4.6-1.9,7.3-1.9C1772.4,527.5,1774.9,528.2,1777.1,529.4z M1765,536.8c-1.1,1.3-1.7,3.1-1.7,5.3
		c0,2.2,0.6,3.9,1.7,5.2s2.7,2,4.7,2c2,0,3.5-0.7,4.7-2c1.1-1.3,1.7-3.1,1.7-5.2c0-2.2-0.6-4-1.7-5.3c-1.1-1.3-2.7-1.9-4.7-1.9
		S1766.2,535.5,1765,536.8z"/>
	<path class="st13" d="M1813.8,556.3h-7.9l-10.4-15.8v15.8h-7.9V528h7.9l10.4,16v-16h7.9V556.3z"/>
	<path class="st13" d="M1839.5,528v6.3h-7.6v22h-7.8v-22h-7.6V528H1839.5z"/>
	<path class="st13" d="M1850,534.3v4.7h9.2v6h-9.2v5.1h10.4v6.3h-18.2V528h18.2v6.3H1850z"/>
	<path class="st13" d="M1890.1,556.3h-7.9l-10.4-15.8v15.8h-7.9V528h7.9l10.4,16v-16h7.9V556.3z"/>
	<path class="st13" d="M1915.8,528v6.3h-7.6v22h-7.8v-22h-7.6V528H1915.8z"/>
	<path class="st13" d="M1942.3,539.2v6.5h-18.1v-6.5H1942.3z"/>
	<path class="st13" d="M1981.7,556.3h-7.9l-10.4-15.8v15.8h-7.9V528h7.9l10.4,16v-16h7.9V556.3z"/>
	<path class="st13" d="M2004,551.6h-10l-1.6,4.7h-8.3l10.4-28.2h9.1l10.3,28.2h-8.3L2004,551.6z M2002,545.7l-3-9.2l-3.1,9.2H2002z"
		/>
	<path class="st13" d="M2036.1,552.4c-0.8,1.3-2,2.3-3.5,3c-1.5,0.7-3.4,1.1-5.6,1.1c-3.3,0-6-0.8-8.1-2.4c-2.1-1.6-3.3-3.8-3.5-6.7
		h8.4c0.1,1,0.4,1.7,0.9,2.2c0.5,0.5,1.2,0.7,2,0.7c0.7,0,1.2-0.2,1.6-0.5c0.4-0.3,0.6-0.8,0.6-1.5c0-0.9-0.4-1.5-1.2-2
		c-0.8-0.5-2-1-3.7-1.5c-1.8-0.6-3.3-1.2-4.4-1.8c-1.2-0.6-2.2-1.5-3-2.6c-0.8-1.2-1.3-2.7-1.3-4.5c0-1.8,0.5-3.3,1.4-4.5
		c0.9-1.3,2.1-2.2,3.7-2.9c1.6-0.7,3.4-1,5.4-1c3.3,0,5.8,0.8,7.8,2.3c1.9,1.5,3,3.7,3.2,6.5h-8.4c-0.1-0.9-0.4-1.5-0.8-2
		s-1-0.6-1.7-0.6c-0.6,0-1.1,0.2-1.4,0.5c-0.3,0.3-0.5,0.8-0.5,1.4c0,0.8,0.4,1.4,1.1,1.9c0.8,0.5,2,1,3.6,1.5
		c1.8,0.6,3.3,1.3,4.4,1.9c1.2,0.6,2.2,1.5,3,2.7s1.3,2.7,1.3,4.6C2037.3,549.7,2036.9,551.1,2036.1,552.4z"/>
</g>
<g id="rti-text">
	<path class="st13" d="M2528.5,508.3l-5.7-10.4h-0.8v10.4h-7.9V480h12.4c2.3,0,4.2,0.4,5.8,1.2c1.6,0.8,2.8,1.9,3.6,3.3
		s1.2,2.9,1.2,4.7c0,2-0.5,3.7-1.6,5.1s-2.7,2.5-4.7,3.1l6.4,11H2528.5z M2522,492.6h3.9c2.2,0,3.3-1,3.3-3c0-0.9-0.3-1.7-0.8-2.2
		c-0.5-0.5-1.4-0.8-2.5-0.8h-3.9V492.6z"/>
	<path class="st13" d="M2548.1,480v28.3h-7.9V480H2548.1z"/>
	<path class="st13" d="M2574.8,482.4c2.3,1.8,3.7,4.1,4.2,7.1h-8.3c-0.4-0.8-1.1-1.4-1.9-1.8c-0.8-0.5-1.8-0.7-2.9-0.7
		c-1.9,0-3.4,0.6-4.6,1.9c-1.1,1.3-1.7,3-1.7,5.2c0,2.5,0.6,4.3,1.8,5.6s3,1.9,5.3,1.9c1.3,0,2.5-0.3,3.5-1c1-0.6,1.8-1.6,2.4-2.8
		h-7.8v-5.6h14.4v7.8c-1,2.3-2.6,4.4-4.9,6c-2.2,1.7-5,2.5-8.4,2.5c-2.9,0-5.4-0.6-7.6-1.8c-2.2-1.2-3.8-2.9-5-5.1
		c-1.2-2.2-1.7-4.7-1.7-7.5s0.6-5.3,1.7-7.5c1.2-2.2,2.8-3.9,4.9-5.1c2.1-1.2,4.6-1.8,7.5-1.8
		C2569.5,479.7,2572.4,480.6,2574.8,482.4z"/>
	<path class="st13" d="M2608,480v28.3h-7.8v-11.4h-9.6v11.4h-7.9V480h7.9v10.6h9.6V480H2608z"/>
	<path class="st13" d="M2633.7,480v6.3h-7.6v22h-7.8v-22h-7.6V480H2633.7z"/>
	<path class="st13" d="M2665,480v6.3h-7.6v22h-7.8v-22h-7.6V480H2665z"/>
	<path class="st13" d="M2688.6,481.4c2.2,1.2,3.9,3,5.2,5.2s1.9,4.7,1.9,7.5c0,2.8-0.6,5.3-1.9,7.5c-1.3,2.2-3,3.9-5.2,5.2
		c-2.2,1.2-4.6,1.9-7.3,1.9c-2.6,0-5.1-0.6-7.3-1.9c-2.2-1.2-4-3-5.2-5.2c-1.3-2.2-1.9-4.7-1.9-7.5c0-2.8,0.6-5.3,1.9-7.5
		c1.3-2.2,3-3.9,5.2-5.2c2.2-1.2,4.6-1.9,7.3-1.9C2683.9,479.5,2686.4,480.2,2688.6,481.4z M2676.5,488.8c-1.1,1.3-1.7,3.1-1.7,5.3
		c0,2.2,0.6,3.9,1.7,5.2s2.7,2,4.7,2c2,0,3.5-0.7,4.7-2c1.1-1.3,1.7-3.1,1.7-5.2c0-2.2-0.6-4-1.7-5.3c-1.1-1.3-2.7-1.9-4.7-1.9
		S2677.7,487.5,2676.5,488.8z"/>
	<path class="st13" d="M2474,528v28.3h-7.9V528H2474z"/>
	<path class="st13" d="M2504.5,556.3h-7.9l-10.4-15.8v15.8h-7.9V528h7.9l10.4,16v-16h7.9V556.3z"/>
	<path class="st13" d="M2528.1,528v6.3h-11.4v5h8.5v5.9h-8.5v11.1h-7.9V528H2528.1z"/>
	<path class="st13" d="M2552.3,529.4c2.2,1.2,3.9,3,5.2,5.2s1.9,4.7,1.9,7.5c0,2.8-0.6,5.3-1.9,7.5c-1.3,2.2-3,3.9-5.2,5.2
		c-2.2,1.2-4.6,1.9-7.3,1.9c-2.6,0-5.1-0.6-7.3-1.9c-2.2-1.2-4-3-5.2-5.2c-1.3-2.2-1.9-4.7-1.9-7.5c0-2.8,0.6-5.3,1.9-7.5
		c1.3-2.2,3-3.9,5.2-5.2c2.2-1.2,4.6-1.9,7.3-1.9C2547.6,527.5,2550.1,528.2,2552.3,529.4z M2540.2,536.8c-1.1,1.3-1.7,3.1-1.7,5.3
		c0,2.2,0.6,3.9,1.7,5.2s2.7,2,4.7,2c2,0,3.5-0.7,4.7-2c1.1-1.3,1.7-3.1,1.7-5.2c0-2.2-0.6-4-1.7-5.3c-1.1-1.3-2.7-1.9-4.7-1.9
		S2541.4,535.5,2540.2,536.8z"/>
	<path class="st13" d="M2577.3,556.3l-5.7-10.4h-0.8v10.4h-7.9V528h12.4c2.3,0,4.2,0.4,5.8,1.2c1.6,0.8,2.8,1.9,3.6,3.3
		s1.2,2.9,1.2,4.7c0,2-0.5,3.7-1.6,5.1s-2.7,2.5-4.7,3.1l6.4,11H2577.3z M2570.8,540.6h3.9c2.2,0,3.3-1,3.3-3c0-0.9-0.3-1.7-0.8-2.2
		c-0.5-0.5-1.4-0.8-2.5-0.8h-3.9V540.6z"/>
	<path class="st13" d="M2621.9,528.1v28.2h-7.8v-16l-5.2,16h-6.8l-5.2-16v16h-7.9v-28.2h9.6l7,18.3l6.8-18.3H2621.9z"/>
	<path class="st13" d="M2644.1,551.6h-10l-1.6,4.7h-8.3l10.4-28.2h9.1l10.3,28.2h-8.3L2644.1,551.6z M2642.2,545.7l-3-9.2l-3.1,9.2
		H2642.2z"/>
	<path class="st13" d="M2677.7,528v6.3h-7.6v22h-7.8v-22h-7.6V528H2677.7z"/>
	<path class="st13" d="M2688.1,528v28.3h-7.9V528H2688.1z"/>
	<path class="st13" d="M2713.4,529.4c2.2,1.2,3.9,3,5.2,5.2s1.9,4.7,1.9,7.5c0,2.8-0.6,5.3-1.9,7.5c-1.3,2.2-3,3.9-5.2,5.2
		c-2.2,1.2-4.6,1.9-7.3,1.9c-2.6,0-5.1-0.6-7.3-1.9c-2.2-1.2-4-3-5.2-5.2c-1.3-2.2-1.9-4.7-1.9-7.5c0-2.8,0.6-5.3,1.9-7.5
		c1.3-2.2,3-3.9,5.2-5.2c2.2-1.2,4.6-1.9,7.3-1.9C2708.8,527.5,2711.3,528.2,2713.4,529.4z M2701.4,536.8c-1.1,1.3-1.7,3.1-1.7,5.3
		c0,2.2,0.6,3.9,1.7,5.2s2.7,2,4.7,2c2,0,3.5-0.7,4.7-2c1.1-1.3,1.7-3.1,1.7-5.2c0-2.2-0.6-4-1.7-5.3c-1.1-1.3-2.7-1.9-4.7-1.9
		S2702.6,535.5,2701.4,536.8z"/>
	<path class="st13" d="M2750.2,556.3h-7.9l-10.4-15.8v15.8h-7.9V528h7.9l10.4,16v-16h7.9V556.3z"/>
</g>
<g id="rte-text">
	<path class="st13" d="M3255.5,508.3l-5.7-10.4h-0.8v10.4h-7.9V480h12.4c2.3,0,4.2,0.4,5.8,1.2c1.6,0.8,2.8,1.9,3.6,3.3
		s1.2,2.9,1.2,4.7c0,2-0.5,3.7-1.6,5.1s-2.7,2.5-4.7,3.1l6.4,11H3255.5z M3249,492.6h3.9c2.2,0,3.3-1,3.3-3c0-0.9-0.3-1.7-0.8-2.2
		c-0.5-0.5-1.4-0.8-2.5-0.8h-3.9V492.6z"/>
	<path class="st13" d="M3275.1,480v28.3h-7.9V480H3275.1z"/>
	<path class="st13" d="M3301.8,482.4c2.3,1.8,3.7,4.1,4.2,7.1h-8.3c-0.4-0.8-1.1-1.4-1.9-1.8c-0.8-0.5-1.8-0.7-2.9-0.7
		c-1.9,0-3.4,0.6-4.6,1.9c-1.1,1.3-1.7,3-1.7,5.2c0,2.5,0.6,4.3,1.8,5.6s3,1.9,5.3,1.9c1.3,0,2.5-0.3,3.5-1c1-0.6,1.8-1.6,2.4-2.8
		h-7.8v-5.6h14.4v7.8c-1,2.3-2.6,4.4-4.9,6c-2.2,1.7-5,2.5-8.4,2.5c-2.9,0-5.4-0.6-7.6-1.8c-2.2-1.2-3.8-2.9-5-5.1
		c-1.2-2.2-1.7-4.7-1.7-7.5s0.6-5.3,1.7-7.5c1.2-2.2,2.8-3.9,4.9-5.1c2.1-1.2,4.6-1.8,7.5-1.8
		C3296.5,479.7,3299.4,480.6,3301.8,482.4z"/>
	<path class="st13" d="M3335,480v28.3h-7.8v-11.4h-9.6v11.4h-7.9V480h7.9v10.6h9.6V480H3335z"/>
	<path class="st13" d="M3360.7,480v6.3h-7.6v22h-7.8v-22h-7.6V480H3360.7z"/>
	<path class="st13" d="M3392,480v6.3h-7.6v22h-7.8v-22h-7.6V480H3392z"/>
	<path class="st13" d="M3415.6,481.4c2.2,1.2,3.9,3,5.2,5.2s1.9,4.7,1.9,7.5c0,2.8-0.6,5.3-1.9,7.5c-1.3,2.2-3,3.9-5.2,5.2
		c-2.2,1.2-4.6,1.9-7.3,1.9c-2.6,0-5.1-0.6-7.3-1.9c-2.2-1.2-4-3-5.2-5.2c-1.3-2.2-1.9-4.7-1.9-7.5c0-2.8,0.6-5.3,1.9-7.5
		c1.3-2.2,3-3.9,5.2-5.2c2.2-1.2,4.6-1.9,7.3-1.9C3410.9,479.5,3413.4,480.2,3415.6,481.4z M3403.5,488.8c-1.1,1.3-1.7,3.1-1.7,5.3
		c0,2.2,0.6,3.9,1.7,5.2s2.7,2,4.7,2c2,0,3.5-0.7,4.7-2c1.1-1.3,1.7-3.1,1.7-5.2c0-2.2-0.6-4-1.7-5.3c-1.1-1.3-2.7-1.9-4.7-1.9
		S3404.7,487.5,3403.5,488.8z"/>
	<path class="st13" d="M3226.1,534.3v4.7h9.2v6h-9.2v5.1h10.4v6.3h-18.2V528h18.2v6.3H3226.1z"/>
	<path class="st13" d="M3264.3,549.4c-1.2,2.1-2.9,3.8-5.1,5.1c-2.2,1.2-4.8,1.8-7.8,1.8h-11.3V528h11.3c3,0,5.6,0.6,7.8,1.8
		s3.9,2.8,5.1,5s1.8,4.6,1.8,7.3C3266.1,544.8,3265.5,547.3,3264.3,549.4z M3256.1,547.4c1.3-1.3,2-3,2-5.3c0-2.3-0.7-4-2-5.3
		c-1.3-1.3-3.2-1.9-5.5-1.9h-2.7v14.4h2.7C3253,549.3,3254.8,548.6,3256.1,547.4z"/>
	<path class="st13" d="M3277.3,528v16.2c0,1.6,0.4,2.8,1.1,3.7c0.7,0.9,1.8,1.3,3.2,1.3c1.4,0,2.5-0.4,3.3-1.3
		c0.7-0.9,1.1-2.1,1.1-3.7V528h7.8v16.2c0,2.7-0.5,4.9-1.6,6.8c-1.1,1.9-2.6,3.3-4.4,4.2c-1.9,0.9-4,1.4-6.3,1.4s-4.4-0.5-6.2-1.4
		c-1.8-0.9-3.2-2.3-4.2-4.2c-1-1.9-1.5-4.1-1.5-6.8V528H3277.3z"/>
	<path class="st13" d="M3317.5,529c1.9,0.9,3.5,2.2,4.7,3.8c1.2,1.6,2,3.5,2.4,5.7h-8.3c-0.5-1.1-1.2-2-2.1-2.6
		c-1-0.6-2.1-0.9-3.3-0.9c-1.7,0-3.1,0.6-4.2,1.9c-1.1,1.3-1.6,3-1.6,5.2s0.5,3.9,1.6,5.2s2.5,2,4.2,2c1.3,0,2.4-0.3,3.3-1
		s1.7-1.5,2.1-2.6h8.3c-0.6,3.3-2.2,5.9-4.5,7.9s-5.4,2.9-9.1,2.9c-2.8,0-5.2-0.6-7.3-1.8c-2.1-1.2-3.7-2.9-4.8-5.1
		s-1.7-4.7-1.7-7.5s0.6-5.3,1.7-7.5s2.7-3.9,4.8-5.1c2.1-1.2,4.5-1.8,7.3-1.8C3313.4,527.7,3315.6,528.1,3317.5,529z"/>
	<path class="st13" d="M3346,551.6h-10l-1.6,4.7h-8.3l10.4-28.2h9.1l10.3,28.2h-8.3L3346,551.6z M3344,545.7l-3-9.2l-3.1,9.2H3344z"
		/>
	<path class="st13" d="M3379.5,528v6.3h-7.6v22h-7.8v-22h-7.6V528H3379.5z"/>
	<path class="st13" d="M3390,528v28.3h-7.9V528H3390z"/>
	<path class="st13" d="M3415.3,529.4c2.2,1.2,3.9,3,5.2,5.2s1.9,4.7,1.9,7.5c0,2.8-0.6,5.3-1.9,7.5c-1.3,2.2-3,3.9-5.2,5.2
		c-2.2,1.2-4.6,1.9-7.3,1.9c-2.6,0-5.1-0.6-7.3-1.9c-2.2-1.2-4-3-5.2-5.2c-1.3-2.2-1.9-4.7-1.9-7.5c0-2.8,0.6-5.3,1.9-7.5
		c1.3-2.2,3-3.9,5.2-5.2c2.2-1.2,4.6-1.9,7.3-1.9C3410.7,527.5,3413.1,528.2,3415.3,529.4z M3403.3,536.8c-1.1,1.3-1.7,3.1-1.7,5.3
		c0,2.2,0.6,3.9,1.7,5.2s2.7,2,4.7,2c2,0,3.5-0.7,4.7-2c1.1-1.3,1.7-3.1,1.7-5.2c0-2.2-0.6-4-1.7-5.3c-1.1-1.3-2.7-1.9-4.7-1.9
		S3404.4,535.5,3403.3,536.8z"/>
	<path class="st13" d="M3452.1,556.3h-7.9l-10.4-15.8v15.8h-7.9V528h7.9l10.4,16v-16h7.9V556.3z"/>
</g>
<g id="affiliation">
	<g>
		<rect x="309" y="610.8" class="st14" width="228" height="82"/>
	</g>
	<g>
		<path class="st4" d="M379.9,639.3l6.4,20.4l6.4-20.4h8.4l-9.7,28.3h-10.1l-9.7-28.3H379.9z"/>
		<path class="st4" d="M411.2,639.3v28.3h-7.9v-28.3H411.2z"/>
		<path class="st4" d="M423.5,645.6v4.7h9.2v6h-9.2v5.1h10.4v6.3h-18.2v-28.3h18.2v6.3H423.5z"/>
		<path class="st4" d="M477.1,639.3l-6.6,28.3h-9.8l-3.9-17.5l-3.9,17.5h-9.8l-6.6-28.3h8.5l3.1,19.3l4.4-19.3h8.6l4.4,19.3
			l3.1-19.3H477.1z"/>
	</g>
</g>
<g id="slas">
	<g>
		<rect x="1038" y="610.8" class="st14" width="228" height="82"/>
	</g>
	<g>
		<path class="st4" d="M1108.9,639.3l6.4,20.4l6.4-20.4h8.4l-9.7,28.3h-10.1l-9.7-28.3H1108.9z"/>
		<path class="st4" d="M1140.2,639.3v28.3h-7.9v-28.3H1140.2z"/>
		<path class="st4" d="M1152.5,645.6v4.7h9.2v6h-9.2v5.1h10.4v6.3h-18.2v-28.3h18.2v6.3H1152.5z"/>
		<path class="st4" d="M1206.1,639.3l-6.6,28.3h-9.8l-3.9-17.5l-3.9,17.5h-9.8l-6.6-28.3h8.5l3.1,19.3l4.4-19.3h8.6l4.4,19.3
			l3.1-19.3H1206.1z"/>
	</g>
</g>
<g id="nas">
	<g>
		<rect x="1766" y="610.8" class="st14" width="228" height="82"/>
	</g>
	<g>
		<path class="st4" d="M1836.9,639.3l6.4,20.4l6.4-20.4h8.4l-9.7,28.3h-10.1l-9.7-28.3H1836.9z"/>
		<path class="st4" d="M1868.2,639.3v28.3h-7.9v-28.3H1868.2z"/>
		<path class="st4" d="M1880.5,645.6v4.7h9.2v6h-9.2v5.1h10.4v6.3h-18.2v-28.3h18.2v6.3H1880.5z"/>
		<path class="st4" d="M1934.1,639.3l-6.6,28.3h-9.8l-3.9-17.5l-3.9,17.5h-9.8l-6.6-28.3h8.5l3.1,19.3l4.4-19.3h8.6l4.4,19.3
			l3.1-19.3H1934.1z"/>
	</g>
</g>
<g id="rti">
	<g>
		<rect x="2493" y="610.8" class="st14" width="228" height="82"/>
	</g>
	<g>
		<path class="st4" d="M2563.9,639.3l6.4,20.4l6.4-20.4h8.4l-9.7,28.3h-10.1l-9.7-28.3H2563.9z"/>
		<path class="st4" d="M2595.2,639.3v28.3h-7.9v-28.3H2595.2z"/>
		<path class="st4" d="M2607.5,645.6v4.7h9.2v6h-9.2v5.1h10.4v6.3h-18.2v-28.3h18.2v6.3H2607.5z"/>
		<path class="st4" d="M2661.1,639.3l-6.6,28.3h-9.8l-3.9-17.5l-3.9,17.5h-9.8l-6.6-28.3h8.5l3.1,19.3l4.4-19.3h8.6l4.4,19.3
			l3.1-19.3H2661.1z"/>
	</g>
</g>
<g id="rte">
	<rect x="3222" y="610.8" class="st14" width="228" height="82"/>
	<g>
		<path class="st4" d="M3292.9,639.3l6.4,20.4l6.4-20.4h8.4l-9.7,28.3h-10.1l-9.7-28.3H3292.9z"/>
		<path class="st4" d="M3324.2,639.3v28.3h-7.9v-28.3H3324.2z"/>
		<path class="st4" d="M3336.5,645.6v4.7h9.2v6h-9.2v5.1h10.4v6.3h-18.2v-28.3h18.2v6.3H3336.5z"/>
		<path class="st4" d="M3390.1,639.3l-6.6,28.3h-9.8l-3.9-17.5l-3.9,17.5h-9.8l-6.6-28.3h8.5l3.1,19.3l4.4-19.3h8.6l4.4,19.3
			l3.1-19.3H3390.1z"/>
	</g>
</g>
</svg>
